<svg width="40" height="39" viewBox="0 0 40 39" fill="none" xmlns="http://www.w3.org/2000/svg">
<path d="M22.9369 5.41026C25.4332 5.78637 27.7239 6.65432 29.6035 7.89839C31.395 9.08459 32.7166 10.589 33.4214 12.2381C33.5976 12.6143 33.9794 12.8746 34.3906 12.8746C34.5374 12.8746 34.6843 12.8457 34.8018 12.7879C35.3304 12.5564 35.5947 11.9488 35.3598 11.4281C34.5081 9.43177 32.9222 7.60907 30.7783 6.19141C28.6344 4.77376 26.0499 3.79008 23.2599 3.3561C22.9662 3.32717 22.7019 3.38503 22.467 3.55863C22.232 3.73222 22.0852 3.96367 22.0558 4.25299C21.9383 4.80269 22.3495 5.32346 22.9369 5.41026Z" fill="#1E282C"/>
<path d="M7.7533 10.9362C7.92951 11.3123 8.31131 11.5727 8.75183 11.5727C8.7812 11.5727 8.7812 11.5727 8.81057 11.5727C9.2511 11.5437 9.63289 11.2544 9.77974 10.8494C9.92658 10.4443 9.75037 9.95249 9.42731 9.69211C9.07489 9.43172 8.54625 9.40279 8.16446 9.66318C7.72393 9.95249 7.54772 10.5022 7.7533 10.9362Z" fill="#1E282C"/>
<path d="M12.4523 8.76635C12.4816 8.76635 12.4816 8.76635 12.511 8.76635C12.9222 8.73742 13.3333 8.4481 13.4508 8.04306C13.5977 7.63801 13.4508 7.1751 13.0984 6.88579C12.746 6.59647 12.188 6.59647 11.8355 6.85685C11.4537 7.14617 11.3069 7.66694 11.4831 8.10092C11.63 8.50596 12.0118 8.76635 12.4523 8.76635Z" fill="#1E282C"/>
<path d="M15.4479 10.9362C15.6241 11.3123 16.0059 11.5727 16.4464 11.5727C16.4758 11.5727 16.4758 11.5727 16.5051 11.5727C16.9457 11.5437 17.3275 11.2544 17.4743 10.8494C17.6211 10.4443 17.4449 9.95249 17.1219 9.69211C16.7695 9.43172 16.2408 9.40279 15.859 9.66318C15.4185 9.95249 15.2423 10.5022 15.4479 10.9362Z" fill="#1E282C"/>
<path d="M40 24.3316C40 22.6536 38.9721 21.1491 37.3862 20.5126V19.0082C37.5918 18.9214 37.768 18.8346 37.9442 18.6899C38.9134 18.0534 39.442 17.0408 39.442 15.9414C39.442 15.3049 39.2658 14.6973 38.9134 14.1476C39.0896 13.6847 39.1189 13.1929 39.0308 12.73C38.3554 9.17136 36.0646 5.93101 32.5404 3.58754C29.0749 1.273 24.6109 0 20 0C15.3891 0 10.9251 1.273 7.45962 3.58754C3.93539 5.93101 1.61527 9.2003 0.939794 12.73C0.82232 13.3375 0.910426 13.974 1.20411 14.5237C0.998532 14.9577 0.881057 15.4496 0.881057 15.9414C0.881057 17.0697 1.43906 18.0534 2.37885 18.6899C2.43759 18.7188 2.49633 18.7767 2.58443 18.8056V20.4837C1.0279 21.1202 0 22.6536 0 24.3316V24.4763C0 25.5467 0.440529 26.5883 1.17474 27.3405C0.998532 27.7455 0.881057 28.2085 0.881057 28.6424C0.881057 29.4236 1.14537 30.1758 1.67401 30.7544V33.3872C1.67401 36.4829 4.22907 38.9711 7.34214 38.9711H32.5991C35.7416 38.9711 38.2673 36.454 38.2673 33.3872V31.1306C39.0015 30.4941 39.442 29.5972 39.442 28.6424C39.442 28.0927 39.2952 27.543 39.0308 27.0512C39.6476 26.3279 39.9706 25.4021 39.9706 24.4473V24.3316H40ZM3.81791 31.9696C4.40529 32.0564 4.99266 32.0274 5.58003 31.8249H5.6094C5.66814 31.796 5.72687 31.7671 5.81498 31.7671C6.04993 31.6803 6.31424 31.6224 6.60793 31.6224C7.40088 31.6224 7.7533 31.8539 8.25257 32.23C8.83994 32.635 9.66226 33.2136 11.1307 33.2136C12.5991 33.2136 13.4214 32.635 14.0088 32.23C14.5374 31.8828 14.8605 31.6224 15.6535 31.6224C16.4464 31.6224 16.7988 31.8539 17.2981 32.23C17.8855 32.635 18.7078 33.2136 20.1762 33.2136C21.6446 33.2136 22.467 32.635 23.0543 32.23C23.5536 31.8828 23.906 31.6224 24.699 31.6224C25.4919 31.6224 25.8443 31.8828 26.3436 32.23C26.931 32.635 27.7533 33.2136 29.2217 33.2136C30.6902 33.2136 31.5125 32.635 32.0999 32.23C32.6285 31.8828 32.9515 31.6224 33.7445 31.6224C33.9501 31.6224 34.1557 31.6513 34.3319 31.7092C34.42 31.7381 34.5374 31.7671 34.6256 31.796C34.743 31.8249 34.8311 31.8828 34.9486 31.9117C35.3304 32.0274 35.7416 32.0564 36.1527 32.0274V33.4162C36.1527 35.3546 34.5668 36.9169 32.5991 36.9169H7.34214C5.37445 36.9169 3.78855 35.3546 3.78855 33.4162V31.9696H3.81791ZM35.3598 29.7997C34.8605 29.5972 34.3319 29.5104 33.7445 29.5104C32.2761 29.5104 31.4537 30.089 30.8664 30.4941C30.3377 30.8412 30.0147 31.1016 29.2217 31.1016C28.4288 31.1016 28.0764 30.8702 27.5771 30.4941C26.9897 30.089 26.1674 29.5104 24.699 29.5104C23.2305 29.5104 22.4082 30.089 21.8209 30.4941C21.2922 30.8412 20.9692 31.1016 20.1762 31.1016C19.3833 31.1016 19.0308 30.8702 18.5316 30.4941C17.9442 30.089 17.1219 29.5104 15.6535 29.5104C14.185 29.5104 13.3627 30.089 12.7753 30.4941C12.2467 30.8412 11.9236 31.1016 11.1307 31.1016C10.3377 31.1016 9.98532 30.8702 9.48605 30.4941C8.89868 30.089 8.07636 29.5104 6.60793 29.5104C6.02056 29.5104 5.49192 29.5972 4.99266 29.7997C4.55213 29.9733 4.08223 29.9444 3.67107 29.7418C3.31865 29.5393 3.0837 29.2211 3.02496 28.845C2.99559 28.7292 2.99559 28.6135 3.02496 28.4978C3.02496 28.4978 3.02496 28.4688 3.02496 28.4399C3.40675 28.5556 3.78855 28.5846 4.17034 28.5846H18.2379L19.5888 29.9154C20 30.3205 20.6755 30.3205 21.0866 29.9154L22.4376 28.5846H35.8003C36.2702 28.5846 36.7401 28.4978 37.1806 28.3531C37.21 28.3531 37.2394 28.3242 37.2981 28.3242C37.3275 28.411 37.3275 28.5267 37.3568 28.6135C37.3568 29.1632 36.975 29.684 36.3877 29.8286C36.0352 29.9444 35.6828 29.9154 35.3598 29.7997ZM3.02496 15.9125C3.23054 15.9703 3.46549 15.9993 3.70044 15.9993H36.2996C36.652 15.9993 37.0044 15.9414 37.3275 15.7967C37.3275 15.8546 37.3275 15.8835 37.3275 15.9414C37.3275 16.3464 37.1219 16.7226 36.7695 16.954C36.3877 17.2144 35.9178 17.2723 35.4772 17.1276C35.3891 17.0987 35.301 17.0697 35.2423 17.0408C35.0661 16.9829 34.8899 16.9251 34.6843 16.8672C34.3906 16.8093 34.0676 16.7804 33.7445 16.7804C32.2761 16.7804 31.4537 17.359 30.8664 17.7641C30.3377 18.1113 30.0147 18.3717 29.2217 18.3717C28.4288 18.3717 28.0764 18.1402 27.5771 17.7641C26.9897 17.359 26.1674 16.7804 24.699 16.7804C23.2305 16.7804 22.4082 17.359 21.8209 17.7641C21.2922 18.1113 20.9692 18.3717 20.1762 18.3717C19.3833 18.3717 19.0308 18.1402 18.5316 17.7641C17.9442 17.359 17.1219 16.7804 15.6535 16.7804C14.185 16.7804 13.3627 17.359 12.7753 17.7641C12.2467 18.1113 11.9236 18.3717 11.1307 18.3717C10.3377 18.3717 9.98532 18.1402 9.48605 17.7641C8.89868 17.359 8.07636 16.7804 6.60793 16.7804C6.02056 16.7804 5.49192 16.8672 4.99266 17.0697C4.52276 17.2433 3.99413 17.2144 3.58297 16.9251C3.23054 16.7226 3.02496 16.3464 3.02496 15.9125C3.02496 15.9414 3.02496 15.9125 3.02496 15.9125ZM4.72834 19.2685C5.08076 19.2396 5.43319 19.1528 5.84435 19.0082C6.13803 18.8924 6.49046 18.8635 6.90162 18.8924C7.48899 18.9503 7.81204 19.1528 8.25257 19.4711C8.57562 19.7025 8.98678 19.9918 9.54479 20.1944H4.72834V19.2685ZM14.0088 19.4711C14.5374 19.1239 14.8605 18.8635 15.6535 18.8635C16.4464 18.8635 16.7988 19.095 17.2981 19.4711C17.6211 19.7025 18.0323 19.9918 18.5903 20.1944H12.7166C13.2746 19.9918 13.6858 19.7025 14.0088 19.4711ZM23.0543 19.4711C23.583 19.1239 23.906 18.8635 24.699 18.8635C25.4919 18.8635 25.8443 19.095 26.3436 19.4711C26.6667 19.7025 27.0778 19.9918 27.6358 20.1944H21.7621C22.3201 19.9918 22.7313 19.7025 23.0543 19.4711ZM32.0999 19.4711C32.6285 19.1239 32.9515 18.8635 33.7445 18.8635C34.0382 18.8635 34.3025 18.9214 34.5668 19.0082C34.8018 19.095 35.0367 19.1817 35.2717 19.2107V20.1654H30.8076C31.3656 19.9918 31.7768 19.7025 32.0999 19.4711ZM16.1233 26.5015H11.7474C11.8355 26.4436 11.8943 26.4147 11.953 26.3279L13.9501 24.3605L16.1233 26.5015ZM9.36858 22.2774H11.8355L12.4523 22.885L11.2188 24.1001L9.36858 22.2774ZM21.2335 26.8197L20.3231 27.7166L14.8311 22.2774H25.8737L21.2335 26.8197ZM4.19971 22.2774H6.37298L10.4846 26.3279C10.5433 26.3858 10.6314 26.4436 10.6902 26.5015H4.19971C3.84728 26.5015 3.49486 26.4147 3.17181 26.2411C2.5257 25.8939 2.14391 25.1996 2.14391 24.4763V24.3316C2.11454 23.2033 3.05433 22.2774 4.19971 22.2774ZM36.975 26.1254C36.6226 26.3568 36.2115 26.5015 35.8003 26.5015H24.5815L28.8987 22.2774H35.8003C36.9457 22.2774 37.8561 23.1743 37.8561 24.3027V24.4473C37.8561 25.1417 37.533 25.7493 36.975 26.1254ZM20 2.08309C24.1997 2.08309 28.2232 3.24036 31.3656 5.32344C34.42 7.34866 36.3877 10.1261 36.975 13.1061C37.0044 13.2797 36.9457 13.4822 36.8282 13.6269C36.7107 13.7715 36.5051 13.8583 36.3289 13.8583H3.72981C3.52423 13.8583 3.34802 13.7715 3.23054 13.6269C3.11307 13.4822 3.05433 13.2797 3.0837 13.1061C3.6417 10.1261 5.63877 7.34866 8.6931 5.32344C11.7768 3.24036 15.8003 2.08309 20 2.08309Z" fill="#1E282C"/>
<path d="M18.3847 8.76633C18.4141 8.76633 18.4141 8.76633 18.4435 8.76633C18.884 8.7374 19.2658 8.44809 19.4126 8.04304C19.5595 7.638 19.3833 7.14616 19.0602 6.88577C18.7078 6.62539 18.1792 6.59645 17.7974 6.85684C17.4156 7.14616 17.2394 7.66693 17.4449 8.1009C17.5624 8.50595 17.9736 8.76633 18.3847 8.76633Z" fill="#1E282C"/>
<path d="M20.8811 11.457C21.0573 11.8331 21.4391 12.0935 21.8796 12.0935C21.909 12.0935 21.909 12.0935 21.9383 12.0935C22.3789 12.0645 22.7607 11.7752 22.9075 11.3702C23.0543 10.9651 22.8781 10.4733 22.5551 10.2129C22.2026 9.95253 21.674 9.9236 21.2922 10.184C20.8517 10.4733 20.7048 11.023 20.8811 11.457Z" fill="#1E282C"/>
<path d="M19.0308 4.77369C19.207 4.88942 19.4126 4.94728 19.6182 4.94728C19.8532 4.94728 20.1175 4.86049 20.2937 4.71583C20.6461 4.42651 20.7636 3.93467 20.6167 3.52963C20.4699 3.12458 20.0587 2.8642 19.6182 2.8642C19.1777 2.8642 18.7665 3.15351 18.6197 3.52963C18.4435 3.99254 18.6197 4.51331 19.0308 4.77369Z" fill="#1E282C"/>
</svg>
