<svg width="115" height="115" viewBox="0 0 115 115" fill="none" xmlns="http://www.w3.org/2000/svg">
<path d="M85.0584 8.92241C84.1364 4.40371 80.1332 0.991379 75.3448 0.991379C74.2484 0.991379 73.3621 1.87767 73.3621 2.97414C73.3621 4.0706 74.2484 4.9569 75.3448 4.9569C78.6243 4.9569 81.2931 7.62569 81.2931 10.9052C81.2931 14.1847 78.6243 16.8534 75.3448 16.8534C74.2484 16.8534 73.3621 17.7397 73.3621 18.8362C73.3621 19.9327 74.2484 20.819 75.3448 20.819C80.1312 20.819 84.1364 17.4066 85.0584 12.8879H111.034V30.7328H3.96552V12.8879H31.7241H37.6724C38.7689 12.8879 39.6552 12.0016 39.6552 10.9052C39.6552 9.80871 38.7689 8.92241 37.6724 8.92241H34.0717C34.8926 6.61845 37.0736 4.9569 39.6552 4.9569C42.9347 4.9569 45.6034 7.62569 45.6034 10.9052C45.6034 14.1847 42.9347 16.8534 39.6552 16.8534C38.5587 16.8534 37.6724 17.7397 37.6724 18.8362C37.6724 19.9327 38.5587 20.819 39.6552 20.819C45.1216 20.819 49.569 16.3716 49.569 10.9052C49.569 5.43871 45.1216 0.991379 39.6552 0.991379C34.8688 0.991379 30.8636 4.40371 29.9416 8.92241H0V34.6983V114.009H115V34.6983V8.92241H85.0584ZM111.034 110.043H3.96552V34.6983H111.034V110.043Z" fill="black"/>
<path d="M51.5517 4.9569C54.8312 4.9569 57.5 7.62569 57.5 10.9052C57.5 14.1847 54.8312 16.8534 51.5517 16.8534C50.4553 16.8534 49.569 17.7397 49.569 18.8362C49.569 19.9327 50.4553 20.819 51.5517 20.819C57.0182 20.819 61.4655 16.3716 61.4655 10.9052C61.4655 5.43871 57.0182 0.991379 51.5517 0.991379C50.4553 0.991379 49.569 1.87767 49.569 2.97414C49.569 4.0706 50.4553 4.9569 51.5517 4.9569Z" fill="black"/>
<path d="M63.4483 4.9569C66.7278 4.9569 69.3965 7.62569 69.3965 10.9052C69.3965 14.1847 66.7278 16.8534 63.4483 16.8534C62.3518 16.8534 61.4655 17.7397 61.4655 18.8362C61.4655 19.9327 62.3518 20.819 63.4483 20.819C68.9147 20.819 73.3621 16.3716 73.3621 10.9052C73.3621 5.43871 68.9147 0.991379 63.4483 0.991379C62.3518 0.991379 61.4655 1.87767 61.4655 2.97414C61.4655 4.0706 62.3518 4.9569 63.4483 4.9569Z" fill="black"/>
<path d="M43.6207 50.5603C44.7157 50.5603 45.6035 49.6726 45.6035 48.5776C45.6035 47.4825 44.7157 46.5948 43.6207 46.5948C42.5257 46.5948 41.6379 47.4825 41.6379 48.5776C41.6379 49.6726 42.5257 50.5603 43.6207 50.5603Z" fill="black"/>
<path d="M57.5 50.5603C58.595 50.5603 59.4827 49.6726 59.4827 48.5776C59.4827 47.4825 58.595 46.5948 57.5 46.5948C56.4049 46.5948 55.5172 47.4825 55.5172 48.5776C55.5172 49.6726 56.4049 50.5603 57.5 50.5603Z" fill="black"/>
<path d="M71.3793 50.5603C72.4743 50.5603 73.3621 49.6726 73.3621 48.5776C73.3621 47.4825 72.4743 46.5948 71.3793 46.5948C70.2843 46.5948 69.3965 47.4825 69.3965 48.5776C69.3965 49.6726 70.2843 50.5603 71.3793 50.5603Z" fill="black"/>
<path d="M85.2586 50.5603C86.3537 50.5603 87.2414 49.6726 87.2414 48.5776C87.2414 47.4825 86.3537 46.5948 85.2586 46.5948C84.1636 46.5948 83.2759 47.4825 83.2759 48.5776C83.2759 49.6726 84.1636 50.5603 85.2586 50.5603Z" fill="black"/>
<path d="M99.1379 50.5603C100.233 50.5603 101.121 49.6726 101.121 48.5776C101.121 47.4825 100.233 46.5948 99.1379 46.5948C98.0429 46.5948 97.1552 47.4825 97.1552 48.5776C97.1552 49.6726 98.0429 50.5603 99.1379 50.5603Z" fill="black"/>
<path d="M15.8621 66.4224C16.9571 66.4224 17.8448 65.5347 17.8448 64.4397C17.8448 63.3446 16.9571 62.4569 15.8621 62.4569C14.767 62.4569 13.8793 63.3446 13.8793 64.4397C13.8793 65.5347 14.767 66.4224 15.8621 66.4224Z" fill="black"/>
<path d="M29.7414 66.4224C30.8364 66.4224 31.7241 65.5347 31.7241 64.4397C31.7241 63.3446 30.8364 62.4569 29.7414 62.4569C28.6463 62.4569 27.7586 63.3446 27.7586 64.4397C27.7586 65.5347 28.6463 66.4224 29.7414 66.4224Z" fill="black"/>
<path d="M43.6207 66.4224C44.7157 66.4224 45.6035 65.5347 45.6035 64.4397C45.6035 63.3446 44.7157 62.4569 43.6207 62.4569C42.5257 62.4569 41.6379 63.3446 41.6379 64.4397C41.6379 65.5347 42.5257 66.4224 43.6207 66.4224Z" fill="black"/>
<path d="M57.5 66.4224C58.595 66.4224 59.4827 65.5347 59.4827 64.4397C59.4827 63.3446 58.595 62.4569 57.5 62.4569C56.4049 62.4569 55.5172 63.3446 55.5172 64.4397C55.5172 65.5347 56.4049 66.4224 57.5 66.4224Z" fill="black"/>
<path d="M71.3793 66.4224C72.4743 66.4224 73.3621 65.5347 73.3621 64.4397C73.3621 63.3446 72.4743 62.4569 71.3793 62.4569C70.2843 62.4569 69.3965 63.3446 69.3965 64.4397C69.3965 65.5347 70.2843 66.4224 71.3793 66.4224Z" fill="black"/>
<path d="M85.2586 66.4224C86.3537 66.4224 87.2414 65.5347 87.2414 64.4397C87.2414 63.3446 86.3537 62.4569 85.2586 62.4569C84.1636 62.4569 83.2759 63.3446 83.2759 64.4397C83.2759 65.5347 84.1636 66.4224 85.2586 66.4224Z" fill="black"/>
<path d="M99.1379 66.4224C100.233 66.4224 101.121 65.5347 101.121 64.4397C101.121 63.3446 100.233 62.4569 99.1379 62.4569C98.0429 62.4569 97.1552 63.3446 97.1552 64.4397C97.1552 65.5347 98.0429 66.4224 99.1379 66.4224Z" fill="black"/>
<path d="M15.8621 80.3017C16.9571 80.3017 17.8448 79.414 17.8448 78.3189C17.8448 77.2239 16.9571 76.3362 15.8621 76.3362C14.767 76.3362 13.8793 77.2239 13.8793 78.3189C13.8793 79.414 14.767 80.3017 15.8621 80.3017Z" fill="black"/>
<path d="M29.7414 80.3017C30.8364 80.3017 31.7241 79.414 31.7241 78.3189C31.7241 77.2239 30.8364 76.3362 29.7414 76.3362C28.6463 76.3362 27.7586 77.2239 27.7586 78.3189C27.7586 79.414 28.6463 80.3017 29.7414 80.3017Z" fill="black"/>
<path d="M43.6207 80.3017C44.7157 80.3017 45.6035 79.414 45.6035 78.3189C45.6035 77.2239 44.7157 76.3362 43.6207 76.3362C42.5257 76.3362 41.6379 77.2239 41.6379 78.3189C41.6379 79.414 42.5257 80.3017 43.6207 80.3017Z" fill="black"/>
<path d="M57.5 80.3017C58.595 80.3017 59.4827 79.414 59.4827 78.3189C59.4827 77.2239 58.595 76.3362 57.5 76.3362C56.4049 76.3362 55.5172 77.2239 55.5172 78.3189C55.5172 79.414 56.4049 80.3017 57.5 80.3017Z" fill="black"/>
<path d="M71.3793 80.3017C72.4743 80.3017 73.3621 79.414 73.3621 78.3189C73.3621 77.2239 72.4743 76.3362 71.3793 76.3362C70.2843 76.3362 69.3965 77.2239 69.3965 78.3189C69.3965 79.414 70.2843 80.3017 71.3793 80.3017Z" fill="black"/>
<path d="M85.2586 80.3017C86.3537 80.3017 87.2414 79.414 87.2414 78.3189C87.2414 77.2239 86.3537 76.3362 85.2586 76.3362C84.1636 76.3362 83.2759 77.2239 83.2759 78.3189C83.2759 79.414 84.1636 80.3017 85.2586 80.3017Z" fill="black"/>
<path d="M99.1379 80.3017C100.233 80.3017 101.121 79.414 101.121 78.3189C101.121 77.2239 100.233 76.3362 99.1379 76.3362C98.0429 76.3362 97.1552 77.2239 97.1552 78.3189C97.1552 79.414 98.0429 80.3017 99.1379 80.3017Z" fill="black"/>
<path d="M15.8621 96.1638C16.9571 96.1638 17.8448 95.2761 17.8448 94.181C17.8448 93.086 16.9571 92.1983 15.8621 92.1983C14.767 92.1983 13.8793 93.086 13.8793 94.181C13.8793 95.2761 14.767 96.1638 15.8621 96.1638Z" fill="black"/>
<path d="M29.7414 96.1638C30.8364 96.1638 31.7241 95.2761 31.7241 94.181C31.7241 93.086 30.8364 92.1983 29.7414 92.1983C28.6463 92.1983 27.7586 93.086 27.7586 94.181C27.7586 95.2761 28.6463 96.1638 29.7414 96.1638Z" fill="black"/>
<path d="M43.6207 96.1638C44.7157 96.1638 45.6035 95.2761 45.6035 94.181C45.6035 93.086 44.7157 92.1983 43.6207 92.1983C42.5257 92.1983 41.6379 93.086 41.6379 94.181C41.6379 95.2761 42.5257 96.1638 43.6207 96.1638Z" fill="black"/>
<path d="M57.5 96.1638C58.595 96.1638 59.4827 95.2761 59.4827 94.181C59.4827 93.086 58.595 92.1983 57.5 92.1983C56.4049 92.1983 55.5172 93.086 55.5172 94.181C55.5172 95.2761 56.4049 96.1638 57.5 96.1638Z" fill="black"/>
<path d="M71.3793 96.1638C72.4743 96.1638 73.3621 95.2761 73.3621 94.181C73.3621 93.086 72.4743 92.1983 71.3793 92.1983C70.2843 92.1983 69.3965 93.086 69.3965 94.181C69.3965 95.2761 70.2843 96.1638 71.3793 96.1638Z" fill="black"/>
</svg>
