<svg width="23" height="23" viewBox="0 0 23 23" fill="none" xmlns="http://www.w3.org/2000/svg">
<g clip-path="url(#clip0)">
<path d="M0.718738 2.15624L20.8437 22.2812C21.2407 22.6782 21.8843 22.6782 22.2812 22.2813C22.6782 21.8843 22.6782 21.2407 22.2812 20.8437L2.15624 0.718739C1.75928 0.321783 1.11569 0.321784 0.718735 0.718738C0.321781 1.11569 0.321782 1.75928 0.718738 2.15624Z" fill="#1E282C"/>
<path d="M20.8438 0.718739L0.718753 20.8437C0.321797 21.2407 0.321794 21.8843 0.718749 22.2812C1.1157 22.6782 1.7593 22.6782 2.15625 22.2812L22.2813 2.15624C22.6782 1.75928 22.6782 1.11569 22.2813 0.718735C21.8843 0.321781 21.2407 0.321783 20.8438 0.718739Z" fill="#1E282C"/>
</g>
<defs>
<clipPath id="clip0">
<rect width="23" height="23" fill="white"/>
</clipPath>
</defs>
</svg>
