<svg width="32" height="39" viewBox="0 0 32 39" fill="none" xmlns="http://www.w3.org/2000/svg">
<path d="M30.1472 3.45858H28.5461L28.0886 1.2287C27.9514 0.523337 27.3109 0 26.579 0H5.42101C4.68906 0 4.0486 0.523337 3.91136 1.2287L3.45389 3.45858H1.85275C0.846319 3.45858 0 4.27771 0 5.30163V7.75904C0 8.76021 0.823445 9.6021 1.85275 9.6021H2.28735L2.63045 12.014C2.53896 12.0823 2.47034 12.1505 2.40171 12.2415C2.08149 12.6056 1.94425 13.0834 2.01287 13.5613L4.78056 32.993C4.87205 33.5846 5.2609 34.0624 5.80986 34.29L6.17584 36.8611C6.35883 38.0899 7.41101 39 8.66905 39H23.3309C24.5661 39 25.6412 38.0671 25.8242 36.8611L26.1901 34.29C26.7391 34.0624 27.1279 33.5618 27.2194 32.993L30.01 13.5385C30.0786 13.0607 29.9414 12.5828 29.6211 12.2188C29.5525 12.1505 29.4839 12.0595 29.3924 12.014L29.7355 9.6021H30.1701C31.1765 9.6021 32.0229 8.78296 32.0229 7.75904V5.30163C32 4.27771 31.1765 3.45858 30.1472 3.45858ZM4.11723 9.6021H27.8828L27.5854 11.6499H4.41458L4.11723 9.6021ZM20.1515 34.4265H24.3374L24.0171 36.6109C23.9714 36.9522 23.674 37.2024 23.3309 37.2024H8.66905C8.32594 37.2024 8.02859 36.9522 7.98284 36.6109L7.66261 34.4265H17.5211C18.0243 34.4265 18.436 34.0169 18.436 33.5163C18.436 33.0158 18.0243 32.6062 17.5211 32.6062H6.56469L3.81987 13.4475H28.1572L25.4124 32.6062H20.1515C19.6483 32.6062 19.2366 33.0158 19.2366 33.5163C19.2366 34.0169 19.6483 34.4265 20.1515 34.4265ZM7.79985 4.36873C7.79985 3.86814 7.38813 3.45858 6.88492 3.45858H5.28377L5.62687 1.79755H26.3502L26.6933 3.45858H9.51536C9.01215 3.45858 8.60043 3.86814 8.60043 4.36873C8.60043 4.86931 9.01215 5.27888 9.51536 5.27888H30.1472C30.1701 5.27888 30.1701 5.30163 30.1701 5.30163V7.75904C30.1701 7.7818 30.1472 7.7818 30.1472 7.7818H1.85275C1.82988 7.7818 1.82988 7.75904 1.82988 7.75904V5.30163C1.82988 5.27888 1.85275 5.27888 1.85275 5.27888H6.90779C7.38813 5.27888 7.79985 4.86931 7.79985 4.36873Z" fill="#1E282C"/>
</svg>
