<svg width="138" height="115" viewBox="0 0 138 115" fill="none" xmlns="http://www.w3.org/2000/svg">
<path d="M107.813 13.6275C107.238 12.4775 106.145 10.235 103.73 8.05C103.385 7.705 102.983 7.4175 102.638 7.13C99.935 5.0025 96.14 3.1625 90.3325 2.5875L80.5 1.5525C79.9825 1.495 79.58 1.725 79.1775 2.07L69 14.5475H43.6425L32.89 1.955C32.6025 1.61 32.085 1.38 31.6825 1.4375L21.7925 2.4725C19.665 2.7025 14.72 3.2775 10.1775 6.6125C9.25751 7.1875 8.51001 7.82 7.87751 8.5675C6.49751 9.9475 5.29001 11.615 4.25501 13.685C1.03501 20.24 -0.114994 27.255 0.920006 33.9825C2.35751 43.0675 16.445 64.055 18.8025 67.62V85.445C18.8025 87.17 20.01 88.55 21.62 88.55H91.8275C93.4375 88.55 94.645 87.17 94.645 85.445V67.6775C96.5425 64.5725 109.595 43.125 111.09 33.925C112.528 25.3575 110.055 18.17 107.813 13.6275ZM81.0175 4.4275L87.4 5.06L79.235 14.5475H72.7375L81.0175 4.4275ZM90.7925 5.5775C93.495 6.095 98.4975 7.475 101.085 9.4875C101.315 9.66 101.43 9.775 101.603 9.9475C101.833 10.1775 101.948 10.2925 102.12 10.5225C105.398 14.72 104.88 33.12 94.7025 47.0925V27.83V17.71C94.7025 16.79 94.3575 15.8125 93.6675 15.2375C93.15 14.72 92.5175 14.49 91.8275 14.605H83.0875L90.7925 5.5775ZM86.4225 34.845H27.0825C27.025 34.845 27.025 34.845 26.91 34.845C24.725 34.7875 22.195 30.1875 21.7925 26.105V17.71C21.7925 17.6525 21.7925 17.5375 21.7925 17.48H91.7125C91.7125 17.5375 91.77 17.6525 91.77 17.71V27.83C91.8275 31.6825 89.4125 34.845 86.4225 34.845ZM31.2225 4.4275L39.8475 14.5475H33.4075L24.84 5.06L31.2225 4.4275ZM10.0625 10.5225C10.235 10.35 10.35 10.235 10.5225 10.005C10.81 9.7175 11.0975 9.4875 11.385 9.2575C14.0875 7.3025 18.86 6.095 21.39 5.5775L29.4975 14.5475H21.735C20.125 14.5475 18.9175 15.9275 18.9175 17.6525V24.38C18.86 24.5525 18.86 24.6675 18.86 24.84V27.83V47.955C8.68251 34.04 6.49751 15.0075 10.0625 10.5225ZM3.85251 33.58C2.99001 28.3475 3.62251 23.0575 5.57751 17.94C5.57751 27.715 9.77501 42.205 18.86 52.67V62.3875C14.145 55.1425 4.94501 40.3075 3.85251 33.58ZM91.8275 85.445C91.8275 85.5025 91.8275 85.6175 91.8275 85.675H21.7925C21.7925 85.6175 21.735 85.5025 21.735 85.445V67.6775C21.7925 67.505 21.7925 67.39 21.7925 67.2175V52.1525C21.7925 51.98 21.7925 51.865 21.735 51.6925V35.3625C23.1725 36.8 25.0125 37.6625 27.025 37.6625H27.0825H86.4225H86.48C86.6525 37.6625 86.7675 37.6625 86.825 37.6625C86.8825 37.6625 87.055 37.6625 87.1125 37.6625C87.3425 37.6625 87.5725 37.605 87.6875 37.605C87.745 37.605 87.745 37.605 87.86 37.605C88.09 37.5475 88.205 37.5475 88.435 37.4325C88.4925 37.4325 88.4925 37.4325 88.6075 37.375C88.8375 37.3175 88.9525 37.2025 89.125 37.145C89.1825 37.145 89.2975 37.0875 89.355 37.0875C89.5275 37.03 89.6425 36.915 89.815 36.8575C89.8725 36.8 89.9875 36.8 90.1025 36.685C90.275 36.6275 90.3325 36.5125 90.4475 36.455C90.62 36.3975 90.6775 36.2825 90.7925 36.1675C90.85 36.11 91.0225 35.995 91.08 35.9375C91.2525 35.765 91.3675 35.65 91.54 35.4775C91.5975 35.42 91.5975 35.42 91.7125 35.305L91.77 35.2475V51.175V67.275V85.445H91.8275ZM108.273 33.465C107.18 40.135 99.015 54.625 94.7025 61.985V51.75C103.155 41.975 106.95 28.52 106.893 18.86C108.273 22.8275 109.193 27.83 108.273 33.465Z" fill="black"/>
<path d="M23.6325 51.405C23.69 51.405 23.805 51.405 23.8625 51.3475C24.38 51.0025 25.0125 50.715 25.5875 50.5425C26.1625 50.485 26.68 50.485 27.0825 50.6C27.255 50.6575 27.37 50.6 27.4275 50.5425C27.4275 50.5425 27.485 50.485 27.485 50.37C27.5425 50.14 27.485 50.025 27.255 49.91C26.68 49.68 26.0475 49.6225 25.3 49.7375C24.5525 49.91 23.92 50.1975 23.2875 50.6C23.23 50.6575 23.115 50.7725 23.115 50.83C23.115 50.8875 23.115 51.06 23.1725 51.1175C23.4025 51.29 23.575 51.405 23.6325 51.405Z" fill="#000105"/>
<path d="M22.0225 54.5675C21.85 54.5675 21.735 54.74 21.735 54.855C21.735 54.97 21.7925 55.1425 21.965 55.2C22.0225 55.2 22.0225 55.2 22.1375 55.2C22.195 55.2 22.3675 55.1425 22.425 55.1425C22.4825 55.085 22.5975 54.855 22.4825 54.6825C22.31 54.625 22.195 54.5675 22.0225 54.5675Z" fill="#000105"/>
<path d="M22.195 53.36C22.0225 53.36 21.9075 53.5325 21.9075 53.6475C21.9075 53.82 21.965 53.935 22.1375 53.9925C22.195 53.9925 22.195 53.9925 22.31 53.9925C22.3675 53.9925 22.54 53.935 22.5975 53.935C22.655 53.8775 22.77 53.6475 22.655 53.475C22.4825 53.4175 22.31 53.36 22.195 53.36Z" fill="#000105"/>
<path d="M23.46 53.13C23.2875 53.13 23.1725 53.3025 23.1725 53.4175C23.1725 53.59 23.23 53.7625 23.4025 53.7625C23.46 53.7625 23.46 53.7625 23.575 53.7625C23.6325 53.7625 23.805 53.705 23.8625 53.705C23.92 53.6475 24.035 53.4175 23.92 53.245C23.7475 53.1875 23.6325 53.13 23.46 53.13Z" fill="#000105"/>
<path d="M32.2 53.705L31.74 53.245C31.74 52.9575 31.6825 52.7275 31.4525 52.4975C31.395 52.44 31.2225 52.2675 31.1075 52.2675C31.05 51.98 30.935 51.75 30.7625 51.635C30.4175 51.29 29.9575 51.175 29.555 51.3475L29.2675 51.175C29.2675 51.1175 29.2675 51.1175 29.325 51.0025C29.3825 50.6575 29.325 50.37 29.0375 50.14C28.865 49.9675 28.75 49.91 28.5775 49.8525C28.52 49.68 28.405 49.6225 28.29 49.565C27.485 48.99 26.3925 48.8175 25.2425 49.0475C24.0925 49.2775 23 49.8525 22.1375 50.7725C21.275 51.635 20.6425 52.785 20.4125 53.8775C20.1825 55.0275 20.4125 56.12 20.93 56.925C20.9875 57.0975 21.16 57.155 21.39 57.2125C21.4475 57.385 21.5625 57.4425 21.62 57.5575C21.85 57.7875 22.195 57.9025 22.4825 57.845L22.77 58.1325C22.5975 58.5925 22.7125 59.0525 23.0575 59.34C23.2875 59.57 23.575 59.685 23.8625 59.685C23.92 59.7425 24.035 59.915 24.0925 59.9725C24.265 60.145 24.4375 60.26 24.6675 60.26L25.185 60.7775C25.4725 61.065 25.9325 61.2375 26.335 61.2375C26.795 61.2375 27.14 61.065 27.485 60.7775L32.2575 56.005C32.545 55.7175 32.7175 55.2575 32.7175 54.855C32.66 54.3375 32.4875 53.9925 32.2 53.705ZM26.3925 56.695L25.8175 57.27V56.695H26.3925ZM27.8875 50.14L27.945 50.1975V50.255L21.735 56.5225H21.6775C21.6775 56.5225 21.62 56.5225 21.62 56.465C21.16 55.8325 21.045 54.855 21.16 53.935C21.39 52.9 21.9075 51.98 22.655 51.175C23.46 50.37 24.38 49.8525 25.415 49.68C26.3925 49.5075 27.255 49.6225 27.8875 50.14ZM27.5425 54.1075V55.7175V56.005H25.645L27.5425 54.1075ZM25.07 56.695V57.04H24.61L24.955 56.695H25.07ZM28.3475 52.2675C28.3475 52.095 28.405 51.98 28.52 51.9225C28.5775 51.865 28.5775 51.865 28.6925 51.75C28.75 51.75 28.75 51.6925 28.865 51.6925L28.9225 51.75L28.3475 52.325V52.2675ZM26.5075 53.935C26.565 53.7625 26.68 53.705 26.7375 53.59C26.91 53.4175 26.9675 53.4175 27.0825 53.4175C27.0825 53.4175 27.14 53.4175 27.255 53.4175L26.5075 54.165C26.565 54.05 26.565 53.9925 26.5075 53.935ZM24.7825 55.66C24.84 55.4875 24.955 55.43 25.0125 55.315C25.185 55.1425 25.2425 55.1425 25.3575 55.1425C25.415 55.1425 25.415 55.1425 25.53 55.1425L24.7825 55.89C24.84 55.7175 24.84 55.7175 24.7825 55.66ZM28.635 50.7725C28.635 50.83 28.5775 51.0025 28.4625 51.0025H28.405C28.3475 51.0025 28.3475 51.06 28.2325 51.06C28.175 51.175 28.1175 51.175 28.06 51.2325C27.7725 51.52 27.715 51.8075 27.715 52.0375C27.715 52.21 27.6575 52.325 27.5425 52.3825C27.37 52.555 27.3125 52.555 27.1975 52.555C26.9675 52.555 26.68 52.6125 26.3925 52.9C26.105 53.1875 26.0475 53.475 26.0475 53.705C26.0475 53.8775 25.99 53.9925 25.875 54.05C25.7025 54.2225 25.645 54.2225 25.53 54.2225C25.3 54.2225 25.0125 54.28 24.725 54.5675C24.4375 54.855 24.38 55.1425 24.38 55.3725C24.38 55.545 24.3225 55.66 24.2075 55.7175C24.035 55.89 23.9775 55.89 23.8625 55.89C23.6325 55.89 23.345 55.9475 23.0575 56.235C22.885 56.4075 22.8275 56.465 22.77 56.58C22.7125 56.6375 22.5975 56.7525 22.54 56.81C22.4825 56.81 22.3675 56.81 22.3675 56.81L22.425 56.7525L28.635 50.5425C28.6925 50.485 28.6925 50.485 28.8075 50.37C28.635 50.6575 28.635 50.715 28.635 50.7725ZM23.2875 57.155C23.2875 57.0975 23.345 56.9825 23.46 56.925C23.6325 56.8675 23.69 56.8675 23.805 56.7525C23.8625 56.7525 23.8625 56.7525 23.9775 56.7525L23.345 57.385L23.2875 57.3275C23.115 57.3275 23.1725 57.27 23.2875 57.155ZM24.7825 59.34L27.485 56.6375H28.0025C28.2325 56.6375 28.3475 56.465 28.3475 56.2925V55.775L30.8775 53.245C30.935 53.1875 31.05 53.0725 31.1075 52.9575C31.165 53.015 31.165 53.1875 31.1075 53.3025C31.05 53.36 31.05 53.475 30.935 53.475C30.7625 53.5325 30.6475 53.6475 30.59 53.7625C30.3025 54.05 30.245 54.3375 30.245 54.5675C30.245 54.74 30.1875 54.855 30.0725 54.9125C29.9 55.085 29.8425 55.085 29.7275 55.085C29.4975 55.085 29.21 55.1425 28.9225 55.43C28.635 55.7175 28.5775 56.005 28.5775 56.235C28.5775 56.4075 28.52 56.5225 28.405 56.58C28.2325 56.7525 28.175 56.7525 28.06 56.7525C27.83 56.7525 27.5425 56.81 27.255 57.0975C26.7375 57.5575 26.68 57.845 26.68 58.0175C26.68 58.19 26.6225 58.305 26.5075 58.3625C26.2775 58.535 26.22 58.535 26.0475 58.535C25.8175 58.535 25.53 58.5925 25.2425 58.88C25.07 59.0525 25.0125 59.11 24.955 59.225C24.8975 59.2825 24.7825 59.3975 24.725 59.455C24.6675 59.455 24.5525 59.455 24.495 59.3975C24.61 59.3975 24.725 59.3975 24.7825 59.34ZM25.645 59.685C25.645 59.6275 25.645 59.6275 25.645 59.685C25.7025 59.5125 25.7025 59.5125 25.8175 59.455C25.99 59.2825 26.0475 59.2825 26.1625 59.2825C26.3925 59.2825 26.68 59.225 26.9675 58.9375C27.255 58.65 27.3125 58.3625 27.3125 58.1325C27.3125 57.96 27.37 57.845 27.485 57.7875C27.6575 57.615 27.715 57.615 27.83 57.615C28.06 57.615 28.3475 57.5575 28.635 57.27C28.9225 56.9825 28.98 56.695 28.98 56.465C28.98 56.2925 29.0375 56.1775 29.1525 56.12C29.325 55.9475 29.3825 55.9475 29.4975 55.9475C29.7275 55.9475 30.015 55.89 30.3025 55.6025C30.59 55.315 30.6475 55.0275 30.6475 54.7975C30.6475 54.625 30.705 54.51 30.82 54.4525C31.05 54.2225 31.05 54.165 31.1075 54.165H31.165C31.165 54.165 31.2225 54.165 31.2225 54.1075C31.28 54.05 31.395 54.05 31.4525 53.935L31.6825 54.165C32.0275 54.51 32.0275 55.085 31.6825 55.3725L26.91 60.145C26.565 60.49 25.99 60.49 25.7025 60.145L25.415 59.915C25.53 59.915 25.5875 59.8 25.645 59.685ZM30.4175 52.555C30.4175 52.6125 30.36 52.785 30.245 52.8425L28.2325 54.855V53.4175L29.555 52.095C29.6125 52.0375 29.785 51.9225 29.9 51.9225C30.0725 51.9225 30.13 51.98 30.245 52.095C30.36 52.2675 30.4175 52.3825 30.4175 52.555ZM23.575 58.1325L23.92 57.7875H25.3575L24.265 58.88C24.2075 58.9375 24.0925 58.9375 24.035 59.0525C23.8625 59.11 23.69 59.0525 23.575 58.88C23.345 58.65 23.345 58.3625 23.575 58.1325Z" fill="#000105"/>
<path d="M23.4025 52.9C23.46 52.9 23.6325 52.8425 23.69 52.8425C23.7475 52.785 23.8625 52.555 23.7475 52.3825C23.69 52.21 23.5175 52.1525 23.4025 52.1525C23.2875 52.1525 23.115 52.325 23.115 52.44C23.115 52.6125 23.1725 52.785 23.345 52.785C23.2875 52.9 23.345 52.9 23.4025 52.9Z" fill="#000105"/>
<path d="M24.61 52.1525C24.4375 52.1525 24.3225 52.325 24.3225 52.44C24.3225 52.6125 24.38 52.785 24.5525 52.785C24.61 52.785 24.61 52.785 24.725 52.785C24.84 52.785 24.955 52.7275 25.0125 52.7275C25.07 52.67 25.185 52.44 25.07 52.2675C24.955 52.2675 24.7825 52.1525 24.61 52.1525Z" fill="#000105"/>
<path d="M22.54 51.75C22.5975 51.9225 22.77 51.98 22.885 51.98H22.9425C23 51.98 23.115 51.9225 23.115 51.9225C23.1725 51.865 23.1725 51.75 23.1725 51.6925C23.1725 51.52 23.115 51.405 22.9425 51.3475C22.77 51.29 22.655 51.3475 22.4825 51.405C22.54 51.4625 22.4825 51.5775 22.54 51.75Z" fill="#000105"/>
<path d="M46.2875 38.3525L44.965 37.03C44.3325 36.3975 43.5275 36.1675 42.4925 36.225C41.6875 36.2825 40.7675 36.685 39.7325 37.26C37.7775 38.3525 36.0525 40.02 35.3625 40.6525C33.6375 42.3775 33.6375 45.195 35.3625 46.9775L36.685 48.3C37.5475 49.1625 38.64 49.6225 39.8475 49.6225C41.055 49.6225 42.1475 49.1625 43.01 48.3C43.815 47.495 44.16 46.6325 44.505 45.77C44.85 44.85 45.31 43.8725 46.1725 43.01C47.61 41.6875 47.61 39.6175 46.2875 38.3525ZM41.8025 46.9775C42.6075 46.1725 42.9525 45.31 43.2975 44.4475C43.6425 43.5275 44.1025 42.55 44.965 41.6875C45.0225 41.63 45.1375 41.515 45.195 41.4575C45.3675 41.285 45.2525 41.1125 45.1375 40.94C44.965 40.7675 44.7925 40.8825 44.62 40.9975C44.5625 41.055 44.5625 41.17 44.4475 41.17C43.4125 42.205 43.01 43.1825 42.55 44.2175C42.205 45.0225 41.9175 45.8275 41.17 46.5175C40.4225 47.265 39.5025 47.61 38.4675 47.61C37.4325 47.61 36.5125 47.265 35.765 46.5175C35.0175 45.77 34.6725 44.85 34.6725 43.815C34.6725 42.78 35.0175 41.86 35.765 41.1125C36.3975 40.48 38.065 38.87 39.9625 37.7775C41.9175 36.6275 43.355 36.57 44.3325 37.4325C44.85 37.95 45.1375 38.5825 45.08 39.33C45.08 39.3875 45.08 39.56 45.1375 39.6175C45.195 39.675 45.31 39.79 45.3675 39.79C45.5975 39.79 45.7125 39.6175 45.7125 39.445C45.7125 39.2725 45.7125 39.1575 45.7125 38.985C46.0575 39.445 46.2875 40.02 46.2875 40.6525C46.2875 41.285 46 41.975 45.54 42.4925C44.505 43.5275 44.1025 44.505 43.6425 45.54C43.2975 46.345 43.01 47.15 42.2625 47.84C40.94 49.1625 38.9275 49.2775 37.49 48.3C39.2725 48.4725 40.71 48.07 41.8025 46.9775Z" fill="#000105"/>
<path d="M45.4825 40.595C45.54 40.595 45.7125 40.5375 45.77 40.5375C45.8275 40.48 45.8275 40.48 45.8275 40.365C45.885 40.135 45.8275 40.02 45.5975 39.905C45.54 39.905 45.3675 39.905 45.31 39.905C45.2525 39.9625 45.1375 40.0775 45.08 40.135C45.08 40.1925 45.08 40.365 45.08 40.4225C45.1375 40.48 45.2525 40.595 45.31 40.595C45.3675 40.595 45.425 40.595 45.4825 40.595Z" fill="#000105"/>
<path d="M37.835 40.71C37.8925 40.71 38.0075 40.71 38.065 40.6525C38.2375 40.48 38.2375 40.3075 38.065 40.135C37.8925 39.9625 37.72 39.9625 37.5475 40.0775C37.375 40.25 37.375 40.4225 37.49 40.595C37.6625 40.71 37.7775 40.71 37.835 40.71Z" fill="#000105"/>
<path d="M43.6425 37.375C43.0675 37.145 42.32 37.3175 41.4 37.6625C40.6525 37.95 39.9625 38.41 39.5025 38.6975C39.215 38.9275 38.9275 39.0425 38.6975 39.2725C38.64 39.33 38.525 39.445 38.525 39.5025C38.525 39.56 38.525 39.7325 38.5825 39.79C38.64 39.8475 38.755 39.9625 38.8125 39.9625C38.87 39.9625 39.0425 39.9625 39.1 39.905C39.3875 39.675 39.6175 39.56 39.905 39.33C41.4 38.295 42.7225 37.8925 43.355 38.1225C43.5275 38.18 43.6425 38.295 43.7 38.3525C43.9875 38.64 44.16 38.985 44.16 39.445C44.16 39.905 43.9875 40.25 43.7 40.5375C43.0675 41.17 42.55 41.9175 42.09 42.7225C41.9175 43.0675 41.745 43.47 41.5725 43.815C41.515 44.045 41.3425 44.3325 41.285 44.5625C40.9975 45.1375 40.7675 45.5975 40.4225 45.885C39.33 46.9775 37.6625 46.9775 36.57 45.885C35.4775 44.7925 35.4775 43.125 36.57 42.0325C36.8 41.8025 37.03 41.5725 37.2025 41.4C37.26 41.4 37.26 41.3425 37.375 41.3425C37.4325 41.285 37.5475 41.17 37.5475 41.1125C37.5475 41.055 37.5475 40.8825 37.49 40.825C37.4325 40.7675 37.3175 40.6525 37.26 40.6525C37.2025 40.6525 37.03 40.6525 36.9725 40.71C36.915 40.71 36.915 40.7675 36.8 40.7675C36.57 40.9975 36.34 41.2275 36.1675 41.4C35.535 42.0325 35.1325 42.895 35.1325 43.815C35.1325 44.6775 35.4775 45.54 36.1675 46.23C36.8 46.8625 37.6625 47.265 38.5825 47.265C39.5025 47.265 40.3075 46.92 40.9975 46.23C41.4575 45.77 41.745 45.3675 42.0325 44.735C42.205 44.505 42.2625 44.2175 42.32 43.9875C42.4925 43.6425 42.6075 43.24 42.78 42.9525C43.125 42.1475 43.6425 41.515 44.2175 40.94C44.6775 40.48 44.85 40.02 44.85 39.33C44.85 38.755 44.62 38.18 44.2175 37.72C44.045 37.605 43.815 37.49 43.6425 37.375Z" fill="#000105"/>
<path d="M37.03 43.93C37.26 44.16 37.605 44.275 37.8925 44.275H37.95C38.295 44.275 38.6975 44.1025 38.985 43.815C39.56 43.24 39.56 42.3775 39.0425 41.86C38.525 41.4 37.6625 41.4 37.0875 41.975C36.57 42.55 36.5125 43.4125 37.03 43.93ZM37.6625 42.4925C37.835 42.32 38.0075 42.2625 38.2375 42.2625C38.41 42.2625 38.525 42.32 38.5825 42.435C38.8125 42.665 38.8125 43.0675 38.525 43.355C38.3525 43.5275 38.2375 43.585 38.0075 43.585C37.835 43.585 37.6625 43.5275 37.5475 43.4125C37.3175 43.1825 37.375 42.78 37.6625 42.4925Z" fill="#000105"/>
<path d="M75.785 76.015C75.8425 76.015 75.9575 76.015 76.015 75.9575C76.5325 75.6125 77.165 75.325 77.74 75.1525C78.315 75.095 78.8325 75.095 79.235 75.21C79.4075 75.2675 79.5225 75.21 79.58 75.1525C79.58 75.1525 79.6375 75.095 79.6375 74.98C79.695 74.75 79.6375 74.635 79.4075 74.52C78.8325 74.29 78.2 74.2325 77.4525 74.3475C76.705 74.52 76.0725 74.8075 75.44 75.21C75.3825 75.2675 75.2675 75.3825 75.2675 75.44C75.2675 75.4975 75.2675 75.67 75.325 75.7275C75.555 75.9575 75.7275 76.015 75.785 76.015Z" fill="#000105"/>
<path d="M74.175 79.1775C74.0025 79.1775 73.8875 79.35 73.8875 79.465C73.8875 79.6375 73.945 79.7525 74.1175 79.81C74.175 79.81 74.175 79.81 74.29 79.81C74.405 79.81 74.52 79.7525 74.5775 79.7525C74.635 79.695 74.75 79.465 74.635 79.2925C74.4625 79.2925 74.3475 79.1775 74.175 79.1775Z" fill="#000105"/>
<path d="M74.405 77.97C74.2325 77.97 74.1175 78.1425 74.1175 78.2575C74.1175 78.3725 74.175 78.545 74.3475 78.6025C74.405 78.6025 74.405 78.6025 74.52 78.6025C74.635 78.6025 74.75 78.545 74.8075 78.545C74.865 78.4875 74.98 78.2575 74.865 78.085C74.6925 78.0275 74.5775 77.97 74.405 77.97Z" fill="#000105"/>
<path d="M75.67 77.74C75.4975 77.74 75.3825 77.9125 75.3825 78.0275C75.3825 78.1425 75.44 78.3725 75.6125 78.3725C75.67 78.3725 75.67 78.3725 75.785 78.3725C75.9 78.3725 76.015 78.315 76.0725 78.315C76.13 78.2575 76.245 78.0275 76.13 77.855C76.015 77.7975 75.8425 77.74 75.67 77.74Z" fill="#000105"/>
<path d="M84.3525 78.315L83.8925 77.855C83.8925 77.5675 83.835 77.3375 83.605 77.1075C83.5475 77.05 83.375 76.8775 83.26 76.8775C83.2025 76.59 83.0875 76.36 82.915 76.245C82.57 75.9 82.11 75.785 81.7075 75.9575L81.4775 75.7275C81.4775 75.67 81.4775 75.67 81.535 75.555C81.5925 75.21 81.535 74.9225 81.2475 74.6925C81.075 74.52 80.96 74.4625 80.7875 74.405C80.73 74.2325 80.615 74.175 80.5 74.1175C79.695 73.5425 78.6025 73.37 77.4525 73.6C76.3025 73.83 75.21 74.405 74.3475 75.325C73.485 76.1875 72.8525 77.3375 72.6225 78.43C72.3925 79.58 72.6225 80.6725 73.14 81.4775C73.1975 81.65 73.37 81.7075 73.6 81.765C73.6575 81.9375 73.7725 81.995 73.83 82.11C74.06 82.34 74.405 82.455 74.6925 82.3975L74.98 82.685C74.8075 83.145 74.9225 83.605 75.2675 83.8925C75.4975 84.1225 75.785 84.2375 76.0725 84.2375C76.13 84.295 76.245 84.4675 76.3025 84.525C76.475 84.6975 76.6475 84.8125 76.8775 84.8125L77.395 85.33C77.6825 85.6175 78.1425 85.79 78.545 85.79C79.005 85.79 79.35 85.6175 79.695 85.33L84.4675 80.5575C84.755 80.27 84.9275 79.81 84.9275 79.4075C84.87 79.0625 84.6975 78.6025 84.3525 78.315ZM78.6025 81.305L78.0275 81.88V81.305H78.6025ZM80.04 74.8075L80.0975 74.865V74.9225L73.8875 81.1325H73.83C73.83 81.1325 73.7725 81.1325 73.7725 81.075C73.3125 80.4425 73.1975 79.465 73.3125 78.545C73.5425 77.51 74.06 76.59 74.8075 75.785C75.555 74.98 76.5325 74.4625 77.5675 74.29C78.545 74.1175 79.4075 74.29 80.04 74.8075ZM79.695 78.775V80.385V80.6725H77.7975L79.695 78.775ZM77.3375 81.305V81.65H76.8775L77.2225 81.305H77.3375ZM80.5 76.8775C80.5 76.705 80.5575 76.59 80.6725 76.5325C80.73 76.475 80.73 76.475 80.845 76.36C80.9025 76.36 80.9025 76.3025 81.0175 76.3025L81.075 76.36L80.5 76.935V76.8775ZM78.66 78.545C78.7175 78.3725 78.8325 78.315 78.89 78.2C79.0625 78.0275 79.12 78.0275 79.235 78.0275C79.235 78.0275 79.2925 78.0275 79.4075 78.0275L78.66 78.775C78.775 78.7175 78.775 78.6025 78.66 78.545ZM76.9925 80.27C77.05 80.0975 77.165 80.04 77.2225 79.925C77.395 79.7525 77.4525 79.7525 77.5675 79.7525C77.625 79.7525 77.625 79.7525 77.74 79.7525L76.9925 80.5C76.9925 80.385 77.1075 80.385 76.9925 80.27ZM80.7875 75.44C80.7875 75.4975 80.73 75.67 80.615 75.67H80.5575C80.5 75.67 80.5 75.7275 80.385 75.7275C80.3275 75.785 80.2125 75.785 80.155 75.9C79.8675 76.1875 79.81 76.475 79.81 76.705C79.81 76.8775 79.7525 76.9925 79.6375 77.05C79.465 77.2225 79.4075 77.2225 79.2925 77.2225C79.0625 77.2225 78.775 77.28 78.4875 77.5675C78.2 77.855 78.1425 78.1425 78.1425 78.3725C78.1425 78.545 78.085 78.66 77.97 78.7175C77.7975 78.89 77.74 78.89 77.625 78.89C77.395 78.89 77.1075 78.9475 76.82 79.235C76.5325 79.5225 76.475 79.81 76.475 80.04C76.475 80.2125 76.4175 80.3275 76.3025 80.385C76.13 80.5575 76.0725 80.5575 75.9575 80.5575C75.7275 80.5575 75.44 80.615 75.1525 80.9025C74.98 81.075 74.9225 81.1325 74.865 81.2475C74.8075 81.305 74.6925 81.42 74.635 81.4775C74.5775 81.4775 74.4625 81.4775 74.4625 81.4775L74.52 81.42L80.73 75.21C80.7875 75.1525 80.7875 75.1525 80.9025 75.0375C80.7875 75.3825 80.7875 75.44 80.7875 75.44ZM75.44 81.8225C75.44 81.765 75.4975 81.65 75.6125 81.5925C75.785 81.535 75.8425 81.535 75.9575 81.42C76.015 81.42 76.015 81.42 76.13 81.42L75.4975 82.0525L75.44 81.995C75.3825 81.9375 75.3825 81.88 75.44 81.8225ZM76.935 84.0075L79.6375 81.305H80.155C80.385 81.305 80.5 81.1325 80.5 80.96V80.4425L83.03 77.9125C83.0875 77.855 83.2025 77.74 83.26 77.625C83.3175 77.6825 83.3175 77.855 83.26 77.97C83.2025 78.0275 83.2025 78.1425 83.0875 78.1425C82.915 78.2 82.8 78.315 82.7425 78.43C82.455 78.7175 82.3975 79.005 82.3975 79.235C82.3975 79.4075 82.34 79.5225 82.225 79.58C82.0525 79.7525 81.995 79.7525 81.88 79.7525C81.65 79.7525 81.3625 79.81 81.075 80.0975C80.7875 80.385 80.73 80.6725 80.73 80.9025C80.73 81.075 80.6725 81.19 80.5575 81.2475C80.385 81.42 80.3275 81.42 80.2125 81.42C79.9825 81.42 79.695 81.4775 79.4075 81.765C79.12 82.0525 79.0625 82.34 79.0625 82.57C79.0625 82.7425 79.005 82.8575 78.89 82.915C78.7175 83.0875 78.66 83.0875 78.545 83.0875C78.315 83.0875 78.0275 83.145 77.74 83.4325C77.5675 83.605 77.51 83.6625 77.4525 83.7775C77.395 83.835 77.28 83.95 77.2225 84.0075C77.165 84.0075 77.05 84.0075 76.9925 83.95C76.82 84.1225 76.8775 84.065 76.935 84.0075ZM77.7975 84.3525C77.9125 84.295 77.9125 84.295 77.7975 84.3525C77.855 84.18 77.855 84.18 77.97 84.1225C78.1425 83.95 78.2 83.95 78.315 83.95C78.545 83.95 78.8325 83.8925 79.12 83.605C79.4075 83.3175 79.465 83.03 79.465 82.8C79.465 82.6275 79.5225 82.5125 79.6375 82.455C79.81 82.2825 79.8675 82.2825 79.9825 82.2825C80.2125 82.2825 80.5 82.225 80.7875 81.9375C81.075 81.65 81.1325 81.3625 81.1325 81.1325C81.1325 80.96 81.19 80.845 81.305 80.7875C81.4775 80.615 81.535 80.615 81.65 80.615C81.88 80.615 82.1675 80.5575 82.455 80.27C82.7425 79.9825 82.8 79.695 82.8 79.465C82.8 79.2925 82.8575 79.1775 82.9725 79.12C83.0875 79.0625 83.03 79.0625 83.145 79.0625H83.2025C83.2025 79.0625 83.26 79.0625 83.26 79.005C83.3175 78.9475 83.4325 78.9475 83.49 78.8325L83.72 79.0625C84.065 79.4075 84.065 79.9825 83.72 80.27L78.9475 85.0425C78.6025 85.3875 78.0275 85.3875 77.74 85.0425L77.51 84.8125C77.6825 84.5825 77.74 84.4675 77.7975 84.3525ZM82.6275 77.165C82.6275 77.2225 82.57 77.395 82.455 77.4525L80.4425 79.465V78.0275L81.765 76.705C81.8225 76.6475 81.995 76.5325 82.11 76.5325C82.2825 76.5325 82.34 76.59 82.455 76.705C82.6275 76.8775 82.6275 77.05 82.6275 77.165ZM75.7275 82.7425L76.0725 82.3975H77.51L76.4175 83.49C76.36 83.5475 76.245 83.5475 76.1875 83.6625C76.015 83.72 75.8425 83.6625 75.7275 83.49C75.4975 83.26 75.4975 82.9725 75.7275 82.7425Z" fill="#000105"/>
<path d="M75.555 77.51C75.6125 77.51 75.785 77.4525 75.8425 77.4525C75.9 77.395 76.015 77.165 75.9 76.9925C75.8425 76.82 75.67 76.7625 75.555 76.7625C75.3825 76.7625 75.2675 76.935 75.2675 77.05C75.2675 77.165 75.325 77.395 75.4975 77.395C75.4975 77.51 75.4975 77.51 75.555 77.51Z" fill="#000105"/>
<path d="M76.82 76.82C76.6475 76.82 76.5325 76.9925 76.5325 77.1075C76.5325 77.2225 76.59 77.4525 76.7625 77.4525C76.82 77.4525 76.82 77.4525 76.935 77.4525C76.9925 77.4525 77.165 77.395 77.2225 77.395C77.28 77.3375 77.395 77.1075 77.28 76.935C77.1075 76.8775 76.935 76.82 76.82 76.82Z" fill="#000105"/>
<path d="M74.6925 76.36C74.75 76.5325 74.9225 76.59 75.0375 76.59H75.095C75.1525 76.59 75.2675 76.5325 75.2675 76.5325C75.325 76.475 75.325 76.36 75.325 76.3025C75.325 76.13 75.2675 76.015 75.095 75.9575C74.9225 75.9 74.8075 75.9575 74.635 76.015C74.6925 76.0725 74.6925 76.245 74.6925 76.36Z" fill="#000105"/>
<path d="M57.6725 49.91C57.5 49.7375 57.3275 49.68 57.0975 49.68C55.6025 49.7375 54.05 50.1975 52.67 50.83C51.29 51.5775 50.14 52.555 49.22 53.82C49.0475 53.9925 49.0475 54.165 49.0475 54.395C49.0475 54.625 49.22 54.74 49.335 54.9125L50.6 55.775V56.12C50.6 56.35 50.7725 56.465 50.945 56.465C51.1175 56.465 51.29 56.2925 51.29 56.12V55.6025C51.29 55.43 51.2325 55.3725 51.1175 55.315L50.83 55.085C51.0025 54.855 51.1175 54.74 51.3475 54.51C51.5775 54.28 51.8075 54.05 51.98 53.8775C52.1525 53.705 52.44 53.5325 52.7275 53.3025C52.9575 53.13 53.245 52.9575 53.5325 52.785C53.7625 52.6125 54.05 52.4975 54.3375 52.44C54.3375 52.4975 54.395 52.67 54.395 52.7275C54.5675 53.015 54.74 53.3025 55.0275 53.36C55.315 53.5325 55.66 53.5325 55.9475 53.36C56.235 53.1875 56.5225 53.015 56.58 52.7275C56.7525 52.44 56.7525 52.1525 56.58 51.865C56.7525 51.865 56.8675 51.865 57.0975 51.865V56.695C56.7525 56.8675 56.5225 57.155 56.35 57.5C56.1775 57.96 56.35 58.3625 56.6375 58.7075C56.81 58.88 56.925 58.9375 57.0975 58.995V59.455L56.35 58.9375C56.2925 58.88 56.12 58.88 56.005 58.9375C55.8325 58.995 55.775 59.11 55.775 59.225V59.7425C55.775 59.7425 55.775 59.8 55.7175 59.8C55.66 59.8 55.66 59.8 55.66 59.7425V58.7075C55.9475 58.3625 56.005 57.845 55.8325 57.385C55.66 57.0975 55.4875 56.81 55.2 56.7525C54.9125 56.58 54.5675 56.58 54.28 56.7525C54.05 56.81 53.935 56.9825 53.7625 57.2125L53.59 57.155C53.5325 57.0975 53.36 57.0975 53.245 57.155C53.0725 57.2125 53.015 57.3275 53.015 57.4425V58.2475C53.015 58.2475 53.015 58.305 52.9575 58.305C52.9575 58.305 52.9 58.305 52.9 58.2475V56.925C52.9 56.7525 52.8425 56.695 52.7275 56.6375L51.8075 56.005C51.75 55.9475 51.5775 55.9475 51.4625 56.005C51.29 56.0625 51.2325 56.1775 51.2325 56.2925V59.0525C51.2325 59.0525 51.2325 59.11 51.175 59.11C51.175 59.11 51.1175 59.11 51.1175 59.0525V57.96C51.1175 57.73 50.945 57.615 50.7725 57.615C50.6 57.615 50.4275 57.7875 50.4275 57.96V59.0525C50.4275 59.5125 50.7725 59.8 51.175 59.8C51.635 59.8 51.9225 59.455 51.9225 59.0525V56.925L52.1525 57.0975V58.2475C52.1525 58.7075 52.4975 58.995 52.9 58.995C53.245 58.995 53.6475 58.65 53.6475 58.2475V58.075L54.97 58.9375V59.7425C54.97 60.2025 55.315 60.49 55.7175 60.49C56.12 60.49 56.35 60.26 56.465 59.915L57.2125 60.4325C57.27 60.49 57.385 60.49 57.4425 60.49C57.5 60.49 57.615 60.49 57.615 60.4325C57.7875 60.375 57.845 60.26 57.845 60.145V50.4275C57.9025 50.1975 57.845 50.0825 57.6725 49.91ZM57.155 57.615V58.075C57.0975 57.9025 57.0975 57.73 57.155 57.615ZM50.3125 54.6825L49.795 54.3375C49.795 54.3375 49.795 54.3375 49.795 54.28C49.795 54.28 49.795 54.28 49.795 54.2225C50.6575 53.0725 51.75 52.095 53.0725 51.4625C54.28 50.83 55.775 50.37 57.2125 50.37C57.2125 50.37 57.2125 50.37 57.27 50.37C57.27 50.37 57.27 50.37 57.27 50.4275V51.06C56.9825 51.06 56.695 51.06 56.4075 51.1175C56.35 51.1175 56.1775 51.1175 56.12 51.175C55.6025 51.2325 55.085 51.405 54.6825 51.52C54.395 51.6925 54.05 51.75 53.6475 51.98C53.36 52.1525 53.015 52.325 52.7275 52.4975C52.44 52.7275 52.1525 52.9575 51.865 53.13C51.5775 53.3025 51.3475 53.59 51.06 53.8775C50.7725 54.1075 50.485 54.395 50.3125 54.6825ZM54.97 52.1525C55.2575 52.095 55.545 51.98 55.8325 51.9225C55.89 51.9225 56.005 51.9225 56.005 51.9225L56.0625 51.98C56.12 52.1525 56.12 52.2675 56.0625 52.44C56.005 52.6125 55.89 52.67 55.775 52.7275C55.6025 52.785 55.4875 52.785 55.315 52.7275C55.1425 52.67 55.085 52.555 55.0275 52.44C54.97 52.3825 54.97 52.2675 54.97 52.1525ZM55.3725 58.1325L54.4525 57.5C54.51 57.4425 54.625 57.3275 54.6825 57.3275C54.97 57.155 55.2575 57.3275 55.43 57.615C55.43 57.845 55.43 57.96 55.3725 58.1325Z" fill="#000105"/>
<path d="M52.555 56.005C52.7275 56.0625 52.8425 56.0625 53.015 56.0625C53.1875 56.0625 53.36 56.0625 53.5325 56.005C53.82 55.8325 54.1075 55.66 54.165 55.3725C54.3375 55.085 54.3375 54.74 54.165 54.4525C53.9925 54.165 53.82 53.8775 53.5325 53.82C53.245 53.6475 52.9 53.6475 52.6125 53.82C52.325 53.9925 52.0375 54.165 51.98 54.4525C51.8075 54.74 51.8075 55.085 51.98 55.3725C51.98 55.66 52.2675 55.89 52.555 56.005ZM53.1875 54.3375C53.36 54.395 53.4175 54.51 53.475 54.625C53.5325 54.7975 53.5325 54.9125 53.475 55.085C53.4175 55.2575 53.3025 55.315 53.1875 55.3725C53.015 55.43 52.9 55.43 52.7275 55.3725C52.555 55.315 52.4975 55.2 52.44 55.085C52.3825 54.9125 52.3825 54.7975 52.44 54.625C52.4975 54.4525 52.6125 54.395 52.7275 54.3375C52.785 54.3375 52.9 54.28 52.9575 54.28C53.015 54.28 53.13 54.28 53.1875 54.3375Z" fill="#000105"/>
<path d="M55.43 56.35C55.6025 56.4075 55.7175 56.4075 55.89 56.4075C56.0625 56.4075 56.235 56.4075 56.4075 56.35C56.695 56.1775 56.9825 56.005 57.04 55.7175C57.2125 55.43 57.2125 55.085 57.04 54.7975C56.8675 54.51 56.695 54.2225 56.4075 54.165C56.12 53.9925 55.775 53.9925 55.4875 54.165C55.2 54.3375 54.9125 54.51 54.855 54.7975C54.6825 55.085 54.6825 55.43 54.855 55.7175C54.855 56.005 55.085 56.2925 55.43 56.35ZM55.3725 55.085C55.43 54.9125 55.545 54.855 55.66 54.7975C55.7175 54.7975 55.8325 54.74 55.89 54.74C55.9475 54.74 56.0625 54.74 56.12 54.7975C56.2925 54.855 56.35 54.97 56.4075 55.085C56.465 55.2575 56.465 55.3725 56.4075 55.545C56.35 55.7175 56.235 55.775 56.12 55.8325C55.9475 55.89 55.8325 55.89 55.66 55.8325C55.4875 55.775 55.43 55.66 55.3725 55.545C55.2575 55.3725 55.2575 55.1425 55.3725 55.085Z" fill="#000105"/>
<path d="M51.0025 57.3275C51.175 57.3275 51.29 57.27 51.3475 57.0975C51.405 56.925 51.3475 56.81 51.175 56.7525C51.0025 56.695 50.8875 56.695 50.83 56.7525C50.6575 56.81 50.6 56.9825 50.6575 57.0975C50.6575 57.155 50.7725 57.3275 51.0025 57.3275Z" fill="#000105"/>
<path d="M71.875 40.3075L68.0225 36.455C67.85 36.2825 67.735 36.2825 67.5625 36.3975L65.1475 38.0075C65.09 38.065 64.975 38.18 64.975 38.2375C64.975 38.295 64.975 38.41 65.0325 38.4675C65.09 38.525 65.205 38.64 65.2625 38.64C65.32 38.64 65.435 38.64 65.4925 38.5825L66.585 37.835L63.02 43.6425C62.675 43.6425 62.445 43.585 62.1575 43.47C61.87 43.355 61.64 43.24 61.41 43.01C61.2375 42.8375 61.18 42.665 61.1225 42.435C61.1225 42.205 61.1225 42.09 61.1225 41.86C61.1225 41.6875 61.18 41.5725 61.18 41.4L61.41 41.2275C61.4675 41.285 61.5825 41.4 61.64 41.4575C61.87 41.6875 62.1575 41.8025 62.5025 41.8025C62.79 41.8025 63.135 41.63 63.365 41.4575C63.825 40.9975 63.8825 40.3075 63.4225 39.8475L64.055 39.3875C64.2275 39.33 64.285 39.1 64.1125 38.9275C64.055 38.755 63.825 38.6975 63.6525 38.87L62.79 39.445C62.6175 39.3875 62.5025 39.3875 62.2725 39.3875C62.2725 39.0425 62.445 38.8125 62.7325 38.525C62.79 38.4675 62.905 38.3525 62.905 38.295C62.905 38.2375 62.905 38.1225 62.8475 38.065C62.79 38.0075 62.675 37.8925 62.6175 37.8925C62.56 37.8925 62.445 37.8925 62.3875 37.95C61.755 38.4675 61.64 39.1 61.755 39.6175C61.4675 39.8475 61.295 40.135 61.295 40.48L60.7775 40.825C60.72 40.8825 60.72 40.8825 60.605 40.9975C60.605 41.055 60.0875 42.32 60.7775 43.24C60.835 43.2975 60.95 43.47 61.0075 43.5275L64.86 47.38C65.32 47.84 66.01 48.0125 66.9875 48.0125C67.045 48.0125 67.16 48.0125 67.2175 47.955C67.2175 47.955 67.2175 47.8975 67.275 47.8975L71.76 40.6525C72.0475 40.595 72.0475 40.4225 71.875 40.3075ZM71.2425 40.595L67.1025 47.265L66.5275 46.7475L70.6675 40.0775L71.2425 40.595ZM66.24 47.38C65.9525 47.3225 65.665 47.15 65.4925 47.035L62.7325 44.275C62.905 44.275 62.9625 44.275 63.0775 44.275L66.24 47.38ZM66.01 46.1725L70.15 39.5025L70.2075 39.56L66.01 46.1725ZM65.3775 45.4825L69.5175 38.8125L69.7475 39.0425L65.55 45.7125L65.3775 45.4825ZM65.7225 42.205C65.665 42.2625 65.665 42.3775 65.665 42.4925C65.665 42.55 65.7225 42.665 65.8375 42.7225C66.01 42.78 66.1825 42.78 66.2975 42.55L69 38.295L69.0575 38.3525L64.9175 45.0225L64.86 44.965L65.4925 43.93C65.55 43.7575 65.55 43.585 65.32 43.47C65.2625 43.4125 65.1475 43.4125 65.0325 43.4125C64.975 43.4125 64.86 43.47 64.8025 43.585L64.285 44.4475L63.71 43.8725L67.85 37.2025L68.425 37.7775L65.7225 42.205ZM62.675 40.6525C62.8475 40.48 62.905 40.3075 62.7325 40.1925C62.7325 40.1925 62.7325 40.1925 62.7325 40.135C62.905 40.135 62.9625 40.1925 63.02 40.3075C63.0775 40.4225 63.1925 40.5375 63.1925 40.6525C63.1925 40.7675 63.135 40.94 63.02 40.9975C62.79 41.2275 62.445 41.2275 62.215 40.9975C62.0425 40.825 61.985 40.6525 62.0425 40.4225V40.48C62.33 40.71 62.445 40.71 62.675 40.6525Z" fill="#000105"/>
<path d="M65.3775 42.8375C65.32 42.895 65.205 43.125 65.32 43.1825C65.3775 43.355 65.4925 43.4125 65.6075 43.4125H65.665C65.7225 43.4125 65.8375 43.355 65.8375 43.355C65.895 43.2975 65.895 43.1825 65.895 43.125C65.895 42.9525 65.8375 42.8375 65.7225 42.78C65.55 42.665 65.435 42.78 65.3775 42.8375Z" fill="#000105"/>
<path d="M64.63 39.0425C64.6875 39.0425 64.6875 39.0425 64.8025 39.0425C64.9175 39.0425 64.975 39.0425 65.0325 38.985C65.09 38.9275 65.205 38.6975 65.09 38.64C65.0325 38.4675 64.86 38.41 64.745 38.4675C64.5725 38.4675 64.4575 38.64 64.4575 38.755C64.4 38.87 64.4575 38.985 64.63 39.0425Z" fill="#000105"/>
<path d="M23.9775 76.36C24.035 76.36 24.15 76.36 24.2075 76.3025C24.725 75.9575 25.3575 75.67 25.9325 75.4975C26.5075 75.44 27.025 75.44 27.4275 75.555C27.6 75.6125 27.715 75.555 27.7725 75.4975C27.7725 75.4975 27.83 75.44 27.83 75.325C27.8875 75.095 27.83 74.98 27.6 74.865C27.025 74.635 26.3925 74.5775 25.645 74.6925C24.8975 74.865 24.265 75.1525 23.6325 75.555C23.575 75.6125 23.46 75.7275 23.46 75.785C23.46 75.8425 23.46 76.015 23.5175 76.0725C23.7475 76.3025 23.92 76.36 23.9775 76.36Z" fill="#000105"/>
<path d="M22.3675 79.58C22.195 79.58 22.08 79.7525 22.08 79.8675C22.08 79.9825 22.1375 80.155 22.31 80.2125C22.3675 80.2125 22.3675 80.2125 22.4825 80.2125C22.5975 80.2125 22.7125 80.155 22.77 80.155C22.8275 80.0975 22.9425 79.8675 22.8275 79.695C22.655 79.6375 22.54 79.58 22.3675 79.58Z" fill="#000105"/>
<path d="M22.5975 78.315C22.425 78.315 22.31 78.4875 22.31 78.6025C22.31 78.7175 22.3675 78.89 22.54 78.9475C22.5975 78.9475 22.5975 78.9475 22.7125 78.9475C22.77 78.9475 22.9425 78.89 23 78.89C23.0575 78.8325 23.1725 78.6025 23.0575 78.43C22.885 78.43 22.77 78.315 22.5975 78.315Z" fill="#000105"/>
<path d="M23.92 78.085C23.7475 78.085 23.6325 78.2575 23.6325 78.3725C23.6325 78.4875 23.69 78.7175 23.8625 78.7175C23.92 78.7175 23.92 78.7175 24.035 78.7175C24.0925 78.7175 24.265 78.66 24.3225 78.66C24.38 78.6025 24.495 78.3725 24.38 78.2C24.2075 78.2 24.035 78.085 23.92 78.085Z" fill="#000105"/>
<path d="M32.545 78.7175L32.085 78.2575C32.085 77.97 32.0275 77.74 31.7975 77.51C31.74 77.4525 31.5675 77.28 31.4525 77.28C31.395 76.9925 31.28 76.7625 31.1075 76.6475C30.7625 76.3025 30.3025 76.1875 29.9 76.36L29.67 76.13C29.67 76.0725 29.67 76.0725 29.7275 75.9575C29.785 75.6125 29.7275 75.325 29.44 75.095C29.2675 74.9225 29.1525 74.865 28.98 74.8075C28.9225 74.635 28.8075 74.5775 28.6925 74.52C27.8875 73.945 26.795 73.7725 25.645 74.0025C24.495 74.2325 23.4025 74.8075 22.54 75.7275C21.6775 76.59 21.045 77.74 20.815 78.8325C20.585 79.9825 20.815 81.075 21.3325 81.88C21.39 82.0525 21.5625 82.11 21.7925 82.1675C21.85 82.34 21.965 82.3975 22.0225 82.5125C22.2525 82.7425 22.5975 82.8575 22.885 82.8L23.1725 83.0875C23 83.5475 23.115 84.0075 23.46 84.295C23.69 84.525 23.9775 84.64 24.265 84.64C24.3225 84.6975 24.4375 84.87 24.495 84.9275C24.6675 85.1 24.84 85.215 25.07 85.215L25.5875 85.7325C25.875 86.02 26.335 86.1925 26.7375 86.1925C27.14 86.1925 27.5425 86.02 27.8875 85.7325L32.66 80.96C32.9475 80.6725 33.12 80.2125 33.12 79.81C33.0625 79.4075 32.89 79.005 32.545 78.7175ZM26.795 81.765L26.22 82.34V81.765H26.795ZM28.3475 75.1525L28.405 75.21V75.2675L22.195 81.4775H22.1375C22.1375 81.4775 22.08 81.4775 22.08 81.42C21.62 80.7875 21.505 79.81 21.62 78.89C21.85 77.855 22.3675 76.935 23.115 76.13C23.92 75.325 24.84 74.8075 25.875 74.635C26.7375 74.4625 27.6 74.635 28.3475 75.1525ZM27.8875 79.12V80.73V81.0175H25.99L27.8875 79.12ZM25.53 81.765V82.11H25.07L25.415 81.765H25.53ZM28.6925 77.2225C28.6925 77.05 28.75 76.935 28.865 76.8775C28.9225 76.82 28.9225 76.82 29.0375 76.705C29.095 76.705 29.095 76.6475 29.21 76.6475L29.2675 76.705L28.6925 77.28C28.6925 77.3375 28.6925 77.2225 28.6925 77.2225ZM26.9675 79.005C27.025 78.8325 27.14 78.775 27.1975 78.66C27.37 78.4875 27.4275 78.4875 27.5425 78.4875C27.5425 78.4875 27.6 78.4875 27.715 78.4875L26.9675 79.235C26.9675 79.0625 26.9675 79.005 26.9675 79.005ZM25.2425 80.6725C25.3 80.5 25.415 80.4425 25.4725 80.3275C25.645 80.155 25.7025 80.155 25.8175 80.155C25.875 80.155 25.875 80.155 25.99 80.155L25.2425 80.9025C25.3 80.7875 25.3 80.73 25.2425 80.6725ZM28.98 75.8425C28.98 75.9 28.9225 76.0725 28.8075 76.0725H28.75C28.6925 76.0725 28.6925 76.13 28.5775 76.13C28.52 76.1875 28.405 76.1875 28.3475 76.3025C28.06 76.59 28.0025 76.8775 28.0025 77.1075C28.0025 77.28 27.945 77.395 27.83 77.4525C27.6575 77.625 27.6 77.625 27.485 77.625C27.255 77.625 26.9675 77.6825 26.68 77.97C26.3925 78.2575 26.335 78.545 26.335 78.775C26.335 78.9475 26.2775 79.0625 26.1625 79.12C25.99 79.2925 25.9325 79.2925 25.8175 79.2925C25.5875 79.2925 25.3 79.35 25.0125 79.6375C24.725 79.925 24.6675 80.2125 24.6675 80.4425C24.6675 80.615 24.61 80.73 24.495 80.7875C24.3225 80.96 24.265 80.96 24.15 80.96C23.92 80.96 23.6325 81.0175 23.345 81.305C23.1725 81.4775 23.115 81.535 23.0575 81.65C23 81.7075 22.885 81.8225 22.8275 81.88C22.77 81.88 22.655 81.88 22.655 81.88L22.7125 81.8225L28.9225 75.6125C28.98 75.555 28.98 75.555 29.095 75.44C28.98 75.7275 28.98 75.785 28.98 75.8425ZM23.6325 82.1675C23.6325 82.11 23.69 81.995 23.805 81.9375C23.9775 81.88 24.035 81.88 24.15 81.765C24.2075 81.765 24.2075 81.765 24.3225 81.765L23.69 82.3975L23.6325 82.34C23.575 82.34 23.575 82.225 23.6325 82.1675ZM25.1275 84.3525L27.83 81.65H28.3475C28.5775 81.65 28.6925 81.4775 28.6925 81.305V80.7875L31.2225 78.2575C31.28 78.2 31.395 78.085 31.4525 77.97C31.51 78.0275 31.51 78.2 31.4525 78.315C31.395 78.3725 31.395 78.4875 31.28 78.4875C31.1075 78.545 30.9925 78.66 30.935 78.775C30.6475 79.0625 30.59 79.35 30.59 79.58C30.59 79.7525 30.5325 79.8675 30.4175 79.925C30.245 80.0975 30.1875 80.0975 30.0725 80.0975C29.8425 80.0975 29.555 80.155 29.2675 80.4425C28.98 80.73 28.9225 81.0175 28.9225 81.2475C28.9225 81.42 28.865 81.535 28.75 81.5925C28.5775 81.765 28.52 81.765 28.405 81.765C28.175 81.765 27.8875 81.8225 27.6 82.11C27.3125 82.3975 27.255 82.685 27.255 82.915C27.255 83.0875 27.1975 83.2025 27.0825 83.26C26.91 83.4325 26.8525 83.4325 26.7375 83.4325C26.5075 83.4325 26.22 83.49 25.9325 83.7775C25.76 83.95 25.7025 84.0075 25.645 84.1225C25.5875 84.18 25.4725 84.295 25.415 84.3525C25.3575 84.3525 25.2425 84.3525 25.185 84.295C25.0125 84.4675 25.07 84.41 25.1275 84.3525ZM25.99 84.6975C26.105 84.64 26.105 84.64 25.99 84.6975C26.0475 84.525 26.0475 84.525 26.1625 84.4675C26.335 84.295 26.3925 84.295 26.5075 84.295C26.7375 84.295 27.025 84.2375 27.3125 83.95C27.6 83.6625 27.6575 83.375 27.6575 83.145C27.6575 82.9725 27.715 82.8575 27.83 82.8C28.0025 82.6275 28.06 82.6275 28.175 82.6275C28.405 82.6275 28.6925 82.57 28.98 82.2825C29.2675 81.995 29.325 81.7075 29.325 81.4775C29.325 81.305 29.3825 81.19 29.4975 81.1325C29.67 80.96 29.7275 80.96 29.8425 80.96C30.0725 80.96 30.36 80.9025 30.6475 80.615C30.935 80.3275 30.9925 80.04 30.9925 79.81C30.9925 79.6375 31.05 79.5225 31.165 79.465C31.2225 79.4075 31.2225 79.4075 31.3375 79.4075H31.395C31.395 79.4075 31.4525 79.4075 31.4525 79.35C31.51 79.2925 31.625 79.2925 31.6825 79.1775L31.9125 79.4075C32.2575 79.7525 32.2575 80.3275 31.9125 80.615L27.14 85.3875C26.795 85.7325 26.22 85.7325 25.9325 85.3875L25.7025 85.1575C25.875 84.9275 25.99 84.87 25.99 84.6975ZM30.82 77.51C30.82 77.5675 30.7625 77.74 30.6475 77.7975L28.635 79.81V78.3725L29.9575 77.05C30.015 76.9925 30.1875 76.8775 30.3025 76.8775C30.475 76.8775 30.5325 76.935 30.6475 77.05C30.82 77.2225 30.82 77.395 30.82 77.51ZM23.92 83.0875L24.265 82.7425H25.7025L24.61 83.835C24.5525 83.8925 24.4375 83.8925 24.38 84.0075C24.2075 84.065 24.035 84.0075 23.92 83.835C23.7475 83.605 23.7475 83.3175 23.92 83.0875Z" fill="#000105"/>
<path d="M23.7475 77.9125C23.805 77.9125 23.9775 77.855 24.035 77.855C24.0925 77.7975 24.2075 77.5675 24.0925 77.395C24.035 77.2225 23.8625 77.165 23.7475 77.165C23.575 77.165 23.46 77.3375 23.46 77.4525C23.46 77.5675 23.5175 77.7975 23.69 77.7975C23.69 77.9125 23.69 77.9125 23.7475 77.9125Z" fill="#000105"/>
<path d="M25.0125 77.165C24.84 77.165 24.725 77.3375 24.725 77.4525C24.725 77.5675 24.7825 77.7975 24.955 77.7975C25.0125 77.7975 25.0125 77.7975 25.1275 77.7975C25.185 77.7975 25.3575 77.74 25.415 77.74C25.4725 77.6825 25.5875 77.4525 25.4725 77.28C25.3 77.2225 25.1275 77.165 25.0125 77.165Z" fill="#000105"/>
<path d="M22.885 76.7625C22.9425 76.935 23.115 76.9925 23.23 76.9925H23.2875C23.345 76.9925 23.46 76.935 23.46 76.935C23.5175 76.8775 23.5175 76.7625 23.5175 76.705C23.5175 76.5325 23.46 76.4175 23.2875 76.36C23.115 76.3025 23 76.36 22.8275 76.4175C22.885 76.475 22.885 76.59 22.885 76.7625Z" fill="#000105"/>
<path d="M46.7475 63.3075L45.425 61.985C44.7925 61.3525 43.9875 61.1225 42.9525 61.18C42.1475 61.2375 41.2275 61.64 40.1925 62.215C38.2375 63.3075 36.5125 64.975 35.8225 65.6075C34.0975 67.3325 34.0975 70.15 35.8225 71.9325L37.145 73.255C38.0075 74.1175 39.1 74.5775 40.3075 74.5775C41.515 74.5775 42.6075 74.1175 43.47 73.255C44.275 72.45 44.62 71.5875 44.965 70.725C45.31 69.805 45.77 68.8275 46.6325 67.965C47.955 66.7575 47.955 64.63 46.7475 63.3075ZM42.1475 72.0475C42.9525 71.2425 43.2975 70.38 43.6425 69.5175C43.9875 68.5975 44.4475 67.62 45.31 66.7575C45.3675 66.7 45.4825 66.585 45.54 66.5275C45.7125 66.355 45.5975 66.1825 45.4825 66.01C45.31 65.8375 45.1375 65.9525 44.965 66.0675C44.9075 66.125 44.9075 66.24 44.7925 66.24C43.7575 67.275 43.355 68.2525 42.895 69.2875C42.55 70.0925 42.2625 70.8975 41.515 71.5875C40.7675 72.335 39.8475 72.68 38.8125 72.68C37.7775 72.68 36.8575 72.335 36.11 71.5875C35.3625 70.84 35.0175 69.92 35.0175 68.885C35.0175 67.85 35.3625 66.93 36.11 66.1825C36.7425 65.55 38.41 63.94 40.3075 62.8475C42.2625 61.6975 43.7 61.64 44.6775 62.5025C45.195 63.02 45.4825 63.6525 45.425 64.4C45.425 64.4575 45.425 64.63 45.4825 64.6875C45.54 64.745 45.655 64.86 45.7125 64.86C45.9425 64.86 46.0575 64.6875 46.0575 64.515C46.0575 64.3425 46.0575 64.2275 46.0575 64.055C46.4025 64.515 46.6325 65.09 46.6325 65.7225C46.6325 66.355 46.345 67.045 45.885 67.5625C44.85 68.5975 44.4475 69.575 43.9875 70.61C43.6425 71.415 43.355 72.22 42.6075 72.91C41.285 74.2325 39.2725 74.3475 37.835 73.37C39.6175 73.485 41.17 73.025 42.1475 72.0475Z" fill="#000105"/>
<path d="M45.885 65.6075C45.9425 65.6075 46.115 65.55 46.1725 65.55C46.23 65.4925 46.23 65.4925 46.23 65.3775C46.2875 65.1475 46.23 65.0325 46 64.9175C45.9425 64.9175 45.77 64.9175 45.7125 64.9175C45.655 64.975 45.54 65.09 45.4825 65.1475C45.4825 65.205 45.4825 65.3775 45.4825 65.435C45.54 65.4925 45.655 65.6075 45.7125 65.6075C45.77 65.6075 45.77 65.6075 45.885 65.6075Z" fill="#000105"/>
<path d="M38.2375 65.7225C38.295 65.7225 38.41 65.7225 38.4675 65.665C38.64 65.4925 38.64 65.32 38.4675 65.1475C38.295 64.975 38.1225 64.975 37.95 65.09C37.7775 65.2625 37.7775 65.435 37.8925 65.6075C38.065 65.7225 38.1225 65.7225 38.2375 65.7225Z" fill="#000105"/>
<path d="M43.9875 62.3875C43.4125 62.1575 42.665 62.33 41.745 62.675C40.9975 62.9625 40.3075 63.4225 39.8475 63.71C39.56 63.94 39.2725 64.055 39.0425 64.285C38.985 64.3425 38.87 64.4575 38.87 64.515C38.87 64.5725 38.87 64.745 38.9275 64.8025C38.985 64.86 39.1 64.975 39.1575 64.975C39.215 64.975 39.3875 64.975 39.445 64.9175C39.7325 64.6875 39.9625 64.5725 40.25 64.3425C41.745 63.3075 43.0675 62.905 43.7 63.135C43.8725 63.1925 43.9875 63.3075 44.045 63.365C44.3325 63.6525 44.505 63.9975 44.505 64.4575C44.505 64.9175 44.3325 65.2625 44.045 65.55C43.4125 66.1825 42.895 66.93 42.435 67.735C42.2625 68.08 42.09 68.4825 41.9175 68.8275C41.86 69.0575 41.6875 69.345 41.63 69.575C41.3425 70.15 41.1125 70.61 40.7675 70.8975C39.675 71.99 38.0075 71.99 36.915 70.8975C35.8225 69.805 35.8225 68.1375 36.915 67.045C37.145 66.815 37.375 66.585 37.5475 66.4125C37.605 66.4125 37.605 66.355 37.72 66.355C37.7775 66.2975 37.8925 66.1825 37.8925 66.125C37.8925 66.0675 37.8925 65.895 37.835 65.8375C37.7775 65.78 37.6625 65.665 37.605 65.665C37.5475 65.665 37.375 65.665 37.3175 65.7225C37.26 65.7225 37.26 65.78 37.145 65.78C36.915 66.01 36.685 66.24 36.5125 66.4125C35.88 67.045 35.4775 67.9075 35.4775 68.8275C35.4775 69.7475 35.8225 70.5525 36.5125 71.2425C37.145 71.875 38.0075 72.2775 38.9275 72.2775C39.8475 72.2775 40.6525 71.9325 41.3425 71.2425C41.8025 70.7825 42.09 70.38 42.3775 69.7475C42.55 69.5175 42.6075 69.23 42.665 69C42.8375 68.655 42.9525 68.2525 43.125 67.965C43.47 67.16 43.9875 66.5275 44.5625 65.9525C45.0225 65.4925 45.195 65.0325 45.195 64.3425C45.195 63.7675 44.965 63.1925 44.5625 62.7325C44.39 62.6175 44.2175 62.445 43.9875 62.3875Z" fill="#000105"/>
<path d="M37.4325 68.885C37.6625 69.115 38.0075 69.23 38.295 69.23H38.3525C38.6975 69.23 39.1 69.0575 39.3875 68.77C39.9625 68.195 39.9625 67.3325 39.445 66.815C38.9275 66.2975 38.065 66.2975 37.49 66.8725C36.9725 67.5625 36.9725 68.425 37.4325 68.885ZM38.065 67.4475C38.2375 67.275 38.41 67.2175 38.64 67.2175C38.8125 67.2175 38.9275 67.275 38.985 67.39C39.215 67.62 39.215 68.0225 38.9275 68.31C38.755 68.4825 38.64 68.54 38.41 68.54C38.2375 68.54 38.065 68.4825 37.95 68.3675C37.6625 68.195 37.7775 67.735 38.065 67.4475Z" fill="#000105"/>
<path d="M58.0175 74.9225C57.845 74.75 57.6725 74.6925 57.4425 74.6925C55.9475 74.75 54.395 75.21 53.015 75.8425C51.635 76.59 50.485 77.5675 49.565 78.8325C49.3925 79.005 49.3925 79.1775 49.3925 79.4075C49.3925 79.6375 49.565 79.7525 49.68 79.925L50.8875 80.7875V81.1325C50.8875 81.3625 51.06 81.4775 51.2325 81.4775C51.405 81.4775 51.5775 81.305 51.5775 81.1325V80.615C51.5775 80.4425 51.52 80.385 51.405 80.3275L51.1175 80.0975C51.29 79.8675 51.405 79.7525 51.635 79.5225C51.865 79.2925 52.095 79.0625 52.2675 78.89C52.44 78.7175 52.7275 78.545 53.015 78.315C53.245 78.1425 53.5325 77.97 53.82 77.7975C54.05 77.625 54.3375 77.51 54.625 77.4525C54.625 77.51 54.6825 77.6825 54.6825 77.74C54.855 78.0275 55.0275 78.315 55.315 78.3725C55.6025 78.545 55.9475 78.545 56.235 78.3725C56.5225 78.2 56.81 78.0275 56.8675 77.74C57.04 77.4525 57.04 77.165 56.8675 76.8775C57.04 76.8775 57.155 76.8775 57.385 76.8775V81.7075C57.04 81.88 56.81 82.1675 56.6375 82.5125C56.465 82.9725 56.6375 83.375 56.925 83.72C57.0975 83.8925 57.2125 83.95 57.385 84.0075V84.4675L56.6375 83.95C56.58 83.8925 56.4075 83.8925 56.2925 83.95C56.1775 84.0075 56.0625 84.1225 56.0625 84.2375V84.755C56.0625 84.755 56.0625 84.8125 56.005 84.8125C56.005 84.8125 55.9475 84.8125 55.9475 84.755V83.72C56.235 83.375 56.2925 82.8575 56.12 82.3975C55.9475 82.11 55.775 81.8225 55.4875 81.765C55.2 81.5925 54.855 81.5925 54.5675 81.765C54.3375 81.8225 54.2225 81.995 54.05 82.225L53.8775 82.1675C53.82 82.11 53.6475 82.11 53.5325 82.1675C53.36 82.225 53.3025 82.34 53.3025 82.455V83.26C53.3025 83.26 53.3025 83.3175 53.245 83.3175C53.245 83.3175 53.1875 83.3175 53.1875 83.26V81.9375C53.1875 81.765 53.13 81.7075 53.015 81.65L52.095 81.0175C52.0375 80.96 51.865 80.96 51.75 81.0175C51.5775 81.075 51.52 81.19 51.52 81.305V84.065C51.52 84.065 51.52 84.1225 51.4625 84.1225C51.4625 84.1225 51.405 84.1225 51.405 84.065V82.9725C51.405 82.7425 51.2325 82.6275 51.06 82.6275C50.8875 82.6275 50.715 82.8 50.715 82.9725V84.065C50.715 84.525 51.06 84.8125 51.4625 84.8125C51.9225 84.8125 52.21 84.4675 52.21 84.065V81.9375L52.44 82.11V83.26C52.44 83.72 52.785 84.0075 53.1875 84.0075C53.59 84.0075 53.935 83.6625 53.935 83.26V83.0875L55.2575 83.95V84.755C55.2575 85.215 55.6025 85.5025 56.005 85.5025C56.35 85.5025 56.6375 85.2725 56.7525 84.9275L57.5 85.445C57.5575 85.5025 57.6725 85.5025 57.73 85.5025C57.7875 85.5025 57.9025 85.5025 57.9025 85.445C58.075 85.3875 58.1325 85.2725 58.1325 85.1575V75.4975C58.2475 75.21 58.19 75.095 58.0175 74.9225ZM57.615 82.6275V83.0875C57.5575 82.915 57.5575 82.7425 57.615 82.6275ZM50.715 79.695L50.1975 79.35C50.1975 79.35 50.1975 79.35 50.1975 79.2925C50.1975 79.2925 50.1975 79.2925 50.1975 79.235C51.06 78.085 52.1525 77.1075 53.475 76.475C54.6825 75.8425 56.1775 75.3825 57.615 75.3825C57.615 75.3825 57.615 75.3825 57.6725 75.3825C57.6725 75.3825 57.6725 75.3825 57.6725 75.44V76.0725C57.385 76.0725 57.0975 76.0725 56.81 76.13C56.7525 76.13 56.58 76.13 56.5225 76.1875C56.005 76.245 55.4875 76.4175 55.085 76.5325C54.7975 76.705 54.4525 76.7625 54.05 76.9925C53.7625 77.165 53.4175 77.3375 53.13 77.51C52.8425 77.74 52.555 77.97 52.2675 78.1425C51.98 78.3725 51.75 78.6025 51.4625 78.89C51.175 79.1775 50.945 79.4075 50.715 79.695ZM55.3725 77.165C55.66 77.1075 55.9475 76.9925 56.235 76.935C56.2925 76.935 56.4075 76.935 56.4075 76.935L56.465 76.9925C56.5225 77.165 56.5225 77.28 56.465 77.4525C56.4075 77.625 56.2925 77.6825 56.1775 77.74C56.0625 77.7975 55.89 77.7975 55.7175 77.74C55.545 77.6825 55.4875 77.5675 55.43 77.4525C55.3725 77.395 55.3725 77.3375 55.3725 77.165ZM55.7175 83.2025L54.7975 82.57C54.855 82.5125 54.97 82.3975 55.0275 82.3975C55.315 82.225 55.6025 82.3975 55.775 82.685C55.775 82.8 55.775 82.9725 55.7175 83.2025Z" fill="#000105"/>
<path d="M52.9 81.0175C53.0725 81.075 53.1875 81.075 53.36 81.075C53.5325 81.075 53.705 81.075 53.8775 81.0175C54.165 80.845 54.4525 80.6725 54.51 80.385C54.6825 80.0975 54.6825 79.7525 54.51 79.465C54.3375 79.1775 54.165 78.89 53.8775 78.8325C53.59 78.66 53.245 78.66 52.9575 78.8325C52.67 79.005 52.3825 79.1775 52.325 79.465C52.1525 79.7525 52.1525 80.0975 52.325 80.385C52.325 80.6725 52.6125 80.845 52.9 81.0175ZM53.5325 79.35C53.705 79.4075 53.7625 79.5225 53.82 79.6375C53.8775 79.7525 53.8775 79.925 53.82 80.0975C53.7625 80.27 53.6475 80.3275 53.5325 80.385C53.36 80.4425 53.245 80.4425 53.0725 80.385C52.9 80.3275 52.8425 80.2125 52.785 80.0975C52.7275 79.925 52.7275 79.81 52.785 79.6375C52.8425 79.465 52.9575 79.4075 53.0725 79.35C53.13 79.35 53.245 79.2925 53.3025 79.2925C53.475 79.2925 53.475 79.2925 53.5325 79.35Z" fill="#000105"/>
<path d="M55.775 81.42C55.9475 81.4775 56.0625 81.4775 56.235 81.4775C56.4075 81.4775 56.58 81.4775 56.7525 81.42C57.04 81.2475 57.3275 81.075 57.385 80.7875C57.5575 80.5 57.5575 80.155 57.385 79.8675C57.2125 79.58 57.04 79.2925 56.7525 79.235C56.465 79.0625 56.12 79.0625 55.8325 79.235C55.545 79.4075 55.2575 79.58 55.2 79.8675C55.0275 80.155 55.0275 80.5 55.2 80.7875C55.2 81.075 55.4875 81.305 55.775 81.42ZM55.7175 80.0975C55.775 79.925 55.89 79.8675 56.005 79.81C56.0625 79.81 56.1775 79.7525 56.235 79.7525C56.2925 79.7525 56.4075 79.7525 56.465 79.81C56.6375 79.8675 56.695 79.9825 56.7525 80.0975C56.81 80.27 56.81 80.385 56.7525 80.5575C56.695 80.73 56.58 80.7875 56.465 80.845C56.35 80.9025 56.1775 80.9025 56.005 80.845C55.8325 80.7875 55.775 80.6725 55.7175 80.5575C55.7175 80.385 55.66 80.2125 55.7175 80.0975Z" fill="#000105"/>
<path d="M51.3475 82.34C51.52 82.34 51.635 82.2825 51.6925 82.11C51.75 81.9375 51.6925 81.8225 51.52 81.765C51.3475 81.7075 51.2325 81.7075 51.175 81.765C51.0025 81.8225 50.945 81.995 51.0025 82.11C51.06 82.1675 51.2325 82.34 51.3475 82.34Z" fill="#000105"/>
<path d="M72.335 65.2625L68.425 61.41C68.2525 61.2375 68.1375 61.2375 67.965 61.3525L65.55 62.9625C65.4925 63.02 65.3775 63.135 65.3775 63.1925C65.3775 63.25 65.3775 63.365 65.435 63.4225C65.4925 63.48 65.6075 63.595 65.665 63.595C65.7225 63.595 65.8375 63.595 65.895 63.5375L66.9875 62.79L63.4225 68.5975C63.0775 68.5975 62.8475 68.54 62.56 68.425C62.2725 68.3675 62.0425 68.195 61.8125 67.965C61.64 67.7925 61.5825 67.62 61.525 67.39C61.525 67.16 61.525 67.045 61.525 66.815C61.525 66.6425 61.5825 66.5275 61.5825 66.355L61.8125 66.1825C61.87 66.24 61.985 66.355 62.0425 66.4125C62.2725 66.6425 62.56 66.7575 62.905 66.7575C63.1925 66.7575 63.5375 66.585 63.7675 66.4125C64.2275 65.9525 64.285 65.2625 63.825 64.8025L64.4575 64.3425C64.63 64.285 64.6875 64.055 64.515 63.8825C64.4575 63.71 64.2275 63.6525 64.055 63.825L63.1925 64.4C63.02 64.3425 62.905 64.3425 62.675 64.3425C62.675 63.9975 62.8475 63.7675 63.135 63.48C63.1925 63.4225 63.3075 63.3075 63.3075 63.25C63.3075 63.1925 63.3075 63.0775 63.25 63.02C63.1925 62.9625 63.0775 62.8475 63.02 62.8475C62.9625 62.8475 62.8475 62.8475 62.79 62.905C62.1575 63.4225 62.0425 64.055 62.1575 64.5725C61.87 64.8025 61.6975 65.09 61.6975 65.435L61.18 65.78C61.1225 65.8375 61.1225 65.8375 61.0075 65.9525C61.0075 66.01 60.49 67.275 61.18 68.195C61.2375 68.2525 61.3525 68.425 61.41 68.4825L65.2625 72.335C65.7225 72.795 66.4125 72.9675 67.39 72.9675C67.4475 72.9675 67.5625 72.9675 67.62 72.91C67.62 72.91 67.62 72.8525 67.6775 72.8525L72.1625 65.6075C72.45 65.6075 72.3925 65.435 72.335 65.2625ZM71.645 65.6075L67.505 72.2775L66.93 71.7025L71.07 65.0325L71.645 65.6075ZM66.6425 72.3925C66.355 72.335 66.0675 72.1625 65.895 72.0475L63.135 69.2875C63.3075 69.2875 63.365 69.2875 63.48 69.2875L66.6425 72.3925ZM66.355 71.185L70.495 64.515L70.5525 64.5725L66.355 71.185ZM65.7225 70.495L69.8625 63.825L70.0925 64.055L65.9525 70.725L65.7225 70.495ZM66.0675 67.2175C66.01 67.275 66.01 67.39 66.01 67.505C66.01 67.5625 66.0675 67.6775 66.1825 67.735C66.355 67.7925 66.5275 67.7925 66.6425 67.5625L69.345 63.3075L69.4025 63.365L65.2625 70.035L65.205 69.9775L65.8375 68.9425C65.895 68.77 65.895 68.5975 65.665 68.4825C65.6075 68.425 65.4925 68.425 65.3775 68.425C65.32 68.425 65.205 68.4825 65.1475 68.5975L64.63 69.46L64.055 68.885L68.195 62.215L68.77 62.79L66.0675 67.2175ZM63.02 65.665C63.1925 65.4925 63.25 65.32 63.0775 65.205C63.0775 65.205 63.0775 65.205 63.0775 65.1475C63.25 65.1475 63.3075 65.205 63.365 65.32C63.4225 65.3775 63.5375 65.55 63.5375 65.665C63.5375 65.8375 63.48 65.9525 63.365 66.01C63.135 66.24 62.79 66.24 62.56 66.01C62.3875 65.8375 62.33 65.665 62.3875 65.435V65.4925C62.675 65.7225 62.905 65.78 63.02 65.665Z" fill="#000105"/>
<path d="M65.7225 67.85C65.665 67.9075 65.55 68.1375 65.665 68.195C65.7225 68.3675 65.8375 68.425 65.9525 68.425H66.01C66.0675 68.425 66.1825 68.3675 66.1825 68.3675C66.24 68.31 66.24 68.195 66.24 68.1375C66.24 67.965 66.1825 67.85 66.0675 67.7925C65.9525 67.735 65.78 67.735 65.7225 67.85Z" fill="#000105"/>
<path d="M64.975 64.055C65.0325 64.055 65.0325 64.055 65.1475 64.055C65.205 64.055 65.32 64.055 65.3775 63.9975C65.435 63.94 65.55 63.71 65.435 63.6525C65.3775 63.48 65.205 63.4225 65.09 63.48C64.9175 63.48 64.8025 63.6525 64.8025 63.7675C64.8025 63.825 64.86 63.9975 64.975 64.055Z" fill="#000105"/>
<path d="M136.39 40.7675L136.333 40.71L113.793 20.6425C113.562 20.4125 113.333 20.2975 113.045 20.1825L96.715 14.375C95.6225 13.915 94.415 14.5475 93.955 15.6975C93.8975 15.9275 93.7825 16.1575 93.7825 16.33C93.7825 16.8475 93.035 27.715 82.225 27.83C71.3 27.6575 70.6675 16.8475 70.5525 16.33C70.495 15.18 69.46 14.2025 68.31 14.3175C68.08 14.3175 67.85 14.375 67.735 14.49L51.4625 20.2975C51.175 20.355 50.945 20.5275 50.715 20.7575L28.405 40.71C27.5425 41.515 27.5425 42.895 28.3475 43.7575L28.405 43.815L46.23 61.8125V111.09C46.23 112.24 47.15 113.275 48.415 113.275H116.323C117.473 113.275 118.508 112.355 118.508 111.09V61.8125L136.333 43.815C137.138 42.9525 137.195 41.5725 136.39 40.7675Z" fill="black"/>
</svg>
