<svg width="21" height="20" viewBox="0 0 21 20" fill="none" xmlns="http://www.w3.org/2000/svg">
<path d="M20.125 1.19922V18.3008C20.125 18.5872 20.0247 18.8307 19.8242 19.0312C19.6237 19.2604 19.3659 19.375 19.0508 19.375H14.1523V11.8984H16.6445L17.0312 9.01953H14.1523V7.17188C14.1523 6.6849 14.2383 6.34115 14.4102 6.14062C14.6393 5.88281 15.026 5.75391 15.5703 5.75391H17.1172V3.13281C16.5156 3.07552 15.7708 3.04688 14.8828 3.04688C13.7656 3.04688 12.8633 3.3763 12.1758 4.03516C11.4883 4.69401 11.1445 5.63932 11.1445 6.87109V9.01953H8.65234V11.8984H11.1445V19.375H1.94922C1.63411 19.375 1.3763 19.2604 1.17578 19.0312C0.97526 18.8307 0.875 18.5872 0.875 18.3008V1.19922C0.875 0.884115 0.97526 0.626302 1.17578 0.425781C1.3763 0.22526 1.63411 0.125 1.94922 0.125H19.0508C19.3372 0.125 19.5807 0.22526 19.7812 0.425781C20.0104 0.626302 20.125 0.884115 20.125 1.19922Z" fill="#F2F4F5"/>
</svg>
