<svg width="443" height="286" viewBox="0 0 443 286" fill="none" xmlns="http://www.w3.org/2000/svg">
<g clip-path="url(#clip0)">
<path d="M442.786 124.836L395.989 25.1609C395.234 23.5732 392.998 23.6001 392.298 25.2147L348.194 126.127C347.602 127.473 348.598 129.007 350.08 128.98L440.981 127.769C442.436 127.715 443.406 126.181 442.786 124.836Z" fill="#D67228"/>
<path d="M408.247 51.2636L395.988 25.1609C395.234 23.5732 392.998 23.6001 392.297 25.2147L356.007 108.178C370.744 79.1694 396.096 59.4981 408.247 51.2636Z" fill="#BE682C"/>
<path d="M350.483 120.961C350.618 120.611 350.753 120.234 350.887 119.884L350.726 120.234C350.564 120.719 350.483 120.961 350.483 120.961Z" fill="#BE682C"/>
<path d="M439.793 118.27L399.165 31.727C398.519 30.3546 396.552 30.3815 395.959 31.7808L357.675 119.4C357.163 120.584 358.025 121.903 359.319 121.876L438.257 120.826C439.497 120.772 440.332 119.427 439.793 118.27Z" fill="#FBB216"/>
<path d="M377.026 115.011C381.861 114.947 385.728 110.955 385.664 106.096C385.599 101.237 381.627 97.3492 376.791 97.4133C371.956 97.4774 368.089 101.469 368.153 106.328C368.218 111.187 372.19 115.075 377.026 115.011Z" fill="#E82628"/>
<path d="M371.604 113.212C370.85 112.432 370.204 111.517 369.772 110.44C367.913 105.973 370.015 100.833 374.46 98.9496C377.505 97.658 380.899 98.25 383.297 100.188C380.872 97.5772 376.993 96.6354 373.517 98.0885C369.045 99.9722 366.944 105.112 368.803 109.579C369.449 111.086 370.419 112.297 371.604 113.212Z" fill="#D61F27"/>
<path d="M417.843 107.53C422.678 107.465 426.545 103.474 426.48 98.6143C426.415 93.7549 422.442 89.868 417.607 89.9326C412.771 89.9972 408.904 93.9888 408.97 98.8482C409.035 103.708 413.008 107.595 417.843 107.53Z" fill="#E82628"/>
<path d="M412.421 105.73C411.667 104.949 411.02 104.034 410.589 102.958C408.73 98.4909 410.831 93.3511 415.277 91.4674C418.321 90.1757 421.716 90.7677 424.114 92.7052C421.689 90.095 417.809 89.1531 414.334 90.6062C409.861 92.49 407.76 97.6298 409.619 102.097C410.266 103.604 411.235 104.815 412.421 105.73Z" fill="#D61F27"/>
<path d="M401.294 118.027C403.045 113.991 402.237 109.12 398.896 105.891C395.556 102.635 390.706 101.962 386.719 103.819L401.294 118.027Z" fill="#347137"/>
<path d="M413.714 73.0608C409.808 71.0426 404.931 71.5 401.456 74.6216C398.008 77.7162 396.984 82.5601 398.573 86.6504L413.714 73.0608Z" fill="#347137"/>
<path d="M411.748 101.397C411.479 105.783 413.85 110.089 418.079 112.027C422.309 113.964 427.105 112.941 430.23 109.847L411.748 101.397Z" fill="#347137"/>
<path d="M394.54 93.564C399.375 93.4988 403.241 89.5066 403.175 84.6472C403.11 79.7878 399.136 75.9014 394.301 75.9666C389.466 76.0318 385.599 80.024 385.665 84.8834C385.731 89.7428 389.704 93.6292 394.54 93.564Z" fill="#E82628"/>
<path d="M389.115 91.7634C388.361 90.983 387.714 90.0681 387.283 88.9917C385.424 84.5246 387.526 79.3848 391.971 77.5011C395.015 76.2094 398.41 76.8014 400.808 78.739C398.383 76.1287 394.504 75.1868 391.028 76.64C386.556 78.5237 384.454 83.6635 386.313 88.1306C386.96 89.6375 387.93 90.8485 389.115 91.7634Z" fill="#D61F27"/>
<path d="M353.339 118.754L437.423 117.624C440.414 117.597 442.892 119.992 442.946 123.006L443 127.877C443.027 130.864 440.629 133.339 437.612 133.393L353.527 134.523C350.537 134.55 348.058 132.155 348.004 129.141L347.95 124.271C347.923 121.284 350.348 118.781 353.339 118.754Z" fill="#ED8546"/>
<path d="M434.999 117.652L355.737 118.729C351.427 118.782 347.924 122.388 347.978 126.721C347.978 127.717 348.194 128.658 348.544 129.52C370.825 120.343 419.562 118.729 438.502 118.46C437.451 117.921 436.266 117.652 434.999 117.652Z" fill="#E27A39"/>
<path d="M434.891 131.671C438.204 131.617 440.872 128.872 440.818 125.562C440.818 124.97 440.71 124.432 440.548 123.894C436.938 126.935 428.425 130.702 408.407 132.048L434.891 131.671Z" fill="#F3935C"/>
<path d="M408.301 51.2098L399.141 31.727C398.494 30.3546 396.527 30.3815 395.934 31.7808L374.273 81.3491C386.828 66.7907 400.407 56.5649 408.301 51.2098Z" fill="#F7961D"/>
<path d="M398.255 63.9631C403.09 63.8989 406.958 59.9077 406.893 55.0483C406.828 50.1889 402.856 46.3016 398.021 46.3657C393.185 46.4298 389.318 50.421 389.383 55.2804C389.448 60.1398 393.42 64.0272 398.255 63.9631Z" fill="#E82628"/>
<path d="M392.835 62.1362C392.081 61.3558 391.434 60.4408 391.003 59.3644C389.144 54.8974 391.245 49.7575 395.691 47.8738C398.735 46.5821 402.13 47.1742 404.528 49.1117C402.103 46.5014 398.223 45.5596 394.748 47.0127C390.276 48.8964 388.174 54.0362 390.033 58.5033C390.68 60.0372 391.65 61.2481 392.835 62.1362Z" fill="#D61F27"/>
<path d="M383.271 69.5356C387.554 70.4505 392.161 68.7013 394.667 64.7994C397.199 60.8974 396.876 55.9729 394.29 52.4208L383.271 69.5356Z" fill="#347137"/>
<path d="M297.731 153.656C298.782 153.145 299.617 151.773 300.345 150.992C301.288 149.97 303.093 144.157 302.231 142.973C301.907 142.516 301.395 142.139 300.857 141.977C299.644 141.601 298.297 142.166 297.381 143.054C295.818 144.642 294.04 148.893 294.364 151.154C294.525 152.23 295.441 153.737 296.708 153.845C297.085 153.899 297.408 153.818 297.731 153.656Z" fill="#AF8B7F"/>
<path d="M111.215 64.2612C111.188 64.0459 111.135 63.8576 111.081 63.6423C110.784 63.723 110.488 63.7768 110.165 63.8307C108.548 64.0998 106.851 63.9652 105.207 63.4001C99.7383 61.5433 94.4308 55.5155 96.3167 49.9451C96.5861 49.1647 95.7509 48.4381 96.1551 47.7385C94.781 47.8461 93.3801 47.6846 91.9791 47.2272C88.7192 46.1238 86.3483 43.5405 85.3784 40.4458C84.9474 39.0465 84.7857 37.5665 84.9474 36.0595C83.0076 38.1047 82.8459 39.4233 80.1787 39.7731C78.5083 39.9884 76.7841 39.8538 75.0868 39.2887C68.9441 37.1897 65.738 30.1662 67.9473 23.6001C68.1089 23.1158 68.2975 22.6583 68.513 22.2008C68.513 22.1739 68.54 22.147 68.54 22.147C42.8377 16.8995 17.836 31.5655 9.21468 57.2377C-0.134042 85.0358 14.6838 115.229 42.3258 124.647C46.3671 126.02 50.4891 126.881 54.5573 127.258C78.3197 129.437 101.355 115.094 109.356 91.3327C112.401 82.3179 112.886 73.007 111.215 64.2612ZM75.9758 79.9767C73.5511 87.1886 66.9504 91.7902 59.8109 92.0055C57.7633 92.0593 55.6889 91.7633 53.6413 91.0636C44.4273 87.9151 39.497 77.8508 42.6222 68.5668C45.7474 59.2829 55.7427 54.3314 64.9567 57.453C64.9567 57.453 64.9837 57.453 64.9837 57.4799C74.1708 60.6553 79.1011 70.6927 75.9758 79.9767Z" fill="#F4BB86"/>
<path d="M111.727 67.5173C96.7479 90.337 72.3119 115.579 35.5098 121.768C37.692 122.871 39.9551 123.84 42.326 124.647C46.3672 126.02 50.4893 126.881 54.5574 127.258C78.3199 129.437 101.355 115.094 109.357 91.3327C112.024 83.4211 112.724 75.2943 111.727 67.5173Z" fill="#ECA667"/>
<path d="M111.62 58.2603C111.324 58.341 111.027 58.3948 110.704 58.4486C111.027 58.6101 111.378 58.7716 111.728 58.8792C111.701 58.6639 111.647 58.4755 111.62 58.2603Z" fill="#F17D9F"/>
<path d="M111.728 58.8792C111.377 58.7447 111.027 58.6101 110.704 58.4487C109.087 58.7178 107.39 58.5832 105.747 58.0181C100.277 56.1613 97.3408 50.1334 99.1998 44.5631C99.4692 43.7827 99.8194 43.0561 100.224 42.3564C98.8495 42.4641 97.4486 42.3026 96.0476 41.8451C92.7877 40.7418 90.4168 38.1585 89.4469 35.0638C89.0159 33.6645 88.8542 32.1844 89.0159 30.6775C87.0761 32.7226 84.5705 34.0412 81.8764 34.3911C80.206 34.6063 78.4817 34.4718 76.7844 33.9067C70.6417 31.8077 67.4357 24.7842 69.6449 18.2181C69.8065 17.7337 69.9951 17.2763 70.2107 16.8188C46.6368 14.9082 23.8982 29.2243 15.9504 52.7975C6.62863 80.5956 21.4465 110.789 49.0885 120.234C51.0822 120.907 96.2362 131.025 109.896 85.9777C112.644 76.8282 113.398 67.625 111.728 58.8792ZM76.515 74.5947C74.0902 81.8066 67.4896 86.4082 60.3501 86.6235C58.3025 86.6773 56.228 86.3813 54.1804 85.6816C44.9664 82.5332 40.0361 72.4688 43.1614 63.1848C46.2866 53.9009 56.2819 48.9494 65.4959 52.071C65.4959 52.071 65.5228 52.071 65.5228 52.0979C74.7099 55.2733 79.6133 65.3107 76.515 74.5947Z" fill="#EE5181"/>
<path d="M111.62 58.2603C111.324 58.341 111.027 58.3948 110.704 58.4486C111.027 58.6101 111.378 58.7715 111.728 58.8792C111.701 58.6639 111.647 58.4755 111.62 58.2603Z" fill="#F17D9F"/>
<path d="M112.563 66.2256C99.1727 87.0271 77.8889 110.197 46.502 119.265C47.3371 119.588 48.1993 119.911 49.0614 120.207C51.0551 120.88 96.2091 130.998 109.869 85.9507C111.889 79.3578 112.832 72.711 112.563 66.2256Z" fill="#ED3F79"/>
<path d="M65.4691 27.2061V21.9855C65.0919 21.9855 64.7148 21.9586 64.3376 21.9586C38.8239 21.9586 18.1328 42.787 18.1328 68.4861C18.1328 79.1694 21.716 88.9915 27.724 96.8493C23.7905 90.0141 21.5544 82.1026 21.5544 73.6797C21.5544 48.761 41.0062 28.417 65.4691 27.2061Z" fill="#F06B9C"/>
<path d="M37.0724 89.5028L34.4591 90.6062L31.0645 82.4255L33.7047 81.3222L37.0724 89.5028Z" fill="#90C8DB"/>
<path d="M86.4834 40.6073L86.2409 43.4597L77.458 42.6793L77.7274 39.8269L86.4834 40.6073Z" fill="#90C8DB"/>
<path d="M26.6191 63.1848L25.1104 60.7629L32.5732 56.0267L34.0819 58.4486L26.6191 63.1848Z" fill="#FFD400"/>
<path d="M92.2754 85.5471L93.4069 82.9099L101.489 86.3544L100.385 89.0185L92.2754 85.5471Z" fill="#90C8DB"/>
<path d="M47.9023 35.5482L49.2764 33.0456L56.9816 37.3243L55.6076 39.8269L47.9023 35.5482Z" fill="#E82628"/>
<path d="M76.8379 100.132L78.9124 98.141L84.9742 104.546L82.9267 106.537L76.8379 100.132Z" fill="#FFD400"/>
<path d="M49.4658 106.537L47.957 104.115L55.3929 99.3788L56.9286 101.801L49.4658 106.537Z" fill="#E82628"/>
<path d="M91.5484 69.1319L90.0127 66.71L97.4755 62.0007L98.9842 64.4226L91.5484 69.1319Z" fill="#FFD400"/>
<path d="M278.791 75.6442L197.293 115.417C194.113 116.978 190.261 115.632 188.698 112.457L183.094 101.02C183.04 100.886 183.094 100.724 183.202 100.67L275.773 55.4885C275.908 55.4347 276.07 55.4885 276.124 55.5962L281.727 67.0329C283.29 70.2352 281.97 74.1103 278.791 75.6442Z" fill="#F9A41A"/>
<path d="M280.3 64.0998L276.798 56.9417C276.394 56.0806 275.37 55.7308 274.508 56.1344L269.739 58.4756C263.031 72.5764 246.138 87.2693 230.674 99.1367L275.99 77.0166C280.704 74.7023 282.644 68.9167 280.3 64.0998Z" fill="#F7981D"/>
<path d="M263.569 36.7053L175.874 79.4923C175.712 79.573 175.632 79.7614 175.712 79.9228L178.784 86.166C178.865 86.3274 179.053 86.4082 179.215 86.3274L266.91 43.5405C267.071 43.4597 267.152 43.2714 267.071 43.1099L264 36.8668C263.946 36.7053 263.73 36.6246 263.569 36.7053Z" fill="#E82628"/>
<path d="M259.851 63.2925L268.014 59.3098C271.004 57.8566 272.244 54.17 270.735 51.1022L269.711 49.0301C268.741 47.0657 266.882 45.8278 264.889 45.5856C265.993 52.1248 262.599 59.0138 259.851 63.2925Z" fill="#8C401F"/>
<path d="M262.248 37.6472L178.298 78.6042C176.089 78.2006 174.634 77.6893 174.042 76.4784L169.623 67.4635C169.03 66.2525 169.515 64.7994 170.701 64.2074L254.678 23.2503C255.863 22.6583 257.318 23.1965 257.911 24.4074L262.329 33.4223C262.895 34.6063 262.41 36.0595 262.248 37.6472Z" fill="#B85F28"/>
<path d="M262.923 25.3224C262.896 25.2954 255.406 19.5098 255.406 19.5098L213.889 39.7731L208.851 42.2219L167.334 62.4851C167.334 62.4851 167.28 71.9306 167.28 71.9844C167.253 76.8551 174.043 74.6754 175.444 72.4149C176.009 71.5 176.225 70.3429 176.764 69.401C178.515 66.3333 181.937 65.9565 185.143 66.8984C185.143 66.8984 196.35 71.2847 199.529 60.6552C200.607 57.1031 202.709 54.439 206.588 54.6005C210.09 54.7619 213.647 56.6726 217.122 56.3496C219.52 56.1344 221.433 54.3583 222.43 52.0979C223.076 50.5909 222.942 48.7879 223.804 47.3886C225.986 43.7288 230.108 42.168 234.176 43.7557C244.549 47.7653 247.943 36.2478 247.943 36.2478C249.183 33.1263 251.581 30.6775 255.056 31.1887C256.134 31.3502 257.157 31.8615 258.235 31.996C260.902 32.2921 266.776 28.2825 262.923 25.3224Z" fill="#347137"/>
<path d="M166.256 64.6649C157.688 47.1733 167.818 17.8683 192.955 5.59731C218.091 -6.67368 249.074 2.55647 257.642 20.0749L166.256 64.6649Z" fill="#F9A41A"/>
<path d="M225.15 1.04951C226.874 18.4065 218.549 33.1263 210.197 43.2176L257.561 20.1018C251.849 8.93415 237.031 1.66844 225.15 1.04951Z" fill="#F7981D"/>
<path d="M182.962 26.3831C183.325 24.8348 183.056 23.4478 182.36 23.2851C181.665 23.1224 180.807 24.2455 180.444 25.7938C180.081 27.3421 180.35 28.7291 181.045 28.8918C181.741 29.0545 182.599 27.9313 182.962 26.3831Z" fill="white"/>
<path d="M216.044 10.5757C215.155 11.8943 213.97 12.6478 213.377 12.2172C212.784 11.8135 213 10.4142 213.889 9.06872C214.778 7.75013 215.963 6.99665 216.556 7.42721C217.149 7.85777 216.906 9.25709 216.044 10.5757Z" fill="white"/>
<path d="M199.744 18.2181C200.148 19.7789 199.906 21.1782 199.205 21.3397C198.505 21.5011 197.616 20.3978 197.239 18.837C196.834 17.2763 197.077 15.8769 197.777 15.7155C198.451 15.5271 199.34 16.6573 199.744 18.2181Z" fill="white"/>
<path d="M189.48 16.6574C190.962 17.2763 191.932 18.3258 191.635 18.9985C191.366 19.6713 189.965 19.6982 188.483 19.0793C187.001 18.4603 186.031 17.4108 186.328 16.7381C186.597 16.0653 188.025 16.0384 189.48 16.6574Z" fill="white"/>
<path d="M205.671 9.17637C207.26 9.06873 208.58 9.55311 208.634 10.2797C208.688 11.0063 207.449 11.679 205.886 11.7866C204.297 11.8943 202.977 11.4099 202.923 10.6833C202.842 9.95676 204.081 9.28401 205.671 9.17637Z" fill="white"/>
<path d="M192.065 72.3612L218.468 67.7595L232.801 60.7629C232.774 60.7898 215.72 61.1397 192.065 72.3612Z" fill="#CA2027"/>
<path d="M273.833 56.4842L185.196 99.7287C184.926 99.8632 184.603 99.7556 184.468 99.4865L178.514 87.2962C178.379 87.0271 178.487 86.7042 178.757 86.5697L267.394 43.3252C267.664 43.1906 267.987 43.2983 268.122 43.5674L274.076 55.7576C274.21 56.0267 274.103 56.3497 273.833 56.4842Z" fill="#954B22"/>
<path d="M216.529 68.1363C216.529 68.1363 241.854 63.8845 250.988 65.7144L257.427 48.4112L216.529 68.1363Z" fill="#8C401F"/>
<path d="M248.832 62.243L255.486 40.984L188.482 73.6259C188.482 73.6259 220.031 60.8975 248.832 62.243Z" fill="#FFC20D"/>
<path d="M167.522 60.7091C167.522 60.7091 160.894 33.1263 185.6 14.2355C185.6 14.2355 170.755 35.9788 167.522 60.7091Z" fill="#FCBB5C"/>
<path d="M135.597 128.011L131.34 127.177L137.132 98.1141C137.509 95.6653 140.177 91.0906 147.586 90.8753L166.014 89.6105L166.337 93.8085L147.774 95.0732C141.955 95.2347 141.389 98.7599 141.389 98.7868L141.362 98.8945L135.597 128.011Z" fill="#DE1F26"/>
<path d="M137.051 98.4639L136.89 99.2981L141.173 99.9171L141.335 99.0829L137.051 98.4639Z" fill="#EE3E51"/>
<path d="M141.739 97.8719L137.941 95.8536C137.806 96.1227 137.671 96.3649 137.563 96.6071L141.416 98.6523C141.47 98.4908 141.551 98.2217 141.739 97.8719Z" fill="#EE3E51"/>
<path d="M142.575 96.8224L139.692 93.6739C139.477 93.8623 139.261 94.0775 139.1 94.2659L142.009 97.4413C142.171 97.2529 142.36 97.0376 142.575 96.8224Z" fill="#EE3E51"/>
<path d="M143.76 95.9881L142.143 92.0593C141.874 92.1938 141.631 92.3284 141.389 92.4629L143.032 96.4456C143.221 96.2842 143.463 96.1227 143.76 95.9881Z" fill="#EE3E51"/>
<path d="M144.218 91.3058L144.352 95.6921C144.622 95.5845 144.891 95.5038 145.215 95.423L145.08 91.1174C144.784 91.1713 144.487 91.252 144.218 91.3058Z" fill="#EE3E51"/>
<path d="M139.045 215.065L160.194 134.658L107.766 124.459L96.9893 206.884C96.9623 206.884 114.959 216.491 139.045 215.065Z" fill="#E82628"/>
<path d="M164.829 129.814L105.288 118.243L104.184 123.786L163.724 135.358L164.829 129.814Z" fill="#E1E0DF"/>
<path d="M163.374 125.858L108.144 115.121L107.443 118.673L162.674 129.384L163.374 125.858Z" fill="#F1F0F0"/>
<path d="M107.739 124.486C107.739 124.486 147.99 134.012 158.389 141.466L160.167 134.685L107.739 124.486Z" fill="#D61F27"/>
<path d="M96.9629 206.885C96.9629 206.885 114.96 216.465 139.019 215.065L155.076 154.033C127.272 206.481 96.9629 206.885 96.9629 206.885Z" fill="#BC2226"/>
<path d="M146.508 190.308L155.534 156.428L103.752 146.364L99.3066 181.132L146.508 190.308Z" fill="#9ED4E3"/>
<path d="M155.534 156.428C155.534 156.428 146.401 177.014 128.889 186.89L146.508 190.308L155.534 156.428Z" fill="#77C0DA"/>
<path d="M100.143 180.836L145.593 190.12L144.488 193.214L100.143 180.836Z" fill="#BC2226"/>
<path d="M163.374 125.858L162.674 129.41L136.621 124.324C136.621 124.324 158.579 128.522 163.374 125.858Z" fill="#D8D5D3"/>
<path d="M146.481 100.832H146.4L146.616 100.59L146.481 100.832ZM144.056 85.8431V85.8162V85.8431ZM144.056 85.8431L144.029 85.7893L144.056 85.8431Z" fill="#737374"/>
<path d="M323.622 87.8613L322.517 86.5158C318.53 81.6989 311.39 81.0262 306.568 85.0088L243.39 137.214C238.567 141.197 237.894 148.328 241.881 153.145L242.986 154.491C246.973 159.307 254.113 159.98 258.935 155.998L322.113 103.792C326.936 99.8094 327.609 92.6782 323.622 87.8613Z" fill="#EAAA54"/>
<path d="M318.126 84.6052L240.857 148.49C237.409 151.342 236.924 156.455 239.779 159.9C242.635 163.344 247.754 163.828 251.203 160.976L328.471 97.1184C331.92 94.2659 332.405 89.153 329.549 85.7085C326.72 82.2371 321.601 81.7527 318.126 84.6052Z" fill="#D53638"/>
<g opacity="0.06">
<path opacity="0.06" d="M319.257 83.6364C318.934 83.475 318.583 83.3404 318.26 83.2059C318.206 83.1789 318.152 83.152 318.098 83.152C317.775 83.0444 317.425 82.9368 317.102 82.856C317.048 82.856 316.994 82.8291 316.94 82.8022C314.3 82.1564 311.444 82.3986 308.911 83.5826C309.316 83.8786 308.992 89.3413 304.87 92.7589C300.748 96.1765 240.049 146.337 240.049 146.337C240.103 147.171 240.237 148.005 240.453 148.839L299.132 100.348L319.311 83.6633C319.284 83.6364 319.284 83.6364 319.257 83.6364Z" fill="black"/>
</g>
<path d="M310.474 106.456C306.944 109.362 303.2 108.394 299.913 107.533C296.976 106.752 294.417 106.106 292.1 108.017C289.783 109.928 289.971 112.538 290.16 115.579C290.375 118.969 290.645 122.844 287.115 125.751C283.586 128.657 279.841 127.688 276.554 126.827C273.618 126.047 271.058 125.401 268.741 127.311C266.424 129.222 266.613 131.832 266.802 134.873C267.017 138.264 267.286 142.139 263.757 145.045C260.228 147.951 256.483 146.983 253.196 146.122C250.259 145.341 247.7 144.695 245.383 146.606C244.709 147.144 243.74 147.063 243.174 146.391C242.608 145.718 242.716 144.722 243.362 144.184C246.892 141.278 250.637 142.247 253.923 143.108C256.86 143.888 259.42 144.534 261.736 142.623C264.053 140.713 263.865 138.102 263.676 135.062C263.461 131.671 263.191 127.796 266.721 124.89C270.25 121.983 273.995 122.952 277.282 123.813C280.218 124.594 282.778 125.239 285.095 123.329C287.412 121.418 287.223 118.808 287.035 115.767C286.819 112.376 286.55 108.501 290.079 105.595C293.608 102.689 297.353 103.658 300.64 104.519C303.577 105.299 306.136 105.945 308.453 104.034C310.77 102.124 310.582 99.5134 310.393 96.4725C310.177 93.0819 309.908 89.2068 313.437 86.3005C314.111 85.7623 315.081 85.8431 315.647 86.5158C316.212 87.1886 316.105 88.1842 315.458 88.7224C313.141 90.633 313.33 93.2433 313.518 96.2841C313.761 99.7017 314.003 103.55 310.474 106.456Z" fill="#FFD000"/>
<g opacity="0.06">
<path opacity="0.06" d="M329.925 95.7191C325.184 91.5749 319.068 92.5437 314.111 96.6609L253.465 146.767C248.508 150.858 246.407 156.697 249.586 162.106C249.828 161.972 250.071 161.837 250.313 161.676C249.02 157.182 250.367 152.176 254.166 149.028L316.185 97.7642C319.984 94.6158 325.184 94.239 329.36 96.338C329.548 96.1496 329.737 95.9343 329.925 95.7191Z" fill="black"/>
</g>
<path d="M333.805 100.132L332.701 98.7868C328.714 93.9699 321.574 93.2971 316.751 97.2798L253.573 149.485C248.751 153.468 248.077 160.599 252.065 165.416L253.169 166.762C257.157 171.578 264.296 172.251 269.119 168.269L332.297 116.063C337.119 112.08 337.793 104.949 333.805 100.132Z" fill="#EAAA54"/>
<g opacity="0.06">
<path opacity="0.06" d="M289.136 151.746L332.107 116.251C337.253 112 337.927 104.357 333.643 99.1904C329.683 94.4274 322.893 93.4048 317.828 96.5802C317.775 97.2798 314.811 110.439 307.591 125.401C300.343 140.336 289.136 151.746 289.136 151.746Z" fill="black"/>
</g>
<path d="M227.657 203.924L219.844 135.142L228.303 113.426C227.118 109.12 226.175 104.734 224.828 100.482C224.343 98.9752 224.235 98.5446 222.834 98.1141C221.945 97.845 221.083 97.5489 220.194 97.2529C215.587 95.7729 211.007 94.2928 206.4 92.8128C206.238 92.7589 203.544 91.7902 203.517 91.8709C202.332 93.9699 200.877 96.0151 199.907 98.1948C198.883 100.428 197.994 102.743 197.078 105.03C196.566 106.295 196.243 106.994 196.431 108.232C196.62 109.551 199.287 122.898 199.772 125.643L205.376 133.312L202.332 202.041L227.657 203.924Z" fill="#ECCFB2"/>
<path d="M204.218 134.389C204.218 134.389 213.594 138.748 220.841 135.815L221.164 138.56C221.164 138.56 213.647 143.619 203.571 138.883L204.218 134.389Z" fill="#504E51"/>
<path d="M192.039 286H240.803L230.35 181.589C230.35 181.589 215.532 173.785 199.825 166.869L192.039 286Z" fill="#997F67"/>
<path d="M68.7015 220.339C68.0279 214.312 61.6697 140.013 62.7743 137.726C64.2831 134.577 67.6238 130.998 68.7015 129.922L68.1626 125.885L47.4176 126.693C47.4176 126.693 39.7662 118.458 39.8471 118.673L39.7393 118.646L49.3574 113.937L45.7742 110.143L32.3304 113.803L31.3066 119.508L33.1655 127.042C34.8629 129.491 36.5602 131.94 38.2575 134.416C39.2005 135.788 40.5206 136.999 41.1402 138.56C42.0832 140.928 29.4207 207.584 29.3398 220.339C29.3668 220.339 68.7015 220.339 68.7015 220.339Z" fill="#EBCEB1"/>
<path d="M156.207 194.479L155.453 187.025L139.261 182.262L138.156 187.59L144.865 193.053L138.991 214.958L123.177 214.527L122.907 221.281L143.464 224.538L144.083 214.742L156.827 200.91L156.207 194.479Z" fill="#ECC192"/>
<path d="M148.179 286L148.772 225.775L118.139 220.447L105.342 286H148.179Z" fill="#7AA0BB"/>
<path d="M298.916 131.617C298.755 130.917 298.432 130.325 297.677 129.949C297.057 129.626 295.603 129.114 294.902 129.061C293.447 128.98 292.801 130.218 291.4 130.675C290.133 131.106 290.187 130.325 289.164 129.706C287.332 128.549 285.553 129.088 284.314 130.81C284.314 130.81 280.65 127.984 277.821 131.994C277.821 131.994 274.938 129.787 272.81 133.635C271.84 135.358 272.783 139.717 273.026 141.601C273.645 146.31 274.75 151.181 276.312 155.675C276.636 156.563 278.252 158.635 278.225 159.523C278.01 164.017 277.767 168.538 277.552 173.032C277.444 175.238 276.878 177.902 277.202 180.109C277.363 181.212 277.04 180.97 278.306 181.643C280.596 182.881 283.56 183.392 286.119 183.5C288.382 183.58 290.672 183.311 292.828 182.665C293.986 182.316 295.252 181.724 295.549 180.54C295.683 179.947 295.576 179.355 295.468 178.763C294.66 173.301 293.07 168.026 291.912 162.537L298.324 153.118V153.091C298.432 149.458 298.539 145.826 298.62 142.193C298.701 139.798 298.755 137.403 298.836 135.008C298.916 133.958 299.132 132.693 298.916 131.617Z" fill="#AF8B7F"/>
<path d="M310.259 235.813L295.28 171.552L298.055 171.363V166.869H270.979L272.568 173.005L274.804 172.87L265.752 240.576L278.468 286H334.13L310.259 235.813Z" fill="#8F9A9F"/>
<path d="M398.923 152.284L402.13 142.408L404.446 138.371L400.971 124.594L397.873 126.154V126.074L392.862 125.428L390.033 130.514L388.012 127.984L383.163 128.549L382.301 131.16L380.846 127.473L377.182 129.464L379.364 134.577L379.175 134.631L377.667 147.925L378.475 151.773L379.041 157.989L364.492 219.075L404.393 214.231L397.9 155.406L398.923 152.284Z" fill="#DAB6A5"/>
<path d="M400.998 173.355L373.518 171.632C373.518 171.632 370.447 179.705 369.611 189.931L403.827 188.586C403.046 180.513 400.998 173.355 400.998 173.355Z" fill="#BA7765"/>
<path d="M412.906 224.537C410.643 208.176 408.003 196.551 405.739 188.559L367.429 189.904C365.57 197.035 363.765 205.754 362.929 215.227C350.536 242.675 346.226 278.196 344.07 286H433.516C433.489 286 435.941 258.067 412.906 224.537Z" fill="#AD6F5E"/>
<path d="M375.754 171.767L372.332 189.716L375.134 189.635L377.909 171.901L375.754 171.767Z" fill="#CC9181"/>
<path d="M379.984 172.036L379.418 189.474H382.92L382.57 172.17L379.984 172.036Z" fill="#CC9181"/>
<path d="M385.615 172.386L386.343 189.231L389.495 189.124L388.336 172.574L385.615 172.386Z" fill="#CC9181"/>
<path d="M392.269 172.816L392.996 188.989L396.391 188.855L394.801 172.978L392.269 172.816Z" fill="#CC9181"/>
<path d="M397.118 173.112L399.812 188.586L403.045 188.559L400.082 173.112H397.118Z" fill="#CC9181"/>
<path d="M35.5628 165.174C35.5628 165.174 25.0556 182.934 20.2062 215.227C20.2062 215.227 1.61649 257.744 0 286H86.4824C86.4824 286 82.1987 240.764 71.3951 215.227C71.3951 215.227 71.6645 192.084 65.468 173.247L35.5628 165.174Z" fill="#293A53"/>
</g>
<defs>
<clipPath id="clip0">
<rect width="443" height="286" fill="white"/>
</clipPath>
</defs>
</svg>
