<svg width="11" height="15" viewBox="0 0 11 15" fill="none" xmlns="http://www.w3.org/2000/svg">
<path d="M4.87283 14.6099C4.39887 13.9172 3.7882 13.0422 3.0408 11.9849C2.12934 10.6724 1.52778 9.78825 1.23611 9.33252C0.816844 8.67627 0.534292 8.12939 0.388458 7.69189C0.242625 7.23617 0.169708 6.71663 0.169708 6.1333C0.169708 5.18538 0.406687 4.31038 0.880646 3.5083C1.3546 2.70622 1.99262 2.0682 2.79471 1.59424C3.59679 1.12028 4.47179 0.883301 5.41971 0.883301C6.36762 0.883301 7.24262 1.12028 8.04471 1.59424C8.84679 2.0682 9.48481 2.70622 9.95877 3.5083C10.4327 4.31038 10.6697 5.18538 10.6697 6.1333C10.6697 6.71663 10.5968 7.23617 10.451 7.69189C10.3051 8.12939 10.0226 8.67627 9.6033 9.33252C9.31164 9.78825 8.71007 10.6724 7.79861 11.9849L5.96658 14.6099C5.83898 14.7922 5.65669 14.8833 5.41971 14.8833C5.18273 14.8833 5.00044 14.7922 4.87283 14.6099ZM5.41971 8.3208C6.02127 8.3208 6.53169 8.11117 6.95096 7.69189C7.38846 7.25439 7.60721 6.73486 7.60721 6.1333C7.60721 5.53174 7.38846 5.02132 6.95096 4.60205C6.53169 4.16455 6.02127 3.9458 5.41971 3.9458C4.81815 3.9458 4.29861 4.16455 3.86111 4.60205C3.44184 5.02132 3.23221 5.53174 3.23221 6.1333C3.23221 6.73486 3.44184 7.25439 3.86111 7.69189C4.29861 8.11117 4.81815 8.3208 5.41971 8.3208Z" fill="#F2F4F5"/>
</svg>
