<svg width="13" height="16" viewBox="0 0 13 16" fill="none" xmlns="http://www.w3.org/2000/svg">
<path d="M5.82292 15.6875C5.23611 14.8958 4.48003 13.8958 3.55469 12.6875C2.42622 11.1875 1.68142 10.1771 1.32031 9.65625C0.801215 8.90625 0.451389 8.28125 0.270833 7.78125C0.0902778 7.26042 0 6.66667 0 6C0 4.91667 0.293403 3.91667 0.880208 3C1.46701 2.08333 2.25694 1.35417 3.25 0.8125C4.24306 0.270833 5.32639 0 6.5 0C7.67361 0 8.75694 0.270833 9.75 0.8125C10.7431 1.35417 11.533 2.08333 12.1198 3C12.7066 3.91667 13 4.91667 13 6C13 6.66667 12.9097 7.26042 12.7292 7.78125C12.5486 8.28125 12.1988 8.90625 11.6797 9.65625C11.3186 10.1771 10.5738 11.1875 9.44531 12.6875L7.17708 15.6875C7.0191 15.8958 6.7934 16 6.5 16C6.2066 16 5.9809 15.8958 5.82292 15.6875ZM6.5 8.5C7.24479 8.5 7.87674 8.26042 8.39583 7.78125C8.9375 7.28125 9.20833 6.6875 9.20833 6C9.20833 5.3125 8.9375 4.72917 8.39583 4.25C7.87674 3.75 7.24479 3.5 6.5 3.5C5.75521 3.5 5.11198 3.75 4.57031 4.25C4.05122 4.72917 3.79167 5.3125 3.79167 6C3.79167 6.6875 4.05122 7.28125 4.57031 7.78125C5.11198 8.26042 5.75521 8.5 6.5 8.5Z" fill="white"/>
</svg>
