<svg width="21" height="20" viewBox="0 0 21 20" fill="none" xmlns="http://www.w3.org/2000/svg">
<path d="M10.5 4.80859C9.61198 4.80859 8.78125 5.03776 8.00781 5.49609C7.26302 5.92578 6.66146 6.52734 6.20312 7.30078C5.77344 8.04557 5.55859 8.86198 5.55859 9.75C5.55859 10.638 5.77344 11.4688 6.20312 12.2422C6.66146 12.987 7.26302 13.5885 8.00781 14.0469C8.78125 14.4766 9.61198 14.6914 10.5 14.6914C11.388 14.6914 12.2044 14.4766 12.9492 14.0469C13.7227 13.5885 14.3242 12.987 14.7539 12.2422C15.2122 11.4688 15.4414 10.638 15.4414 9.75C15.4414 8.86198 15.2122 8.04557 14.7539 7.30078C14.3242 6.52734 13.7227 5.92578 12.9492 5.49609C12.2044 5.03776 11.388 4.80859 10.5 4.80859ZM10.5 12.9727C9.61198 12.9727 8.85286 12.6576 8.22266 12.0273C7.59245 11.3971 7.27734 10.638 7.27734 9.75C7.27734 8.86198 7.59245 8.10286 8.22266 7.47266C8.85286 6.84245 9.61198 6.52734 10.5 6.52734C11.388 6.52734 12.1471 6.84245 12.7773 7.47266C13.4076 8.10286 13.7227 8.86198 13.7227 9.75C13.7227 10.638 13.4076 11.3971 12.7773 12.0273C12.1471 12.6576 11.388 12.9727 10.5 12.9727ZM16.8164 4.59375C16.7878 4.90885 16.6589 5.18099 16.4297 5.41016C16.2292 5.63932 15.9714 5.75391 15.6562 5.75391C15.3411 5.75391 15.069 5.63932 14.8398 5.41016C14.6107 5.18099 14.4961 4.90885 14.4961 4.59375C14.4961 4.27865 14.6107 4.00651 14.8398 3.77734C15.069 3.54818 15.3411 3.43359 15.6562 3.43359C15.9714 3.43359 16.2435 3.54818 16.4727 3.77734C16.7018 4.00651 16.8164 4.27865 16.8164 4.59375ZM20.082 5.75391C20.0247 4.92318 19.8958 4.20703 19.6953 3.60547C19.4375 2.88932 19.0365 2.27344 18.4922 1.75781C17.9766 1.21354 17.3607 0.8125 16.6445 0.554688C16.043 0.354167 15.3268 0.239583 14.4961 0.210938C13.694 0.153646 12.362 0.125 10.5 0.125C8.63802 0.125 7.29167 0.153646 6.46094 0.210938C5.65885 0.239583 4.95703 0.354167 4.35547 0.554688C3.63932 0.8125 3.00911 1.21354 2.46484 1.75781C1.94922 2.27344 1.5625 2.88932 1.30469 3.60547C1.10417 4.20703 0.97526 4.92318 0.917969 5.75391C0.889323 6.55599 0.875 7.88802 0.875 9.75C0.875 11.612 0.889323 12.9583 0.917969 13.7891C0.97526 14.5911 1.10417 15.293 1.30469 15.8945C1.5625 16.6107 1.94922 17.2409 2.46484 17.7852C3.00911 18.3008 3.63932 18.6732 4.35547 18.9023C4.95703 19.1315 5.65885 19.2604 6.46094 19.2891C7.29167 19.3464 8.63802 19.375 10.5 19.375C12.362 19.375 13.694 19.3464 14.4961 19.2891C15.3268 19.2604 16.043 19.1458 16.6445 18.9453C17.3607 18.6875 17.9766 18.3008 18.4922 17.7852C19.0365 17.2409 19.4375 16.6107 19.6953 15.8945C19.8958 15.293 20.0104 14.5911 20.0391 13.7891C20.0964 12.9583 20.125 11.612 20.125 9.75C20.125 7.88802 20.1107 6.55599 20.082 5.75391ZM18.0195 15.4219C17.6758 16.2812 17.0599 16.8971 16.1719 17.2695C15.7135 17.4414 14.9401 17.556 13.8516 17.6133C13.25 17.6419 12.362 17.6562 11.1875 17.6562H9.8125C8.66667 17.6562 7.77865 17.6419 7.14844 17.6133C6.08854 17.556 5.3151 17.4414 4.82812 17.2695C3.96875 16.9258 3.35286 16.3099 2.98047 15.4219C2.80859 14.9349 2.69401 14.1615 2.63672 13.1016C2.60807 12.4714 2.59375 11.5833 2.59375 10.4375V9.0625C2.59375 7.91667 2.60807 7.02865 2.63672 6.39844C2.69401 5.3099 2.80859 4.53646 2.98047 4.07812C3.32422 3.1901 3.9401 2.57422 4.82812 2.23047C5.3151 2.05859 6.08854 1.94401 7.14844 1.88672C7.77865 1.85807 8.66667 1.84375 9.8125 1.84375H11.1875C12.3333 1.84375 13.2214 1.85807 13.8516 1.88672C14.9401 1.94401 15.7135 2.05859 16.1719 2.23047C17.0599 2.57422 17.6758 3.1901 18.0195 4.07812C18.1914 4.53646 18.306 5.3099 18.3633 6.39844C18.3919 7 18.4062 7.88802 18.4062 9.0625V10.4375C18.4062 11.5833 18.3919 12.4714 18.3633 13.1016C18.306 14.1615 18.1914 14.9349 18.0195 15.4219Z" fill="#F2F4F5"/>
</svg>
