<svg width="18" height="39" viewBox="0 0 18 39" fill="none" xmlns="http://www.w3.org/2000/svg">
<path d="M17.4114 6.07689C17.1172 5.9582 16.7984 5.98194 16.5531 6.1481C16.5041 6.07689 16.4796 6.05315 16.4796 6.02941C16.4305 5.91073 16.5041 5.5072 16.5531 5.29356C16.6512 4.6764 16.7984 3.89308 16.3079 3.25218C15.8174 2.61128 15.0082 2.49259 14.3706 2.39764C14.1499 2.37391 13.733 2.30269 13.6594 2.23148C13.5613 2.16027 13.3896 1.80422 13.2916 1.61432C12.9973 1.04463 12.6294 0.332517 11.8202 0.0714093C11.0354 -0.165961 10.3242 0.190095 9.76022 0.474939C9.53951 0.593625 9.17166 0.759784 9.04904 0.759784C8.92643 0.759784 8.55858 0.593625 8.33787 0.474939C7.77384 0.190095 7.03814 -0.165961 6.27793 0.0714093C5.46866 0.332517 5.10081 1.04463 4.80654 1.61432C4.70844 1.80422 4.53678 2.16027 4.43869 2.20775C4.3406 2.27896 3.9237 2.32643 3.72752 2.37391C3.01635 2.46885 2.20708 2.58754 1.71662 3.25218C1.22616 3.89308 1.37329 4.6764 1.47139 5.29356C1.49591 5.5072 1.56948 5.91073 1.54496 6.02941C1.54496 6.05315 1.52043 6.07689 1.47139 6.1481C1.22616 5.98194 0.882832 5.9582 0.613077 6.07689C0.269753 6.21931 0.0245209 6.55163 0.0245209 6.93142V36.3179C0.0245209 37.8134 1.2752 39.0239 2.82016 39.0239H15.2044C16.7493 39.0239 18 37.8134 18 36.3179V6.90769C18 6.55163 17.7793 6.21931 17.4114 6.07689ZM13.2425 21.8146C12.9973 21.7434 12.752 21.7671 12.5313 21.8858C12.188 22.0519 11.9918 22.4317 12.0409 22.7878H4.04632C3.53133 22.7878 3.08992 23.1913 3.08992 23.7135C3.08992 24.212 3.50681 24.6393 4.04632 24.6393H12.8992C15.0327 28.912 16.1117 32.8523 16.1117 36.3179C16.1117 36.5553 16.0136 36.7689 15.842 36.9351C15.6703 37.1012 15.4496 37.1962 15.2044 37.1962H2.79564C2.30517 37.1962 1.88828 36.7927 1.88828 36.3179V9.25766C2.55041 9.96977 3.38419 10.8955 4.3406 12.0112H4.04632C3.53133 12.0112 3.08992 12.4147 3.08992 12.9369C3.08992 13.4591 3.50681 13.8626 4.04632 13.8626H5.86103C6.32697 14.4561 6.79291 15.0495 7.23433 15.6192H4.04632C3.53133 15.6192 3.08992 16.0227 3.08992 16.5449C3.08992 17.0672 3.50681 17.4707 4.04632 17.4707H8.55858C8.97548 18.0641 9.36784 18.6575 9.76022 19.2272H4.04632C3.53133 19.2272 3.08992 19.6308 3.08992 20.153C3.08992 20.6514 3.50681 21.0787 4.04632 21.0787H10.9128L10.9619 21.1499C11.0845 21.3636 11.3052 21.506 11.5504 21.5772C11.7956 21.6484 12.0409 21.6009 12.2616 21.4822C12.4823 21.3636 12.6294 21.1499 12.703 20.9126C12.7766 20.6752 12.7275 20.4378 12.6049 20.2242C11.8692 18.9899 11.0354 17.7555 10.1526 16.4975C10.7902 15.6429 11.4523 14.7647 12.139 13.8864H13.9537C14.4687 13.8864 14.9101 13.4829 14.9101 12.9606C14.9101 12.4622 14.4932 12.0349 13.9537 12.0349H13.6594C14.5913 10.943 15.4251 9.9935 16.1117 9.28139V27.2504C15.4986 25.66 14.7139 23.9984 13.8065 22.313C13.6839 22.0519 13.4877 21.8858 13.2425 21.8146ZM14.6648 6.57537C14.7875 6.90769 14.9836 7.19253 15.2289 7.45364C15.1063 7.57232 15.0082 7.69101 14.8856 7.83343L14.0763 6.29052C13.8556 5.88699 13.5123 5.53094 13.0954 5.3173C12.2861 3.89308 10.6921 2.99107 9.02452 2.99107C7.82289 2.99107 6.69482 3.41834 5.83651 4.2254C4.95368 4.10671 4.07084 4.29661 3.33515 4.70014C3.31062 4.55772 3.31062 4.41529 3.31062 4.34408C3.45776 4.29661 3.80109 4.2254 3.99727 4.20166C4.51226 4.13045 5.07629 4.0355 5.54223 3.70318C6.00817 3.37086 6.2534 2.87238 6.49863 2.44512C6.5722 2.27896 6.74387 1.97037 6.84196 1.85169C6.9891 1.89916 7.3079 2.04159 7.45504 2.1128C7.89645 2.32643 8.43597 2.61128 9.04904 2.61128C9.66212 2.61128 10.2016 2.35017 10.6431 2.1128C10.7902 2.04159 11.109 1.87543 11.2561 1.85169C11.3542 1.97037 11.5259 2.27896 11.5995 2.44512C11.8202 2.89612 12.0899 3.3946 12.5559 3.70318C13.0218 4.0355 13.6104 4.13045 14.1008 4.20166C14.2725 4.2254 14.6403 4.27287 14.7875 4.34408C14.7875 4.4865 14.7384 4.84256 14.7139 5.00872C14.5668 5.48346 14.4932 6.05315 14.6648 6.57537ZM10.545 8.99655C10.2997 8.97281 10.0545 9.04402 9.85831 9.18645C9.73569 9.28139 9.66212 9.37634 9.58855 9.49503L9.44141 9.25766C9.36785 9.16271 9.3188 9.04402 9.22071 8.94907C9.29428 8.66423 9.3188 8.40312 9.3188 8.11828C9.3188 6.93142 8.75477 5.81578 7.82289 5.07993C8.19073 4.91377 8.5831 4.84256 8.97547 4.84256C9.6376 4.84256 10.2507 5.07993 10.7657 5.48346C10.2262 5.83952 9.88283 6.38547 9.80926 7.02637L9.76022 7.4299C9.71117 7.92838 10.079 8.37938 10.594 8.45059C11.109 8.49807 11.5749 8.14201 11.6485 7.64354L11.6975 7.24C11.7221 7.09758 11.7956 7.00263 11.9428 6.95516C12.1144 6.90769 12.2861 6.9789 12.3597 7.12132L13.5123 9.32887C12.703 10.2309 11.9183 11.1566 11.158 12.1061L11.4033 10.041C11.4523 9.51876 11.0599 9.04402 10.545 8.99655ZM6.64577 9.80361C7.08719 9.61371 7.57765 9.77987 7.79836 10.1834L9.88283 13.7202C9.58855 14.1 9.29428 14.4798 9 14.8833C7.87193 13.3642 6.6703 11.8687 5.39509 10.3733L6.64577 9.80361ZM5.27248 6.02941C6.37602 6.02941 7.3079 6.86021 7.40599 7.90464C6.89101 7.83343 6.32697 7.90464 5.83651 8.11828L4.07084 8.87786C3.75204 8.52181 3.43324 8.18949 3.11444 7.83343C3.2861 6.81274 4.19346 6.02941 5.27248 6.02941Z" fill="#1E282C"/>
<path d="M13.9537 33.5642H4.04632C3.53133 33.5642 3.08991 33.9677 3.08991 34.49C3.08991 34.9884 3.50681 35.4157 4.04632 35.4157H13.9537C14.4687 35.4157 14.9101 35.0122 14.9101 34.49C14.9101 33.9915 14.4687 33.5642 13.9537 33.5642Z" fill="#1E282C"/>
<path d="M3.08991 30.9056C3.08991 31.4041 3.50681 31.8314 4.04632 31.8314H13.9537C14.4687 31.8314 14.9101 31.4278 14.9101 30.9056C14.9101 30.4071 14.4932 29.9799 13.9537 29.9799H4.04632C3.53133 29.9799 3.08991 30.3834 3.08991 30.9056Z" fill="#1E282C"/>
<path d="M7.74932 28.2234H12.4578C12.9728 28.2234 13.4142 27.8198 13.4142 27.2976C13.4142 26.7754 12.9973 26.3719 12.4578 26.3719H7.74932C7.23433 26.3719 6.79292 26.7754 6.79292 27.2976C6.79292 27.8198 7.23433 28.2234 7.74932 28.2234Z" fill="#1E282C"/>
<path d="M4.04632 28.2234H5.297C5.81198 28.2234 6.2534 27.8198 6.2534 27.2976C6.2534 26.7754 5.83651 26.3719 5.297 26.3719H4.04632C3.53133 26.3719 3.08991 26.7754 3.08991 27.2976C3.08991 27.8198 3.53133 28.2234 4.04632 28.2234Z" fill="#1E282C"/>
<path d="M13.9537 21.0311C14.4687 21.0311 14.9101 20.6275 14.9101 20.1053C14.9101 19.6068 14.4932 19.1796 13.9537 19.1796H13.6349C13.1199 19.1796 12.6785 19.5831 12.6785 20.1053C12.6785 20.6038 13.0954 21.0311 13.6349 21.0311H13.9537Z" fill="#1E282C"/>
<path d="M14.9101 16.4972C14.9101 15.9987 14.4932 15.5715 13.9537 15.5715H12.0899C11.5749 15.5715 11.1335 15.975 11.1335 16.4972C11.1335 16.9957 11.5504 17.423 12.0899 17.423H13.9537C14.4687 17.423 14.9101 17.0194 14.9101 16.4972Z" fill="#1E282C"/>
</svg>
