<svg width="60" height="15" viewBox="0 0 60 15" fill="none" xmlns="http://www.w3.org/2000/svg">
<path d="M13.6594 0.018018C15.3442 0.018018 16.7029 0.522523 17.7355 1.51351C18.7681 2.52252 19.2935 4.01802 19.2935 6.03604V13.7838H14.5109V6.82883C14.5109 4.97297 13.7681 4.05406 12.2645 4.05406C11.4493 4.05406 10.779 4.32433 10.2717 4.84685C9.78259 5.38739 9.54709 6.18018 9.54709 7.24325V13.8018H4.78259V0.234234H9.32969V1.71171C9.87317 1.15315 10.5072 0.738739 11.25 0.468469C11.9927 0.162162 12.7898 0.018018 13.6594 0.018018ZM28.0797 14.018C26.6123 14.018 25.308 13.7117 24.1304 13.1171C22.9529 12.5225 22.029 11.6757 21.3587 10.6126C20.7065 9.54955 20.3804 8.34235 20.3804 6.99099C20.3804 5.65766 20.7065 4.45045 21.3587 3.38739C22.029 2.32433 22.9348 1.4955 24.0942 0.918919C25.2717 0.324324 26.5942 0.018018 28.0616 0.018018C29.529 0.018018 30.8695 0.324324 32.029 0.918919C33.2065 1.4955 34.1123 2.32433 34.7645 3.38739C35.4166 4.43243 35.7427 5.63964 35.7427 6.99099C35.7427 8.34235 35.4166 9.54955 34.7645 10.6126C34.1123 11.6757 33.1884 12.5225 32.029 13.1171C30.8695 13.7297 29.5471 14.018 28.0797 14.018ZM28.0797 10.2523C28.913 10.2523 29.6014 9.96397 30.1449 9.40541C30.6884 8.82883 30.942 8.01802 30.942 7.00901C30.942 6 30.6703 5.22523 30.1449 4.64865C29.6014 4.09009 28.913 3.8018 28.0797 3.8018C27.2464 3.8018 26.558 4.09009 26.0145 4.64865C25.471 5.20721 25.2174 6 25.2174 7.00901C25.2174 8.01802 25.4891 8.82883 26.0145 9.40541C26.558 9.96397 27.2282 10.2523 28.0797 10.2523ZM54.4927 0.018018C56.1775 0.018018 57.5 0.522523 58.4964 1.51351C59.5108 2.52252 60 4.01802 60 6.03604V13.7838H55.2174V6.82883C55.2174 5.87388 55.0362 5.17117 54.6558 4.72072C54.3116 4.27027 53.8043 4.05406 53.1522 4.05406C52.4275 4.05406 51.8478 4.30631 51.413 4.81081C50.9782 5.31532 50.7609 6.07207 50.7609 7.08108V13.8018H45.9782V6.82883C45.9782 4.97297 45.2898 4.05406 43.913 4.05406C43.1703 4.05406 42.5906 4.30631 42.1558 4.81081C41.721 5.31532 41.5036 6.07207 41.5036 7.08108V13.8018H36.721V0.234234H41.2681V1.65766C41.7753 1.0991 42.3732 0.702703 43.0616 0.432433C43.7681 0.144144 44.529 0 45.3442 0C46.3043 0 47.1558 0.18018 47.9166 0.522523C48.6775 0.864865 49.2753 1.40541 49.7464 2.12613C50.2898 1.44144 50.9601 0.918919 51.7753 0.558559C52.6087 0.198198 53.5145 0.018018 54.4927 0.018018Z" fill="black"/>
<path d="M4.78261 0.234253H0V13.7838H4.78261V0.234253Z" fill="#FC6621"/>
</svg>
