<svg width="60" height="14" viewBox="0 0 60 14" fill="none" xmlns="http://www.w3.org/2000/svg">
<path d="M13.6594 0.0179949C15.3442 0.0179949 16.7029 0.521851 17.7355 1.51157C18.7681 2.51928 19.2935 4.01285 19.2935 6.02828V13.7661H14.5109V6.82005C14.5109 4.96658 13.7681 4.04884 12.2645 4.04884C11.4493 4.04884 10.779 4.31877 10.2717 4.84062C9.78259 5.38046 9.54709 6.17224 9.54709 7.23393V13.7841H4.78259V0.233933H9.32969V1.70951C9.87317 1.15167 10.5072 0.737789 11.25 0.467866C11.9927 0.161954 12.7898 0.0179949 13.6594 0.0179949ZM28.0797 14C26.6123 14 25.308 13.6941 24.1304 13.1003C22.9529 12.5064 22.029 11.6607 21.3587 10.599C20.7065 9.53728 20.3804 8.33162 20.3804 6.98201C20.3804 5.65039 20.7065 4.44473 21.3587 3.38303C22.029 2.32134 22.9348 1.49357 24.0942 0.917738C25.2717 0.323907 26.5942 0.0179949 28.0616 0.0179949C29.529 0.0179949 30.8695 0.323907 32.029 0.917738C33.2065 1.49357 34.1123 2.32134 34.7645 3.38303C35.4166 4.42674 35.7427 5.63239 35.7427 6.98201C35.7427 8.33162 35.4166 9.53728 34.7645 10.599C34.1123 11.6607 33.1884 12.5064 32.029 13.1003C30.8695 13.7121 29.5471 14 28.0797 14ZM28.0797 10.2391C28.913 10.2391 29.6014 9.95116 30.1449 9.39332C30.6884 8.81748 30.942 8.00771 30.942 7C30.942 5.99229 30.6703 5.21851 30.1449 4.64267C29.6014 4.08483 28.913 3.79692 28.0797 3.79692C27.2464 3.79692 26.558 4.08483 26.0145 4.64267C25.471 5.20051 25.2174 5.99229 25.2174 7C25.2174 8.00771 25.4891 8.81748 26.0145 9.39332C26.558 9.95116 27.2282 10.2391 28.0797 10.2391ZM54.4927 0.0179949C56.1775 0.0179949 57.5 0.521851 58.4964 1.51157C59.5108 2.51928 60 4.01285 60 6.02828V13.7661H55.2174V6.82005C55.2174 5.86632 55.0362 5.16453 54.6558 4.71465C54.3116 4.26478 53.8043 4.04884 53.1522 4.04884C52.4275 4.04884 51.8478 4.30077 51.413 4.80463C50.9782 5.30848 50.7609 6.06427 50.7609 7.07198V13.7841H45.9782V6.82005C45.9782 4.96658 45.2898 4.04884 43.913 4.04884C43.1703 4.04884 42.5906 4.30077 42.1558 4.80463C41.721 5.30848 41.5036 6.06427 41.5036 7.07198V13.7841H36.721V0.233933H41.2681V1.65553C41.7753 1.09769 42.3732 0.7018 43.0616 0.431877C43.7681 0.143959 44.529 0 45.3442 0C46.3043 0 47.1558 0.179949 47.9166 0.521851C48.6775 0.863753 49.2753 1.4036 49.7464 2.12339C50.2898 1.43959 50.9601 0.917738 51.7753 0.557841C52.6087 0.197943 53.5145 0.0179949 54.4927 0.0179949Z" fill="#F2F4F5"/>
<path d="M4.78261 0.234131H0V13.7663H4.78261V0.234131Z" fill="#FC6621"/>
</svg>
