<svg width="115" height="115" viewBox="0 0 115 115" fill="none" xmlns="http://www.w3.org/2000/svg">
<path d="M83.6364 44.4318C86.5234 44.4318 88.8638 42.0914 88.8638 39.2044C88.8638 36.3175 86.5234 33.9771 83.6364 33.9771C80.7495 33.9771 78.4091 36.3175 78.4091 39.2044C78.4091 42.0914 80.7495 44.4318 83.6364 44.4318Z" fill="black"/>
<path d="M31.3636 44.4318C34.2505 44.4318 36.5909 42.0914 36.5909 39.2044C36.5909 36.3175 34.2505 33.9771 31.3636 33.9771C28.4766 33.9771 26.1362 36.3175 26.1362 39.2044C26.1362 42.0914 28.4766 44.4318 31.3636 44.4318Z" fill="black"/>
<path d="M57.5 23.5227C48.875 23.5227 41.8182 30.5794 41.8182 39.2044C41.8182 47.8294 48.875 54.8862 57.5 54.8862C66.125 54.8862 73.1818 47.8294 73.1818 39.2044C73.1818 30.5794 66.125 23.5227 57.5 23.5227ZM57.5 49.6591C51.75 49.6591 47.0456 44.9547 47.0456 39.2047C47.0456 33.4544 51.75 28.75 57.5 28.75C63.25 28.75 67.9545 33.4544 67.9545 39.2044C67.9545 44.9544 63.25 49.6591 57.5 49.6591Z" fill="black"/>
<path d="M107.159 2.61356H57.5H7.84089C3.39767 2.61356 0 6.01145 0 10.4544V67.9544C0 72.3977 3.39767 75.7953 7.84089 75.7953H41.8182C43.3864 75.7953 44.4318 74.7498 44.4318 73.1818C44.4318 71.6138 43.3862 70.5682 41.8182 70.5682H7.84089C6.27267 70.5682 5.22733 69.5227 5.22733 67.9547V10.4547C5.22733 8.88645 6.27289 7.84111 7.84089 7.84111H57.5H107.159C108.727 7.84111 109.773 8.88667 109.773 10.4547V52.2729C109.773 53.8411 110.818 54.8864 112.386 54.8864C113.954 54.8864 115 53.8409 115 52.2727V10.4544C115 6.01145 111.602 2.61356 107.159 2.61356Z" fill="black"/>
<path d="M101.671 18.2956C100.102 18.2956 99.057 17.25 99.057 15.682C99.057 14.114 98.0114 13.0685 96.4435 13.0685H18.2956C16.7273 13.0685 15.682 14.114 15.682 15.682C15.682 17.25 14.6364 18.2956 13.0684 18.2956C11.5005 18.2956 10.4549 19.3411 10.4549 20.9091V57.5C10.4549 59.0682 11.5005 60.1136 13.0684 60.1136C14.6364 60.1136 15.682 61.1591 15.682 62.7271C15.682 64.2953 16.7276 65.3407 18.2956 65.3407H44.432C46.0002 65.3407 47.0456 64.2951 47.0456 62.7271C47.0456 61.1589 46 60.1136 44.432 60.1136H20.3864C19.6023 57.7612 17.7729 56.193 15.682 55.4091V23C18.0343 22.2159 19.6026 20.3865 20.3864 18.2956H94.3523C95.1365 20.6479 96.9659 22.2161 99.0568 23V44.4318C99.0568 46 100.102 47.0453 101.67 47.0453C103.238 47.0453 104.284 45.9998 104.284 44.4318V20.9091C104.284 19.3409 103.239 18.2956 101.671 18.2956Z" fill="black"/>
<path d="M91.4773 49.6591C88.3409 49.6591 85.2047 50.4432 82.5909 51.75C81.2841 52.2727 80.7614 53.8409 81.2841 55.1477C81.8068 56.4545 83.375 56.9771 84.6818 56.4545C86.7727 55.4089 89.125 54.8862 91.4773 54.8862C100.102 54.8862 107.159 61.943 107.159 70.568C107.159 73.7045 106.114 76.8407 104.284 79.4545C103.5 80.7612 103.761 82.3295 104.807 83.1136C105.329 83.375 105.852 83.6362 106.375 83.6362C107.159 83.6362 107.943 83.3748 108.466 82.5907C110.818 79.193 112.125 75.0112 112.125 70.568C112.386 59.0682 102.977 49.6591 91.4773 49.6591Z" fill="black"/>
<path d="M91.4773 62.7274C89.9091 62.7274 88.8638 63.7729 88.8638 65.3409V67.9545C88.8638 69.5227 89.9093 70.568 91.4773 70.568C93.0456 70.568 94.0909 69.5225 94.0909 67.9545V65.3409C94.0909 63.7727 93.0456 62.7274 91.4773 62.7274Z" fill="black"/>
<path d="M82.8523 61.1591C78.9318 57.2386 73.7047 54.8864 67.9547 54.8864C56.4547 54.8864 47.0456 64.2956 47.0456 75.7956C47.0456 81.5456 49.3979 86.7729 53.3182 90.6932C53.8409 91.2159 54.3638 91.4773 55.1477 91.4773C55.9316 91.4773 56.4544 91.2159 56.9771 90.6932C58.0227 89.6477 58.0227 88.0797 56.9771 87.0341C53.8407 83.8977 52.2727 79.9773 52.2727 75.7956C52.2727 67.1706 59.3294 60.1138 67.9544 60.1138C72.1362 60.1138 76.318 61.682 79.193 64.8182C80.2386 65.8638 81.8066 65.8638 82.8521 64.8182C83.8977 63.7727 83.8977 62.2044 82.8523 61.1591Z" fill="black"/>
<path d="M81.0227 70.5682C69.5227 70.5682 60.1136 79.9773 60.1136 91.4773C60.1136 102.977 69.5227 112.386 81.0227 112.386C92.5227 112.386 101.932 102.977 101.932 91.4773C101.932 79.9773 92.5227 70.5682 81.0227 70.5682ZM81.0227 107.159C72.3977 107.159 65.3409 100.102 65.3409 91.4773C65.3409 82.8523 72.3977 75.7955 81.0227 75.7955C89.6477 75.7955 96.7045 82.8523 96.7045 91.4773C96.7045 100.102 89.6477 107.159 81.0227 107.159Z" fill="black"/>
<path d="M81.0227 83.6364C79.4544 83.6364 78.4091 84.682 78.4091 86.25V96.7044C78.4091 98.2727 79.4547 99.318 81.0227 99.318C82.5907 99.318 83.6362 98.2724 83.6362 96.7044V86.25C83.6364 84.6818 82.5909 83.6364 81.0227 83.6364Z" fill="black"/>
<path d="M67.9544 73.1818C69.3979 73.1818 70.568 72.0117 70.568 70.5682C70.568 69.1248 69.3979 67.9547 67.9544 67.9547C66.511 67.9547 65.3409 69.1248 65.3409 70.5682C65.3409 72.0117 66.511 73.1818 67.9544 73.1818Z" fill="black"/>
</svg>
