<svg width="33" height="39" viewBox="0 0 33 39" fill="none" xmlns="http://www.w3.org/2000/svg">
<path d="M32.1845 0.709501C31.6786 0.218249 30.9758 -0.0273777 30.2731 -8.59199e-05C24.4827 0.24554 18.7484 1.74659 13.6326 4.3666C8.51674 6.98662 3.99118 10.7529 0.505663 15.256C0.0840279 15.8019 -0.0846263 16.5115 0.0278099 17.1938C0.140246 17.8761 0.533772 18.4765 1.12406 18.8586L5.95882 22.0517V23.4709C5.95882 24.044 6.43667 24.508 7.02696 24.508C7.61725 24.508 8.0951 24.044 8.0951 23.4709V21.5059C8.0951 21.1784 7.92645 20.8509 7.64536 20.6598L6.35234 19.7865C6.97074 18.9677 7.64536 18.149 8.34808 17.3848C9.16324 16.5115 10.0065 15.6927 10.8779 14.9285C11.7493 14.1644 12.6769 13.4821 13.5764 12.8544C14.5321 12.1994 15.544 11.5716 16.6121 10.9985C17.6241 10.4527 18.7203 9.93413 19.8447 9.49747C19.8728 9.49747 19.8728 9.49747 19.9009 9.47017C19.929 9.93414 20.0695 10.3981 20.2663 10.8348C20.7442 11.8991 21.6155 12.7179 22.7399 13.1546C23.8362 13.5912 25.073 13.5639 26.1692 13.1C27.2655 12.636 28.1087 11.79 28.5585 10.6983C29.0082 9.60663 28.9801 8.43309 28.5023 7.3687C28.5023 7.34141 28.4741 7.34141 28.4741 7.31412C29.2893 7.23225 30.1045 7.17766 30.9196 7.15037V25.5723C29.6828 26.0636 28.699 27.0734 28.2774 28.3015C27.7995 29.748 28.1649 31.3855 29.205 32.5045C29.6828 32.9957 30.245 33.4051 30.8915 33.6507V35.9705L27.6871 33.8418C27.3498 33.6234 26.9563 33.5961 26.5908 33.7872C26.2535 33.9782 26.0287 34.3057 26.0287 34.6878V36.4345C26.0287 36.6528 25.8319 36.8439 25.607 36.8439C25.3822 36.8439 25.1854 36.6528 25.1854 36.4345V32.7228C25.1854 32.6682 25.1854 32.5863 25.1573 32.5318C26.2535 31.2763 26.5346 29.5024 25.86 28.0013C25.3822 26.9369 24.5108 26.1182 23.3864 25.6815C22.2621 25.2448 21.0534 25.2721 19.9571 25.7361C19.1138 26.0909 18.4111 26.664 17.9333 27.4282L17.1462 26.9642C16.8089 26.7459 16.4154 26.7186 16.05 26.9096C15.7126 27.1007 15.4878 27.4282 15.4878 27.8103V30.7032C15.4878 30.9215 15.291 31.1126 15.0661 31.1126C14.8413 31.1126 14.6445 30.9215 14.6445 30.7032V25.8453C14.6445 25.5178 14.4759 25.1903 14.1948 24.9992L10.6249 22.6248C10.2876 22.4065 9.89408 22.3792 9.52866 22.5702C9.19135 22.7613 8.96648 23.0888 8.96648 23.4709V33.5143C8.96648 33.7326 8.76972 33.9236 8.54485 33.9236C8.31997 33.9236 8.12321 33.7326 8.12321 33.5143V29.4751C8.12321 28.9019 7.64536 28.438 7.05507 28.438C6.46478 28.438 5.98692 28.9019 5.98692 29.4751V33.5143C5.98692 34.8789 7.13939 35.9705 8.51674 35.9705C9.89408 35.9705 11.0465 34.8516 11.0465 33.5143V25.4086L12.5082 26.3638V30.6759C12.5082 32.0405 13.6607 33.1322 15.038 33.1322C16.4154 33.1322 17.5678 32.0132 17.5678 30.6759V29.748L23.021 33.3505V36.5164C23.021 37.881 24.1735 38.9726 25.5508 38.9726C26.8719 38.9726 27.9682 37.9628 28.0806 36.7074L31.2851 38.8362C31.4537 38.9453 31.6505 38.9999 31.8753 38.9999C32.044 38.9999 32.2126 38.9726 32.3813 38.8908C32.7186 38.6997 32.9435 38.3722 32.9435 37.9901V2.53805C32.9997 1.82847 32.7186 1.17346 32.1845 0.709501ZM30.3293 28.8201C30.4699 28.5199 30.6385 28.2197 30.8915 28.0013V31.3309C30.6667 31.1126 30.4699 30.867 30.3575 30.5667C30.1045 30.0209 30.0764 29.3932 30.3293 28.8201ZM30.8915 2.53805V5.15807C29.7391 5.18536 28.5866 5.29453 27.4341 5.43099C27.0687 5.48557 26.7314 5.51286 26.366 5.59474C24.4827 5.89495 22.5994 6.35891 20.8004 6.95933C19.5917 7.3687 18.383 7.85996 17.0619 8.48767C15.8532 9.0608 14.6445 9.7158 13.492 10.4527C12.3677 11.1623 11.2714 11.9537 10.2595 12.7725C9.24757 13.5912 8.26376 14.4919 7.30805 15.4744C6.43667 16.375 5.56529 17.3848 4.75013 18.4492C4.69391 18.5038 4.6658 18.5583 4.60958 18.6129L2.36086 17.1119C2.24842 17.03 2.1641 16.9208 2.1641 16.7844C2.13599 16.6479 2.1641 16.5115 2.24842 16.4023C5.48096 12.2266 9.78164 8.65142 14.6164 6.19516C19.4511 3.7116 24.9043 2.29243 30.3856 2.07409C30.5261 2.07409 30.6385 2.12868 30.7229 2.21055C30.8353 2.26513 30.8915 2.40159 30.8915 2.53805ZM22.0091 8.7333C23.1334 8.3785 24.2578 8.07829 25.3822 7.85996C25.6632 7.80537 25.9162 7.75079 26.1973 7.69621C26.3379 7.85996 26.4503 8.051 26.5346 8.24204C26.7876 8.81517 26.7876 9.44288 26.5627 10.016C26.3379 10.5891 25.8881 11.0258 25.2978 11.2714C24.7075 11.5171 24.061 11.5171 23.4707 11.2987C22.8805 11.0804 22.4307 10.6437 22.1777 10.0706C21.981 9.63393 21.9247 9.19726 22.0091 8.7333ZM23.6113 31.2218L19.676 28.629C19.929 28.1924 20.3225 27.8649 20.8004 27.6738C22.0091 27.1826 23.4145 27.7011 23.9205 28.8747C24.2859 29.6661 24.1454 30.5667 23.6113 31.2218Z" fill="#1E282C"/>
<path d="M12.9583 22.7341C13.4923 22.9524 14.0545 23.0343 14.6167 23.0343C15.2351 23.0343 15.8254 22.9251 16.3876 22.6795C18.6644 21.7243 19.7044 19.1588 18.7487 16.9482C18.2709 15.8838 17.3995 15.0651 16.2751 14.6284C15.1508 14.1917 13.9421 14.219 12.8458 14.683C11.7496 15.1469 10.9063 15.993 10.4566 17.0847C10.0068 18.1763 10.0349 19.3499 10.5128 20.4143C10.9625 21.4787 11.8339 22.2974 12.9583 22.7341ZM15.4881 16.5388C16.0784 16.7572 16.5281 17.1938 16.7811 17.767C17.0341 18.3401 17.0341 18.9678 16.8092 19.5409C16.5843 20.1141 16.1346 20.578 15.5443 20.7964C14.954 21.042 14.3075 21.042 13.7172 20.8236C13.1269 20.6053 12.6772 20.1686 12.4242 19.5955C12.1712 19.0224 12.1712 18.3947 12.3961 17.8215C12.621 17.2484 13.0707 16.8117 13.661 16.5661C13.9702 16.4297 14.2794 16.3751 14.5886 16.3751C14.9259 16.3751 15.207 16.4297 15.4881 16.5388Z" fill="#1E282C"/>
<path d="M24.4267 24.2625C24.9608 24.4808 25.523 24.5627 26.0852 24.5627C26.7036 24.5627 27.2939 24.4535 27.856 24.2079C28.9523 23.7439 29.7956 22.8979 30.2453 21.8062C30.6951 20.7145 30.6669 19.541 30.1891 18.4766C29.7112 17.4122 28.8399 16.5935 27.7155 16.1568C26.5911 15.7201 25.3825 15.7474 24.2862 16.2114C23.1899 16.6753 22.3467 17.5214 21.8969 18.613C21.4472 19.7047 21.4753 20.8783 21.9531 21.9427C22.431 23.007 23.3024 23.8531 24.4267 24.2625ZM23.8646 19.3772C24.0894 18.8041 24.5392 18.3674 25.1295 18.1218C25.4387 17.9853 25.7479 17.9308 26.0571 17.9308C26.3663 17.9308 26.6474 17.9853 26.9284 18.0945C27.5187 18.3128 27.9685 18.7495 28.2215 19.3226C28.4744 19.8958 28.4744 20.5235 28.2496 21.0966C28.0247 21.6697 27.575 22.1064 26.9847 22.352C26.3944 22.5977 25.7479 22.5977 25.1576 22.3793C24.5673 22.161 24.1175 21.7243 23.8646 21.1512C23.6397 20.5781 23.6397 19.9503 23.8646 19.3772Z" fill="#1E282C"/>
<path d="M7.02726 27.5101C7.477 27.5101 7.87053 27.2372 8.01108 26.8278C8.15162 26.4185 8.01108 25.9545 7.64566 25.6816C7.30835 25.4359 6.8305 25.4087 6.46508 25.627C6.07155 25.8453 5.87479 26.282 5.98722 26.7187C6.09966 27.1553 6.54941 27.5101 7.02726 27.5101Z" fill="#1E282C"/>
</svg>
