<svg width="35" height="35" viewBox="0 0 35 35" fill="none" xmlns="http://www.w3.org/2000/svg">
<path fill-rule="evenodd" clip-rule="evenodd" d="M2 4.25146C2 3.00801 3.00801 2 4.25146 2H30.2631C31.5066 2 32.5146 3.00801 32.5146 4.25146V23.7602C32.5146 25.0037 31.5066 26.0117 30.2631 26.0117H17.3984H17.1116L16.8684 26.1637L8.50292 31.3921V27.0117V26.0117H7.50292H4.25146C3.00801 26.0117 2 25.0037 2 23.7602V4.25146ZM4.25146 0C1.90344 0 0 1.90344 0 4.25146V23.7602C0 26.1082 1.90344 28.0117 4.25146 28.0117H6.50292V33.1964V35.0006L8.03292 34.0444L17.6852 28.0117H30.2631C32.6112 28.0117 34.5146 26.1082 34.5146 23.7602V4.25146C34.5146 1.90344 32.6112 0 30.2631 0H4.25146ZM9.12849 17.1093V15.6313H20.5086V17.1093H9.12849ZM9.12849 9.12837V10.6063H23.7601V9.12837H9.12849Z" fill="#FC6621"/>
</svg>
