<svg width="34" height="34" viewBox="0 0 34 34" fill="none" xmlns="http://www.w3.org/2000/svg">
<path d="M17.5432 5.1073C11.3246 5.1073 6.28333 10.1485 6.28333 16.3672C6.28333 22.5859 11.3246 27.6271 17.5432 27.6271C23.7619 27.6271 28.8031 22.5859 28.8031 16.3672C28.8031 10.1485 23.7619 5.1073 17.5432 5.1073ZM17.5432 24.911C12.8322 24.911 8.99947 21.0783 8.99947 16.3673C8.99947 11.6563 12.8322 7.82358 17.5432 7.82358C22.2542 7.82358 26.0869 11.6563 26.0869 16.3673C26.0869 21.0783 22.2542 24.911 17.5432 24.911Z" fill="#1E282C"/>
<path d="M17.5432 10.1136C14.095 10.1136 11.2897 12.9189 11.2897 16.3671C11.2897 19.8153 14.095 22.6206 17.5432 22.6206C20.9914 22.6206 23.7968 19.8153 23.7968 16.3671C23.7968 12.9189 20.9915 10.1136 17.5432 10.1136Z" fill="#1E282C"/>
<path d="M33.2904 17.3113V3.62844C33.2904 3.49643 33.2062 3.37909 33.0809 3.33692C32.9558 3.29482 32.8178 3.33738 32.7379 3.44257C31.0307 5.69394 30.1067 8.44183 30.1067 11.2672V16.2728C30.1067 16.8469 30.5721 17.3123 31.1462 17.3123H31.5796C31.1524 21.7245 30.8701 27.8955 30.8701 28.618C30.8701 29.7564 31.5708 30.6792 32.4351 30.6792C33.2993 30.6792 34 29.7563 34 28.618C34 27.8954 33.7177 21.7235 33.2904 17.3113Z" fill="#1E282C"/>
<path d="M4.54332 14.5989C5.40939 14.0743 5.98825 13.1231 5.98825 12.0365L5.55927 5.02265C5.54286 4.75529 5.32127 4.54684 5.05338 4.54684C4.76365 4.54684 4.53282 4.78956 4.54723 5.07876L4.82621 10.704C4.82621 11.0202 4.56981 11.2765 4.25372 11.2765C3.93756 11.2765 3.68123 11.0201 3.68123 10.704L3.54184 5.08108C3.53447 4.78391 3.29149 4.54691 2.99419 4.54691C2.69689 4.54691 2.45398 4.78398 2.44654 5.08108L2.30715 10.704C2.30715 11.0202 2.05076 11.2765 1.73466 11.2765C1.4185 11.2765 1.16218 11.0201 1.16218 10.704L1.44115 5.07876C1.45549 4.78943 1.22453 4.54684 0.935 4.54684C0.667117 4.54684 0.445519 4.75529 0.429184 5.02265L0 12.0366C0 13.1231 0.578797 14.0743 1.44493 14.599C2.00859 14.9404 2.32282 15.5786 2.25018 16.2337C1.76123 20.6403 1.4292 27.8344 1.4292 28.618C1.4292 29.7564 2.12985 30.6792 2.99412 30.6792C3.8584 30.6792 4.55905 29.7563 4.55905 28.618C4.55905 27.8344 4.22696 20.6403 3.73807 16.2337C3.66536 15.579 3.97993 14.9402 4.54332 14.5989Z" fill="#1E282C"/>
</svg>
