<svg width="30" height="30" viewBox="0 0 30 30" fill="none" xmlns="http://www.w3.org/2000/svg">
<g clip-path="url(#clip0)">
<path d="M22.8223 2.10856C22.6331 1.92039 22.3492 1.86438 22.1027 1.96685C21.8562 2.06933 21.6954 2.3099 21.6954 2.57705V6.10302C18.1268 6.24525 16.3393 7.72429 16.066 7.97054C14.2653 9.4483 13.0358 11.5076 12.5893 13.7936C12.366 14.8981 12.326 16.0317 12.4713 17.1492L12.4718 17.153C12.4731 17.1628 12.4747 17.1729 12.4762 17.1827L12.6167 17.9899C12.6639 18.2617 12.8753 18.4757 13.1466 18.5262C13.4181 18.5768 13.6923 18.4532 13.8342 18.2168L14.255 17.5154C15.5476 15.3658 17.1586 13.9409 19.0437 13.2804C19.8939 12.9799 20.7948 12.8478 21.6954 12.8917V16.5436C21.6954 16.811 21.8567 17.0524 22.104 17.1543C22.3515 17.2565 22.636 17.1992 22.8247 17.0095L29.8077 9.99113C30.065 9.73249 30.064 9.31408 29.8053 9.05673L22.8223 2.10856Z" fill="#1E282C"/>
<path d="M27.5784 21.3736C27.2137 21.3736 26.9176 21.6694 26.9176 22.0344V24.8273C26.9166 25.9214 26.0297 26.8084 24.9352 26.8097H3.30398C2.20954 26.8084 1.32288 25.9214 1.32159 24.8273V9.08406C1.32288 7.98961 2.20954 7.10296 3.30398 7.10167H7.87406C8.23904 7.10167 8.53485 6.80586 8.53485 6.44087C8.53485 6.07588 8.23904 5.78008 7.87406 5.78008H3.30398C1.48008 5.78214 0.00206499 7.26015 0 9.08406V24.8273C0.00206499 26.6509 1.48008 28.1289 3.30398 28.1312H24.9352C26.7591 28.1289 28.2372 26.6509 28.2392 24.8273V22.0344C28.2392 21.6694 27.9434 21.3736 27.5784 21.3736Z" fill="#1E282C"/>
</g>
<defs>
<clipPath id="clip0">
<rect width="30" height="30" fill="white"/>
</clipPath>
</defs>
</svg>
