<svg width="34" height="34" viewBox="0 0 34 34" fill="none" xmlns="http://www.w3.org/2000/svg">
<path d="M17 0C13.9382 0 11.1048 0.776882 8.5 2.33065C5.89516 3.83871 3.81586 5.89516 2.2621 8.5C0.754032 11.1048 0 13.9382 0 17C0 20.0618 0.754032 22.8952 2.2621 25.5C3.81586 28.1048 5.89516 30.1613 8.5 31.6694C11.1048 33.2231 13.9382 34 17 34C20.0618 34 22.8952 33.2231 25.5 31.6694C28.1048 30.1613 30.1613 28.1048 31.6694 25.5C33.2231 22.8952 34 20.0618 34 17C34 13.9382 33.2231 11.1048 31.6694 8.5C30.1613 5.89516 28.1048 3.83871 25.5 2.33065C22.8952 0.776882 20.0618 0 17 0ZM17 6.58065C18.6452 6.58065 20.0618 7.17473 21.25 8.3629C22.4382 9.55108 23.0323 10.9677 23.0323 12.6129C23.0323 14.2581 22.4382 15.6747 21.25 16.8629C20.0618 18.0511 18.6452 18.6452 17 18.6452C15.3548 18.6452 13.9382 18.0511 12.75 16.8629C11.5618 15.6747 10.9677 14.2581 10.9677 12.6129C10.9677 10.9677 11.5618 9.55108 12.75 8.3629C13.9382 7.17473 15.3548 6.58065 17 6.58065ZM17 30.1613C15.0349 30.1613 13.1613 29.75 11.379 28.9274C9.64247 28.1048 8.15726 26.9624 6.92339 25.5C7.60887 24.2661 8.5457 23.2836 9.73387 22.5524C10.922 21.7755 12.2473 21.3871 13.7097 21.3871C13.8468 21.3871 14.0067 21.4099 14.1895 21.4556C15.1492 21.7755 16.086 21.9355 17 21.9355C17.914 21.9355 18.8508 21.7755 19.8105 21.4556C19.9933 21.4099 20.1532 21.3871 20.2903 21.3871C21.7527 21.3871 23.078 21.7755 24.2661 22.5524C25.4543 23.2836 26.3911 24.2661 27.0766 25.5C25.8427 26.9624 24.3347 28.1048 22.5524 28.9274C20.8159 29.75 18.9651 30.1613 17 30.1613Z" fill="#1E282C"/>
</svg>
