<svg width="19" height="18" viewBox="0 0 19 18" fill="none" xmlns="http://www.w3.org/2000/svg">
<path d="M9.06262 1.24058C9.21662 0.78917 9.85505 0.789172 10.0091 1.24058L11.7858 6.44838C11.8548 6.65084 12.0451 6.78693 12.259 6.78693H17.9547C18.4449 6.78693 18.6423 7.41914 18.2392 7.69809L13.6739 10.857C13.4901 10.9842 13.413 11.218 13.4852 11.4296L15.2388 16.5696C15.3945 17.0259 14.8776 17.4166 14.4811 17.1422L9.82034 13.9172C9.64916 13.7988 9.42251 13.7988 9.25133 13.9172L4.59062 17.1422C4.19407 17.4166 3.67719 17.0259 3.8329 16.5695L5.58646 11.4296C5.65865 11.218 5.5816 10.9842 5.39775 10.857L0.832478 7.69809C0.429332 7.41914 0.626734 6.78693 1.11698 6.78693H6.81268C7.0266 6.78693 7.21682 6.65084 7.2859 6.44837L9.06262 1.24058Z" fill="#FC6621"/>
</svg>
