<svg width="50" height="39" viewBox="0 0 50 39" fill="none" xmlns="http://www.w3.org/2000/svg">
<path d="M36.2552 15.2278C34.1971 15.2278 31.7695 15.5162 31.7695 16.9577C31.7695 18.3992 34.1971 18.6875 36.2552 18.6875C38.3134 18.6875 40.741 18.3992 40.741 16.9577C40.741 15.5424 38.3134 15.2278 36.2552 15.2278Z" fill="#1E282C"/>
<path d="M24.4868 10.6673C26.7297 10.6673 28.867 10.2742 30.3974 9.56653C30.5557 9.54032 30.7141 9.46169 30.846 9.33065C31.0835 9.1996 31.2946 9.06855 31.4793 8.9375C32.2973 8.33468 32.7194 7.60081 32.7194 6.78831C32.7194 4.875 29.8961 2.93549 24.4604 2.93549C19.0512 2.93549 16.2014 4.875 16.2014 6.78831C16.2542 8.72782 19.0775 10.6673 24.4868 10.6673ZM20.4233 8.15121C18.9192 7.70565 18.2859 7.10282 18.2859 6.84073C18.2859 6.73589 18.3915 6.57863 18.629 6.36895L20.4233 8.15121ZM25.1201 4.97984L28.3656 8.20363C28.1018 8.28226 27.8379 8.33468 27.5477 8.3871L24.1174 4.97984C24.2757 4.97984 24.4076 4.97984 24.566 4.97984C24.7507 4.97984 24.9354 4.97984 25.1201 4.97984ZM24.9618 8.6754C24.566 8.6754 24.1702 8.6754 23.7744 8.6754L20.5552 5.45161C20.8455 5.37299 21.1885 5.29436 21.5051 5.21573L24.9618 8.6754ZM28.4712 5.47782C30.0544 5.92339 30.7404 6.55242 30.7404 6.84073C30.7404 6.94557 30.6085 7.12903 30.3446 7.33871L28.4712 5.47782Z" fill="#1E282C"/>
<path d="M12.7447 13.1049C7.3091 13.1049 4.48573 15.0444 4.48573 16.9577C4.48573 18.871 7.3091 20.8105 12.7447 20.8105C18.1804 20.8105 20.9774 18.871 20.9774 16.9577C20.9774 15.0444 18.154 13.1049 12.7447 13.1049ZM15.1987 18.6351L14.5654 18.0061L17.2041 15.752C18.5498 16.2238 18.9984 16.748 18.9984 16.9577C18.972 17.3508 17.7054 18.242 15.1987 18.6351ZM14.7237 15.2016L13.1405 16.5645L11.6893 15.123C12.692 15.0706 13.7474 15.0968 14.7237 15.2016ZM10.8977 17.1936L12.5337 18.8186C11.3726 18.7924 10.2908 18.6875 9.34087 18.4516L10.8977 17.1936ZM6.49111 16.9577C6.49111 16.6956 7.17717 15.9879 9.18255 15.4899L9.44642 15.752L7.12439 17.6129C6.64943 17.3246 6.49111 17.0625 6.49111 16.9577Z" fill="#1E282C"/>
<path d="M37.2315 10.1431V6.81452C37.2315 2.9879 31.6376 0 24.4868 0C17.3624 0 11.7684 2.9879 11.7684 6.81452V10.1431C5.03985 10.4052 0 13.2883 0 16.9577V32.1855C0 36.0121 5.59397 39 12.7447 39C18.0221 39 22.5606 37.375 24.5132 34.8589C26.4394 37.375 31.0043 39 36.2816 39C43.4324 39 49.0264 36.0121 49.0264 32.1855V16.9577C49 13.3145 43.9601 10.4052 37.2315 10.1431ZM12.7447 21.7802C8.1007 21.7802 3.93161 20.2863 2.53312 18.3468C2.48034 18.2681 2.42757 18.1895 2.3748 18.1109C2.29564 17.9536 2.21648 17.7964 2.1637 17.6391C2.08454 17.4032 2.03177 17.1673 2.03177 16.9314C2.03177 16.6956 2.08454 16.4597 2.1637 16.2238C2.21648 16.0665 2.29564 15.9093 2.3748 15.752C2.42757 15.6734 2.48034 15.5948 2.53312 15.5161C3.93161 13.5766 8.1007 12.0827 12.7447 12.0827C18.4443 12.0827 23.4577 14.3367 23.4577 16.9052C23.4577 19.4738 18.4443 21.7802 12.7447 21.7802ZM12.7447 37.0081C8.1007 37.0081 3.93161 35.5141 2.53312 33.5746C2.48034 33.496 2.42757 33.4173 2.3748 33.3387C2.29564 33.1814 2.21648 33.0242 2.1637 32.8669C2.08454 32.631 2.03177 32.3952 2.03177 32.1593V20.7056C4.32741 22.6189 8.33818 23.7722 12.7447 23.7722C17.1513 23.7722 21.1621 22.6189 23.4577 20.7056V32.1855C23.4577 34.754 18.4443 37.0081 12.7447 37.0081ZM25.0409 13.629C24.8298 13.8387 24.6451 14.0484 24.4868 14.2581C24.3285 14.0484 24.1438 13.8387 23.9327 13.629C24.3021 13.6552 24.6715 13.6552 25.0409 13.629ZM24.4868 1.99194C30.1863 1.99194 35.1998 4.24597 35.1998 6.81452C35.1998 9.38306 30.1863 11.6371 24.4868 11.6371C18.7873 11.6371 13.7738 9.38306 13.7738 6.81452C13.7738 4.24597 18.7873 1.99194 24.4868 1.99194ZM36.2552 37.0081C30.5557 37.0081 25.5423 34.754 25.5423 32.1855V20.7056C27.8379 22.6189 31.8487 23.7722 36.2552 23.7722C40.6618 23.7722 44.6726 22.6189 46.9682 20.7056V32.1855C46.9682 34.754 41.9548 37.0081 36.2552 37.0081ZM36.2552 21.7802C30.5557 21.7802 25.5423 19.5262 25.5423 16.9577C25.5423 14.3891 30.5557 12.1351 36.2552 12.1351C41.9548 12.1351 46.9682 14.3891 46.9682 16.9577C46.9682 19.5262 41.9548 21.7802 36.2552 21.7802Z" fill="#1E282C"/>
<path d="M36.2552 13.1049C30.846 13.1049 27.9962 15.0444 27.9962 16.9577C27.9962 18.871 30.8196 20.8105 36.2552 20.8105C41.6909 20.8105 44.5143 18.871 44.5143 16.9577C44.5143 15.0444 41.6645 13.1049 36.2552 13.1049ZM36.2552 18.7924C31.9015 18.7924 30.028 17.377 30.028 16.9315C30.028 16.3811 32.1389 15.0706 36.2552 15.0706C40.609 15.0706 42.4825 16.4859 42.4825 16.9315C42.4825 17.4032 40.609 18.7924 36.2552 18.7924Z" fill="#1E282C"/>
</svg>
