<svg width="22" height="26" viewBox="0 0 22 26" fill="none" xmlns="http://www.w3.org/2000/svg">
<path d="M21.4 22.4748L19.9113 5.71043C19.8794 5.33824 19.5657 5.05644 19.1988 5.05644H16.1362C16.0937 2.25971 13.8074 0 11 0C8.19268 0 5.90638 2.25971 5.86385 5.05644H2.80127C2.42908 5.05644 2.1207 5.33824 2.0888 5.71043L0.600044 22.4748C0.600044 22.4961 0.594727 22.5174 0.594727 22.5387C0.594727 24.4474 2.34401 26 4.49738 26H17.5027C19.6561 26 21.4054 24.4474 21.4054 22.5387C21.4054 22.5174 21.4054 22.4961 21.4 22.4748ZM11 1.43558C13.0152 1.43558 14.6581 3.05194 14.7007 5.05644H7.29943C7.34196 3.05194 8.98491 1.43558 11 1.43558ZM17.5027 24.5644H4.49738C3.14687 24.5644 2.05158 23.6712 2.03031 22.5706L3.45526 6.49734H5.85853V8.6773C5.85853 9.07607 6.17755 9.39509 6.57632 9.39509C6.97509 9.39509 7.29411 9.07607 7.29411 8.6773V6.49734H14.7007V8.6773C14.7007 9.07607 15.0197 9.39509 15.4184 9.39509C15.8172 9.39509 16.1362 9.07607 16.1362 8.6773V6.49734H18.5395L19.9698 22.5706C19.9485 23.6712 18.8479 24.5644 17.5027 24.5644Z" fill="#1E282C"/>
</svg>
