<svg width="30" height="31" viewBox="0 0 30 31" fill="none" xmlns="http://www.w3.org/2000/svg">
<path fill-rule="evenodd" clip-rule="evenodd" d="M0.209209 0.216183C0.488155 -0.072061 0.940416 -0.072061 1.21936 0.216183L15 14.4562L28.7806 0.216183C29.0596 -0.072061 29.5118 -0.072061 29.7908 0.216183C30.0697 0.504427 30.0697 0.971763 29.7908 1.26001L16.0102 15.5L29.7908 29.74C30.0697 30.0282 30.0697 30.4956 29.7908 30.7838C29.5118 31.0721 29.0596 31.0721 28.7806 30.7838L15 16.5438L1.21936 30.7838C0.940416 31.0721 0.488155 31.0721 0.209209 30.7838C-0.0697365 30.4956 -0.0697365 30.0282 0.209209 29.74L13.9898 15.5L0.209209 1.26001C-0.0697365 0.971763 -0.0697365 0.504427 0.209209 0.216183Z" fill="white"/>
</svg>
