<svg width="115" height="115" viewBox="0 0 115 115" fill="none" xmlns="http://www.w3.org/2000/svg">
<path d="M70.5049 84.6104C79.7812 69.2246 91.5058 47.5947 91.5058 36.4766C91.5058 17.7217 76.2549 2.4707 57.5 2.4707C38.7451 2.4707 23.4941 17.7217 23.4941 36.4766C23.4941 47.5947 35.2187 69.2246 44.4951 84.6104C33.4893 85.4414 8.44531 88.4287 8.44531 98.334C8.44531 108.082 33.8711 112.529 57.5224 112.529C81.1514 112.529 106.6 108.082 106.6 98.334C106.577 88.4287 81.5107 85.4414 70.5049 84.6104ZM28.1885 36.4766C28.1885 20.3047 41.3506 7.14258 57.5 7.14258C73.6719 7.14258 86.834 20.3047 86.834 36.4766C86.834 50.6045 64.3281 86.0479 57.5 96.4697C50.6719 86.0479 28.1885 50.6045 28.1885 36.4766ZM57.5 107.835C28.7725 107.835 13.1172 101.546 13.1172 98.3115C13.1172 95.8184 23.4492 90.4502 47.2578 89.0801C51.7275 96.29 55.1191 101.389 55.5683 101.995C56.1748 102.804 57.9492 103.77 59.4541 101.995C59.9258 101.434 63.2949 96.29 67.7646 89.0801C91.5732 90.4502 101.905 95.7959 101.905 98.3115C101.883 101.568 86.2275 107.835 57.5 107.835Z" fill="black"/>
<path d="M72.3018 36.4766C72.3018 28.3008 65.6758 21.6748 57.5 21.6748C49.3242 21.6748 42.6982 28.3008 42.6982 36.4766C42.6982 44.6523 49.3242 51.2783 57.5 51.2783C65.6758 51.2783 72.3018 44.6523 72.3018 36.4766ZM47.3701 36.4766C47.3701 30.8838 51.9072 26.3467 57.5 26.3467C63.0928 26.3467 67.6299 30.8838 67.6299 36.4766C67.6299 42.0693 63.0928 46.6064 57.5 46.6064C51.9072 46.6064 47.3701 42.0693 47.3701 36.4766Z" fill="black"/>
</svg>
