<svg width="24" height="15" viewBox="0 0 24 15" fill="none" xmlns="http://www.w3.org/2000/svg">
<path d="M23.043 1.82031C23.2148 1.1901 22.957 0.875 22.2695 0.875H19.7344C19.2188 0.875 18.8607 1.11849 18.6602 1.60547L18.2305 2.46484C17.8867 3.20964 17.5286 3.89714 17.1562 4.52734C16.612 5.41536 16.0677 6.16016 15.5234 6.76172C15.237 7.07682 15.0078 7.29167 14.8359 7.40625C14.6641 7.49219 14.5065 7.53516 14.3633 7.53516C14.2487 7.53516 14.1484 7.47786 14.0625 7.36328C13.9766 7.2487 13.9336 7.0625 13.9336 6.80469V1.82031C13.9336 1.47656 13.8763 1.23307 13.7617 1.08984C13.6758 0.946615 13.5039 0.875 13.2461 0.875H9.25C9.07812 0.875 8.92057 0.932292 8.77734 1.04688C8.66276 1.16146 8.60547 1.30469 8.60547 1.47656C8.60547 1.61979 8.70573 1.82031 8.90625 2.07812C9.10677 2.30729 9.25 2.52214 9.33594 2.72266C9.50781 3.06641 9.60807 3.46745 9.63672 3.92578V7.66406C9.63672 8.03646 9.59375 8.29427 9.50781 8.4375C9.45052 8.55208 9.33594 8.60938 9.16406 8.60938C8.8776 8.60938 8.47656 8.29427 7.96094 7.66406C7.44531 7.03385 6.92969 6.21745 6.41406 5.21484C5.84115 4.1263 5.35417 3.00911 4.95312 1.86328C4.83854 1.49089 4.69531 1.23307 4.52344 1.08984C4.38021 0.946615 4.15104 0.875 3.83594 0.875H1.30078C0.727865 0.875 0.441406 1.11849 0.441406 1.60547C0.441406 1.89193 0.541667 2.39323 0.742188 3.10938C1.05729 3.9974 1.47266 4.95703 1.98828 5.98828C2.64714 7.33464 3.46354 8.66667 4.4375 9.98438C5.46875 11.474 6.67188 12.6198 8.04688 13.4219C9.42188 14.224 10.7826 14.625 12.1289 14.625C12.9023 14.625 13.418 14.5391 13.6758 14.3672C13.8763 14.224 13.9622 13.9805 13.9336 13.6367V12.5195C13.9336 11.832 13.9479 11.388 13.9766 11.1875C13.9766 10.901 14.0195 10.7148 14.1055 10.6289C14.2201 10.543 14.3919 10.5 14.6211 10.5C15.1654 10.5 16.0104 11.0443 17.1562 12.1328C17.5 12.4766 17.8867 12.9062 18.3164 13.4219C18.7747 13.9089 19.0898 14.2096 19.2617 14.3242C19.5195 14.5247 19.806 14.625 20.1211 14.625H22.6562C23 14.625 23.2435 14.5391 23.3867 14.3672C23.5586 14.1667 23.6016 13.8945 23.5156 13.5508C23.2578 12.7487 22.0977 11.2878 20.0352 9.16797L19.6484 8.73828C19.4766 8.53776 19.3906 8.36589 19.3906 8.22266C19.3906 8.07943 19.4766 7.87891 19.6484 7.62109C19.6771 7.59245 19.9492 7.20573 20.4648 6.46094C21.0664 5.51562 21.582 4.6849 22.0117 3.96875C22.6133 2.96615 22.957 2.25 23.043 1.82031Z" fill="#F2F4F5"/>
</svg>
